<svg width="16" height="16" viewBox="0 0 16 16" fill="none" xmlns="http://www.w3.org/2000/svg">
<path d="M9.02564 0H6.15385V4.10256H9.02564V0Z" fill="#2A2B2E"/>
<path d="M14.5641 0H10.2564V4.10256H14.359V1.23077H14.5641C14.9005 1.23077 15.1795 0.951795 15.1795 0.615385C15.1795 0.278974 14.9005 0 14.5641 0Z" fill="#2A2B2E"/>
<path d="M9.02564 5.3335H6.15385V8.20529H9.02564V5.3335Z" fill="#2A2B2E"/>
<path d="M4.92308 5.3335H0.820511V8.20529H4.92308V5.3335Z" fill="#2A2B2E"/>
<path d="M14.359 5.3335H10.2564V8.20529H14.359V5.3335Z" fill="#2A2B2E"/>
<path d="M0.820513 4.10256H4.92308V0H0.615385C0.278974 0 0 0.278974 0 0.615385C0 0.951795 0.278974 1.23077 0.615385 1.23077H0.820513V4.10256Z" fill="#2A2B2E"/>
<path d="M0.820511 15.3848C0.820511 15.7212 1.09949 16.0001 1.4359 16.0001H4.10256V12.1027C4.10256 11.315 4.75077 10.6668 5.53846 10.6668H9.64102C10.4287 10.6668 11.0769 11.315 11.0769 12.1027V16.0001H13.7436C14.08 16.0001 14.359 15.7212 14.359 15.3848V9.43604H0.820511V15.3848Z" fill="#2A2B2E"/>
<path d="M5.33334 12.1026V16H6.97436V11.8975H5.53846C5.42359 11.8975 5.33334 11.9877 5.33334 12.1026Z" fill="#2A2B2E"/>
<path d="M9.64103 11.8975H8.20513V16H9.84616V12.1026C9.84616 11.9877 9.7559 11.8975 9.64103 11.8975Z" fill="#2A2B2E"/>
</svg>
