<svg width="18" height="18" viewBox="0 0 18 18" fill="none" xmlns="http://www.w3.org/2000/svg">
<path d="M13.6588 5.07314C13.5973 5.06435 13.5357 5.06435 13.4742 5.07314C12.1114 5.02918 11.0299 3.91256 11.0299 2.54097C11.0299 1.143 12.1641 0 13.5709 0C14.9688 0 16.1118 1.1342 16.1118 2.54097C16.1031 3.91256 15.0216 5.02918 13.6588 5.07314Z" fill="white"/>
<path d="M16.5251 11.1664C15.5404 11.8258 14.16 12.072 12.8851 11.9049C13.2192 11.184 13.395 10.3839 13.4038 9.53981C13.4038 8.66058 13.2104 7.82532 12.8411 7.09556C14.1424 6.91971 15.5228 7.1659 16.5163 7.82532C17.9055 8.73971 17.9055 10.2432 16.5251 11.1664Z" fill="white"/>
<path d="M3.90818 5.07314C3.96973 5.06435 4.03127 5.06435 4.09282 5.07314C5.45562 5.02918 6.53707 3.91256 6.53707 2.54097C6.53707 1.1342 5.40287 0 3.9961 0C2.59813 0 1.46393 1.1342 1.46393 2.54097C1.46393 3.91256 2.54538 5.02918 3.90818 5.07314Z" fill="white"/>
<path d="M4.00488 9.53949C4.00488 10.3923 4.18952 11.2012 4.52363 11.931C3.28392 12.0629 1.99145 11.7991 1.04188 11.1749C-0.347295 10.2517 -0.347295 8.74818 1.04188 7.825C1.98266 7.19195 3.31029 6.93698 4.5588 7.07765C4.19831 7.8162 4.00488 8.65147 4.00488 9.53949Z" fill="white"/>
<path d="M8.90215 12.1951C8.83181 12.1863 8.75268 12.1863 8.67355 12.1951C7.05577 12.1423 5.76331 10.8147 5.76331 9.17933C5.7721 7.5088 7.11732 6.15479 8.79664 6.15479C10.4672 6.15479 11.8212 7.5088 11.8212 9.17933C11.8124 10.8147 10.5287 12.1423 8.90215 12.1951Z" fill="white"/>
<path d="M6.04468 14.0147C4.71704 14.9027 4.71704 16.3622 6.04468 17.2414C7.55695 18.2526 10.0364 18.2526 11.5486 17.2414C12.8763 16.3534 12.8763 14.8939 11.5486 14.0147C10.0452 13.0036 7.56574 13.0036 6.04468 14.0147Z" fill="white"/>
</svg>
