<svg width="18" height="16" viewBox="0 0 18 16" fill="none" xmlns="http://www.w3.org/2000/svg">
<path d="M16.6 15.9998H0.6C0.272 15.9998 0 15.7278 0 15.3998C0 15.0718 0.272 14.7998 0.6 14.7998H16.6C16.928 14.7998 17.2 15.0718 17.2 15.3998C17.2 15.7278 16.928 15.9998 16.6 15.9998Z" fill="white"/>
<path d="M6.79999 1.6V16H10.4V1.6C10.4 0.72 10.04 0 8.95999 0H8.23999C7.15999 0 6.79999 0.72 6.79999 1.6Z" fill="white"/>
<path d="M1.39999 6.3998V15.9998H4.59999V6.3998C4.59999 5.5198 4.27999 4.7998 3.31999 4.7998H2.67999C1.71999 4.7998 1.39999 5.5198 1.39999 6.3998Z" fill="white"/>
<path d="M12.6 10.3998V15.9998H15.8V10.3998C15.8 9.5198 15.48 8.7998 14.52 8.7998H13.88C12.92 8.7998 12.6 9.5198 12.6 10.3998Z" fill="white"/>
</svg>
