<svg width="30" height="27" viewBox="0 0 30 27" fill="none" xmlns="http://www.w3.org/2000/svg">
<g id="h">
<g id="Group">
<path id="Vector" d="M24.2183 0.16394H5.76627C2.58329 0.16394 0 2.74723 0 5.93021V24.3208C0 25.0589 0.415172 25.7354 1.09175 26.0584C1.35315 26.1814 1.64531 26.2582 1.92209 26.2582C2.35264 26.2582 2.76781 26.1199 3.12148 25.8277L8.30343 21.6914C8.9185 21.1993 9.68734 20.9379 10.4716 20.9379H24.2337C27.4167 20.9379 30 18.3546 30 15.1716V5.93021C30 2.74723 27.4167 0.16394 24.2337 0.16394H24.2183ZM20.7586 13.6186C20.7586 15.0947 19.5438 16.3095 18.0677 16.3095H11.917C10.4408 16.3095 9.22604 15.0947 9.22604 13.6186V9.8359C9.22604 8.92868 9.67196 8.09833 10.4254 7.5909L13.5008 5.5458C14.408 4.9461 15.5766 4.93073 16.4839 5.5458L19.5592 7.5909C20.3127 8.09833 20.7586 8.92868 20.7586 9.8359V13.6186Z" fill="#2A2B2E"/>
<path id="Vector_2" d="M15.2076 7.45262C15.2076 7.45262 15.0692 7.39111 14.9924 7.39111C14.9155 7.39111 14.8386 7.40649 14.7771 7.45262L11.7017 9.49773C11.5941 9.57461 11.5326 9.68225 11.5326 9.82064V13.6033C11.5326 13.8186 11.7017 13.9877 11.917 13.9877H18.0677C18.283 13.9877 18.4521 13.8186 18.4521 13.6033V9.82064C18.4521 9.69762 18.3906 9.57461 18.283 9.49773L15.2076 7.45262Z" fill="#2A2B2E"/>
</g>
</g>
</svg>
