<?xml version="1.0" encoding="UTF-8"?>
<svg data-bbox="0 0 137 31" xmlns="http://www.w3.org/2000/svg" viewBox="0 0 137 31" height="31" width="137" data-type="color">
    <g>
        <path fill="#F2F9FF" d="M137 15.5c0 8.56-6.94 15.5-15.5 15.5h-106C6.94 31 0 24.06 0 15.5 0 6.94 6.94 0 15.5 0h106c8.56 0 15.5 6.94 15.5 15.5z" data-color="1"/>
        <path fill="#17619C" d="M35.272 21.144c-1.11 0-2.059-.235-2.848-.704-.79-.47-1.397-1.136-1.824-2-.416-.864-.624-1.893-.624-3.088 0-1.184.208-2.208.624-3.072.427-.864 1.035-1.53 1.824-2 .79-.47 1.739-.704 2.848-.704a6.04 6.04 0 0 1 2.144.368 4.5 4.5 0 0 1 1.68 1.072l-.512 1.072c-.49-.459-1.003-.79-1.536-.992a4.576 4.576 0 0 0-1.744-.32c-1.27 0-2.24.4-2.912 1.2-.672.8-1.008 1.925-1.008 3.376 0 1.461.336 2.592 1.008 3.392.672.8 1.643 1.2 2.912 1.2.64 0 1.221-.101 1.744-.304.533-.213 1.045-.55 1.536-1.008l.512 1.072a4.78 4.78 0 0 1-1.68 1.072 6.033 6.033 0 0 1-2.144.368Zm8.38 0c-.758 0-1.414-.165-1.969-.496a3.406 3.406 0 0 1-1.296-1.392c-.298-.608-.448-1.323-.448-2.144 0-.821.15-1.53.448-2.128a3.384 3.384 0 0 1 1.296-1.408c.555-.33 1.21-.496 1.968-.496.747 0 1.397.165 1.952.496.566.33.997.8 1.296 1.408.31.597.464 1.307.464 2.128 0 .821-.154 1.536-.464 2.144a3.27 3.27 0 0 1-1.296 1.392c-.555.33-1.205.496-1.952.496Zm0-1.04c.724 0 1.306-.256 1.743-.768.438-.523.656-1.264.656-2.224 0-.97-.218-1.712-.656-2.224-.437-.512-1.019-.768-1.744-.768-.736 0-1.323.256-1.76.768-.426.512-.64 1.253-.64 2.224 0 .96.214 1.701.64 2.224.438.512 1.024.768 1.76.768Zm5.69.896v-7.776h1.264v1.312c.234-.47.56-.827.976-1.072.416-.256.901-.384 1.456-.384 1.216 0 1.994.528 2.336 1.584a2.65 2.65 0 0 1 1.04-1.152c.458-.288.986-.432 1.584-.432 1.728 0 2.592 1.024 2.592 3.072V21h-1.296v-4.784c0-.715-.128-1.237-.384-1.568-.246-.341-.656-.512-1.232-.512-.63 0-1.13.224-1.504.672-.374.448-.56 1.045-.56 1.792V21h-1.296v-4.784c0-.715-.128-1.237-.384-1.568-.246-.341-.656-.512-1.232-.512-.64 0-1.147.224-1.52.672-.363.448-.544 1.045-.544 1.792V21h-1.296Zm13.67 2.88V13.224h1.265v1.392c.234-.48.581-.853 1.04-1.12.47-.277 1.013-.416 1.632-.416.693 0 1.296.165 1.808.496.522.32.922.784 1.2 1.392.288.597.432 1.312.432 2.144 0 .821-.144 1.536-.432 2.144a3.196 3.196 0 0 1-1.2 1.392c-.512.33-1.115.496-1.808.496-.597 0-1.13-.133-1.6-.4a2.474 2.474 0 0 1-1.04-1.104v4.24h-1.296Zm3.665-3.776c.725 0 1.306-.256 1.744-.768.437-.523.656-1.264.656-2.224 0-.97-.219-1.712-.656-2.224-.438-.512-1.019-.768-1.744-.768-.726 0-1.307.256-1.744.768-.438.512-.656 1.253-.656 2.224 0 .96.219 1.701.656 2.224.437.512 1.018.768 1.744.768Zm8.048 1.04c-.79 0-1.387-.23-1.792-.688-.395-.47-.592-1.147-.592-2.032V9.72h1.296v8.608c0 1.141.453 1.712 1.36 1.712a2.5 2.5 0 0 0 .72-.096l-.032 1.088c-.33.075-.65.112-.96.112Zm5.776 0c-1.226 0-2.197-.357-2.912-1.072-.714-.725-1.072-1.707-1.072-2.944 0-.8.16-1.504.48-2.112a3.47 3.47 0 0 1 1.312-1.424c.566-.341 1.216-.512 1.952-.512 1.056 0 1.883.341 2.48 1.024.598.672.896 1.6.896 2.784v.496h-5.856c.043.885.299 1.563.768 2.032.47.459 1.12.688 1.952.688.47 0 .918-.07 1.344-.208.427-.15.832-.39 1.216-.72l.448.912c-.352.33-.8.592-1.344.784a5.23 5.23 0 0 1-1.664.272Zm-.208-7.104c-.736 0-1.317.23-1.744.688-.426.459-.677 1.061-.752 1.808h4.72c-.032-.79-.24-1.403-.624-1.84-.373-.437-.906-.656-1.6-.656Zm8.34 7.104c-.917 0-1.605-.24-2.064-.72-.459-.49-.688-1.195-.688-2.112v-4.08h-1.52v-1.008h1.52V10.84h1.296v2.384h2.464v1.008h-2.464v3.952c0 .608.128 1.072.384 1.392.256.31.672.464 1.248.464.17 0 .341-.021.512-.064a9.35 9.35 0 0 0 .464-.128l.224.992a2.631 2.631 0 0 1-.608.208 3.29 3.29 0 0 1-.768.096Zm5.9 0c-1.227 0-2.198-.357-2.912-1.072-.715-.725-1.072-1.707-1.072-2.944 0-.8.16-1.504.48-2.112.32-.619.757-1.093 1.312-1.424.565-.341 1.216-.512 1.952-.512 1.055 0 1.882.341 2.48 1.024.597.672.895 1.6.895 2.784v.496h-5.856c.043.885.3 1.563.769 2.032.469.459 1.12.688 1.951.688.47 0 .918-.07 1.344-.208.427-.15.832-.39 1.216-.72l.448.912c-.352.33-.8.592-1.344.784a5.23 5.23 0 0 1-1.663.272Zm-.209-7.104c-.736 0-1.317.23-1.743.688-.427.459-.678 1.061-.752 1.808h4.72c-.033-.79-.24-1.403-.625-1.84-.373-.437-.906-.656-1.6-.656Zm8.18 7.104c-.693 0-1.301-.165-1.824-.496-.512-.33-.912-.795-1.2-1.392-.277-.608-.416-1.323-.416-2.144 0-.832.139-1.547.416-2.144.288-.608.688-1.072 1.2-1.392.523-.33 1.131-.496 1.824-.496.608 0 1.141.133 1.6.4a2.48 2.48 0 0 1 1.04 1.104V9.72h1.296V21h-1.264v-1.424c-.224.49-.571.875-1.04 1.152-.469.277-1.013.416-1.632.416Zm.272-1.04c.725 0 1.307-.256 1.744-.768.437-.523.656-1.264.656-2.224 0-.97-.219-1.712-.656-2.224-.437-.512-1.019-.768-1.744-.768-.736 0-1.323.256-1.76.768-.427.512-.64 1.253-.64 2.224 0 .96.213 1.701.64 2.224.437.512 1.024.768 1.76.768Z" data-color="2"/>
    </g>
</svg>
