<?xml version="1.0" encoding="UTF-8"?>
<!-- Generated by Pixelmator Pro 3.5 -->
<svg width="137" height="31" viewBox="0 0 137 31" xmlns="http://www.w3.org/2000/svg">
    <g id="Group">
        <g id="Completed">
            <path id="Background" fill="#ddf0fb" stroke="none" visibility="hidden" d="M 137 15.5 C 137 24.059999 130.059998 31 121.5 31 L 15.5 31 C 6.94 31 0 24.059999 0 15.5 C 0 6.940001 6.94 0 15.5 0 L 121.5 0 C 130.059998 0 137 6.940001 137 15.5 Z"/>
            <path id="Text" fill="#17619c" stroke="none" visibility="hidden" d="M 35.271999 21.143999 C 34.161999 21.143999 33.213001 20.909 32.424 20.440001 C 31.634001 19.969999 31.027 19.304001 30.6 18.440001 C 30.184 17.576 29.976 16.547001 29.976 15.352 C 29.976 14.167999 30.184 13.144001 30.6 12.279999 C 31.027 11.416 31.635 10.75 32.424 10.279999 C 33.214001 9.810001 34.162998 9.576 35.271999 9.576 C 36.003048 9.567898 36.729496 9.692587 37.416 9.944 C 38.04908 10.171282 38.623158 10.537598 39.096001 11.015999 L 38.584 12.088001 C 38.094002 11.629 37.581001 11.298 37.048 11.096001 C 36.493092 10.876648 35.900635 10.767941 35.304001 10.776001 C 34.034 10.776001 33.063999 11.175999 32.391998 11.976 C 31.719999 12.776001 31.384001 13.901001 31.384001 15.352 C 31.384001 16.813 31.719999 17.944 32.391998 18.743999 C 33.063999 19.544001 34.035 19.944 35.304001 19.944 C 35.944 19.944 36.525002 19.843 37.048 19.639999 C 37.581001 19.427 38.092999 19.09 38.584 18.632 L 39.096001 19.704 C 38.617538 20.1754 38.045097 20.54067 37.416 20.775999 C 36.729534 21.027563 36.003059 21.152256 35.271999 21.143999 Z M 43.652 21.143999 C 42.894001 21.143999 42.237999 20.979 41.682999 20.648001 C 41.127586 20.316475 40.678059 19.833649 40.387001 19.256001 C 40.089001 18.648001 39.938999 17.933001 39.938999 17.112 C 39.938999 16.291 40.089001 15.582 40.387001 14.984001 C 40.674534 14.39975 41.124531 13.910866 41.682999 13.576 C 42.237999 13.246 42.893002 13.08 43.651001 13.08 C 44.397999 13.08 45.048 13.244999 45.603001 13.576 C 46.168999 13.906 46.599998 14.375999 46.898998 14.984001 C 47.209 15.581 47.362999 16.291 47.362999 17.112 C 47.362999 17.933001 47.209 18.648001 46.898998 19.256001 C 46.61446 19.838158 46.163376 20.322655 45.603001 20.648001 C 45.048 20.978001 44.397999 21.143999 43.651001 21.143999 Z M 43.652 20.104 C 44.375999 20.104 44.958 19.848 45.395 19.336 C 45.833 18.813 46.050999 18.072001 46.050999 17.112 C 46.050999 16.142 45.833 15.4 45.395 14.888 C 44.958 14.375999 44.375999 14.119999 43.651001 14.119999 C 42.915001 14.119999 42.327999 14.375999 41.890999 14.888 C 41.465 15.4 41.250999 16.141001 41.250999 17.112 C 41.250999 18.072001 41.465 18.813 41.890999 19.336 C 42.328999 19.848 42.915001 20.104 43.651001 20.104 Z M 49.341999 21 L 49.341999 13.223999 L 50.605999 13.223999 L 50.605999 14.535999 C 50.84 14.066 51.166 13.709 51.582001 13.464001 C 51.998001 13.208 52.483002 13.08 53.037998 13.08 C 54.254002 13.08 55.032001 13.608 55.374001 14.664 C 55.597931 14.184814 55.960136 13.783606 56.414001 13.512001 C 56.872002 13.223999 57.400002 13.08 57.998001 13.08 C 59.726002 13.08 60.59 14.104 60.59 16.152 L 60.59 21 L 59.293999 21 L 59.293999 16.216 C 59.293999 15.501 59.166 14.979 58.91 14.647999 C 58.664001 14.306999 58.254002 14.136 57.678001 14.136 C 57.048 14.136 56.548 14.360001 56.174 14.807999 C 55.799999 15.256 55.613998 15.853 55.613998 16.6 L 55.613998 21 L 54.318001 21 L 54.318001 16.216 C 54.318001 15.501 54.189999 14.979 53.933998 14.647999 C 53.688 14.306999 53.278 14.136 52.702 14.136 C 52.062 14.136 51.555 14.360001 51.181999 14.807999 C 50.819 15.256 50.638 15.853 50.638 16.6 L 50.638 21 L 49.341999 21 Z M 63.012001 23.879999 L 63.012001 13.223999 L 64.277 13.223999 L 64.277 14.616001 C 64.511002 14.136 64.858002 13.763 65.317001 13.496 C 65.787003 13.219 66.330002 13.08 66.948997 13.08 C 67.641998 13.08 68.245003 13.244999 68.757004 13.576 C 69.278999 13.896 69.679001 14.360001 69.957001 14.968 C 70.245003 15.565 70.389 16.280001 70.389 17.112 C 70.389 17.933001 70.245003 18.648001 69.957001 19.256001 C 69.701912 19.827482 69.28466 20.311497 68.757004 20.648001 C 68.245003 20.978001 67.641998 21.143999 66.948997 21.143999 C 66.351997 21.143999 65.819 21.011 65.348999 20.743999 C 64.895294 20.493961 64.531532 20.107809 64.308998 19.639999 L 64.308998 23.879999 L 63.013 23.879999 Z M 66.677002 20.104 C 67.402 20.104 67.983002 19.848 68.420998 19.336 C 68.858002 18.813 69.077003 18.072001 69.077003 17.112 C 69.077003 16.142 68.858002 15.4 68.420998 14.888 C 67.983002 14.375999 67.402 14.119999 66.677002 14.119999 C 65.950996 14.119999 65.370003 14.375999 64.932999 14.888 C 64.495003 15.4 64.277 16.141001 64.277 17.112 C 64.277 18.072001 64.496002 18.813 64.932999 19.336 C 65.370003 19.848 65.950996 20.104 66.677002 20.104 Z M 74.724998 21.143999 C 73.934998 21.143999 73.337997 20.914 72.932999 20.455999 C 72.538002 19.986 72.341003 19.309 72.341003 18.424 L 72.341003 9.720001 L 73.637001 9.720001 L 73.637001 18.327999 C 73.637001 19.469 74.089996 20.040001 74.997002 20.040001 C 75.240395 20.043222 75.482956 20.010881 75.717003 19.944 L 75.684998 21.032 C 75.355003 21.107 75.035004 21.143999 74.724998 21.143999 Z M 80.500999 21.143999 C 79.275002 21.143999 78.304001 20.787001 77.588997 20.072001 C 76.875 19.347 76.516998 18.365 76.516998 17.128 C 76.516998 16.327999 76.677002 15.624 76.997002 15.016 C 77.290359 14.42646 77.745407 13.932564 78.308998 13.591999 C 78.875 13.250999 79.525002 13.08 80.261002 13.08 C 81.317001 13.08 82.143997 13.421 82.740997 14.104 C 83.338997 14.776001 83.637001 15.704 83.637001 16.888 L 83.637001 17.384001 L 77.780998 17.384001 C 77.823997 18.268999 78.080002 18.947001 78.549004 19.416 C 79.018997 19.875 79.668999 20.104 80.500999 20.104 C 80.971001 20.104 81.418999 20.034 81.845001 19.896 C 82.272003 19.746 82.677002 19.506001 83.060997 19.176001 L 83.509003 20.087999 C 83.156998 20.417999 82.709 20.68 82.165001 20.872 C 81.628693 21.052067 81.066727 21.143927 80.500999 21.143999 Z M 80.292999 14.040001 C 79.556999 14.040001 78.975998 14.27 78.549004 14.728001 C 78.123001 15.187 77.872002 15.789 77.796997 16.535999 L 82.516998 16.535999 C 82.485001 15.746 82.277 15.133 81.892998 14.695999 C 81.519997 14.258999 80.987 14.040001 80.292999 14.040001 Z M 88.633003 21.143999 C 87.716003 21.143999 87.028 20.903999 86.569 20.424 C 86.110001 19.934 85.880997 19.229 85.880997 18.312 L 85.880997 14.232 L 84.361 14.232 L 84.361 13.223999 L 85.880997 13.223999 L 85.880997 10.84 L 87.177002 10.84 L 87.177002 13.223999 L 89.640999 13.223999 L 89.640999 14.232 L 87.177002 14.232 L 87.177002 18.184 C 87.177002 18.792 87.305 19.256001 87.560997 19.576 C 87.817001 19.886 88.233002 20.040001 88.808998 20.040001 C 88.978996 20.040001 89.150002 20.018999 89.320999 19.976 C 89.476738 19.937323 89.631454 19.894642 89.785004 19.848 L 90.009003 20.84 C 89.81559 20.933916 89.611404 21.003769 89.401001 21.048 C 89.149666 21.110106 88.891884 21.142328 88.633003 21.143999 Z M 94.532997 21.143999 C 93.306 21.143999 92.334999 20.787001 91.621002 20.072001 C 90.905998 19.347 90.549004 18.365 90.549004 17.128 C 90.549004 16.327999 90.709 15.624 91.028999 15.016 C 91.348999 14.396999 91.786003 13.923 92.341003 13.591999 C 92.905998 13.250999 93.556999 13.08 94.292999 13.08 C 95.348 13.08 96.175003 13.421 96.773003 14.104 C 97.370003 14.776001 97.667999 15.704 97.667999 16.888 L 97.667999 17.384001 L 91.811996 17.384001 C 91.855003 18.268999 92.112 18.947001 92.581001 19.416 C 93.050003 19.875 93.700996 20.104 94.531998 20.104 C 95.001999 20.104 95.449997 20.034 95.875999 19.896 C 96.303001 19.746 96.708 19.506001 97.092003 19.176001 L 97.540001 20.087999 C 97.188004 20.417999 96.739998 20.68 96.195999 20.872 C 95.660011 21.05196 95.098389 21.14382 94.532997 21.143999 Z M 94.323997 14.040001 C 93.587997 14.040001 93.007004 14.27 92.581001 14.728001 C 92.153999 15.187 91.903 15.789 91.829002 16.535999 L 96.549004 16.535999 C 96.515999 15.746 96.308998 15.133 95.924004 14.695999 C 95.551003 14.258999 95.017998 14.040001 94.323997 14.040001 Z M 102.503998 21.143999 C 101.810997 21.143999 101.203003 20.979 100.68 20.648001 C 100.167999 20.318001 99.767998 19.853001 99.480003 19.256001 C 99.203003 18.648001 99.064003 17.933001 99.064003 17.112 C 99.064003 16.280001 99.203003 15.565 99.480003 14.968 C 99.767998 14.360001 100.167999 13.896 100.68 13.576 C 101.203003 13.246 101.810997 13.08 102.503998 13.08 C 103.112 13.08 103.644997 13.213001 104.103996 13.48 C 104.557449 13.730362 104.921135 14.116421 105.143997 14.584 L 105.143997 9.720001 L 106.440002 9.720001 L 106.440002 21 L 105.176003 21 L 105.176003 19.576 C 104.952003 20.066 104.605003 20.451 104.136002 20.728001 C 103.667 21.004999 103.123001 21.143999 102.503998 21.143999 Z M 102.776001 20.104 C 103.500999 20.104 104.083 19.848 104.519997 19.336 C 104.957001 18.813 105.176003 18.072001 105.176003 17.112 C 105.176003 16.142 104.957001 15.4 104.519997 14.888 C 104.083 14.375999 103.500999 14.119999 102.776001 14.119999 C 102.040001 14.119999 101.453003 14.375999 101.015999 14.888 C 100.588997 15.4 100.375999 16.141001 100.375999 17.112 C 100.375999 18.072001 100.588997 18.813 101.015999 19.336 C 101.453003 19.848 102.040001 20.104 102.776001 20.104 Z"/>
        </g>
        <g id="Archive">
            <path id="path1" fill="#e2e2e2" stroke="none" visibility="hidden" d="M 137 15.5 C 137 24.059999 130.059998 31 121.5 31 L 15.5 31 C 6.94 31 0 24.059999 0 15.5 C 0 6.940001 6.94 0 15.5 0 L 121.5 0 C 130.059998 0 137 6.940001 137 15.5 Z"/>
            <text id="text1" visibility="hidden" xml:space="preserve" x="36" y="20" font-family="Roboto" font-size="16" fill="#5b5858">Archived</text>
        </g>
        <g id="Sent">
            <path id="path2" fill="#ebfdf7" stroke="none" visibility="hidden" d="M 137 15.5 C 137 24.059999 130.059998 31 121.5 31 L 15.5 31 C 6.94 31 0 24.059999 0 15.5 C 0 6.940001 6.94 0 15.5 0 L 121.5 0 C 130.059998 0 137 6.940001 137 15.5 Z"/>
            <text id="text2" visibility="hidden" xml:space="preserve" x="68.5" y="20" text-anchor="middle" font-family="Roboto" font-size="16" fill="#1c7d62">Sent</text>
        </g>
        <g id="Opened">
            <path id="path3" fill="#fff7f5" stroke="none" visibility="hidden" d="M 137 15.5 C 137 24.059999 130.059998 31 121.5 31 L 15.5 31 C 6.94 31 0 24.059999 0 15.5 C 0 6.940001 6.94 0 15.5 0 L 121.5 0 C 130.059998 0 137 6.940001 137 15.5 Z"/>
            <text id="text3" visibility="hidden" xml:space="preserve" x="68.5" y="20" text-anchor="middle" font-family="Roboto" font-size="16" fill="#d85a40">Opened</text>
        </g>
        <g id="Underwriting">
            <path id="path4" fill="#f2effa" stroke="none" visibility="hidden" d="M 137 15.5 C 137 24.059999 130.059998 31 121.5 31 L 15.5 31 C 6.94 31 0 24.059999 0 15.5 C 0 6.940001 6.94 0 15.5 0 L 121.5 0 C 130.059998 0 137 6.940001 137 15.5 Z"/>
            <text id="text4" visibility="hidden" xml:space="preserve" x="68.5" y="20" text-anchor="middle" font-family="Roboto" font-size="16" fill="#6a2db8">Underwriting</text>
        </g>
        <g id="Approved">
            <path id="path5" fill="#fff8e6" stroke="none" visibility="hidden" d="M 137 15.5 C 137 24.059999 130.059998 31 121.5 31 L 15.5 31 C 6.94 31 0 24.059999 0 15.5 C 0 6.940001 6.94 0 15.5 0 L 121.5 0 C 130.059998 0 137 6.940001 137 15.5 Z"/>
            <text id="text5" visibility="hidden" xml:space="preserve" x="68.5" y="20" text-anchor="middle" font-family="Roboto" font-size="16" fill="#967300">Approved</text>
        </g>
        <g id="Contracting">
            <path id="path6" fill="#f2f0ff" stroke="none" visibility="hidden" d="M 137 15.5 C 137 24.059999 130.059998 31 121.5 31 L 15.5 31 C 6.94 31 0 24.059999 0 15.5 C 0 6.940001 6.94 0 15.5 0 L 121.5 0 C 130.059998 0 137 6.940001 137 15.5 Z"/>
            <text id="text6" visibility="hidden" xml:space="preserve" x="68.5" y="20" text-anchor="middle" font-family="Roboto" font-size="16" fill="#8a66a8">Contracting</text>
        </g>
        <g id="Contract-Sent">
            <path id="path7" fill="#f6f6f6" stroke="none" visibility="hidden" d="M 137 15.5 C 137 24.059999 130.059998 31 121.5 31 L 15.5 31 C 6.94 31 0 24.059999 0 15.5 C 0 6.940001 6.94 0 15.5 0 L 121.5 0 C 130.059998 0 137 6.940001 137 15.5 Z"/>
            <text id="text7" visibility="hidden" xml:space="preserve" x="68.5" y="20" text-anchor="middle" font-family="Roboto" font-size="16" fill="#78787b">Contract Sent</text>
        </g>
        <g id="Accounting">
            <path id="path8" fill="#4b4b4f" stroke="none" visibility="hidden" d="M 137 15.5 C 137 24.059999 130.059998 31 121.5 31 L 15.5 31 C 6.94 31 0 24.059999 0 15.5 C 0 6.940001 6.94 0 15.5 0 L 121.5 0 C 130.059998 0 137 6.940001 137 15.5 Z"/>
            <text id="text8" visibility="hidden" xml:space="preserve" x="68.5" y="20" text-anchor="middle" font-family="Roboto" font-size="16" fill="#f0f0f3">Contract Sent</text>
        </g>
        <g id="Converted">
            <path id="path9" fill="#e6fff6" stroke="none" visibility="hidden" d="M 137 15.5 C 137 24.059999 130.059998 31 121.5 31 L 15.5 31 C 6.94 31 0 24.059999 0 15.5 C 0 6.940001 6.94 0 15.5 0 L 121.5 0 C 130.059998 0 137 6.940001 137 15.5 Z"/>
            <text id="text9" visibility="hidden" xml:space="preserve" x="68.5" y="20" text-anchor="middle" font-family="Roboto" font-size="16" fill="#1a8c67">Converted</text>
        </g>
        <g id="Rejected">
            <path id="path10" fill="#ffe6e6" stroke="none" visibility="hidden" d="M 137 15.5 C 137 24.059999 130.059998 31 121.5 31 L 15.5 31 C 6.94 31 0 24.059999 0 15.5 C 0 6.940001 6.94 0 15.5 0 L 121.5 0 C 130.059998 0 137 6.940001 137 15.5 Z"/>
            <text id="text10" visibility="hidden" xml:space="preserve" x="68.5" y="20" text-anchor="middle" font-family="Roboto" font-size="16" fill="#be1816">Rejected</text>
        </g>
        <g id="Expired">
            <path id="path11" fill="#6e6e73" stroke="none" visibility="hidden" d="M 137 15.5 C 137 24.059999 130.059998 31 121.5 31 L 15.5 31 C 6.94 31 0 24.059999 0 15.5 C 0 6.940001 6.94 0 15.5 0 L 121.5 0 C 130.059998 0 137 6.940001 137 15.5 Z"/>
            <text id="text11" visibility="hidden" xml:space="preserve" x="68.5" y="20" text-anchor="middle" font-family="Roboto" font-size="16" fill="#efefef">Expired</text>
        </g>
        <g id="Pending-walk-thru">
            <path id="path12" fill="#fff7f5" stroke="none" d="M 137 15.5 C 137 24.059999 130.059998 31 121.5 31 L 15.5 31 C 6.94 31 0 24.059999 0 15.5 C 0 6.940001 6.94 0 15.5 0 L 121.5 0 C 130.059998 0 137 6.940001 137 15.5 Z"/>
            <text id="text12" xml:space="preserve" x="68" y="21" text-anchor="middle" font-family="Roboto" font-size="16" fill="#e9654a">Pending walk-thru</text>
        </g>
    </g>
</svg>
