<svg width="24" height="24" viewBox="0 0 24 24" fill="none" xmlns="http://www.w3.org/2000/svg">
<g id="Pagination Icon">
<path id="Vector" d="M8 5.25122C7.71396 4.90226 7.7346 4.38019 8.06152 4.05591L8.12891 3.99536C8.45625 3.73109 8.93429 3.73124 9.26172 3.99536L9.3291 4.05591L15.3965 10.0735C15.9286 10.6013 16.2002 11.2995 16.2002 11.9973C16.2002 12.6079 15.9924 13.2184 15.584 13.7151L15.3965 13.9211L9.3291 19.9387C8.98128 20.2834 8.40924 20.2836 8.06152 19.9387L8 19.8713C7.71396 19.5224 7.73461 19.0003 8.06152 18.676L14.1279 12.6584L14.1934 12.5872C14.4948 12.2202 14.4726 11.6781 14.1279 11.3362L8.06152 5.3186L8 5.25122Z" fill="white" stroke="white" stroke-width="0.4"/>
</g>
</svg>
