<svg width="14" height="16" viewBox="0 0 14 16" fill="none" xmlns="http://www.w3.org/2000/svg">
<path d="M8.848 0H5.088C4.256 0 3.576 0.672 3.576 1.504V2.256C3.576 3.088 4.248 3.76 5.08 3.76H8.848C9.68 3.76 10.352 3.088 10.352 2.256V1.504C10.36 0.672 9.68 0 8.848 0Z" fill="white"/>
<path d="M11.16 2.25598C11.16 3.52798 10.12 4.56798 8.848 4.56798H5.088C3.816 4.56798 2.776 3.52798 2.776 2.25598C2.776 1.80798 2.296 1.52798 1.896 1.73598C0.768 2.33598 0 3.52798 0 4.89598V12.424C0 14.392 1.608 16 3.576 16H10.36C12.328 16 13.936 14.392 13.936 12.424V4.89598C13.936 3.52798 13.168 2.33598 12.04 1.73598C11.64 1.52798 11.16 1.80798 11.16 2.25598ZM9.64 8.58398L6.44 11.784C6.32 11.904 6.168 11.96 6.016 11.96C5.864 11.96 5.712 11.904 5.592 11.784L4.392 10.584C4.16 10.352 4.16 9.96798 4.392 9.73598C4.624 9.50398 5.008 9.50398 5.24 9.73598L6.016 10.512L8.792 7.73598C9.024 7.50398 9.408 7.50398 9.64 7.73598C9.872 7.96798 9.872 8.35198 9.64 8.58398Z" fill="white"/>
</svg>
