<svg width="28" height="27" viewBox="0 0 28 27" fill="none" xmlns="http://www.w3.org/2000/svg">
<g id="i">
<g id="Group">
<path id="Vector" d="M14.3401 21.7031V19.9939H11.2636C10.703 19.9939 10.2381 19.529 10.2381 18.9684V17.2592H7.16158C6.60097 17.2592 6.13607 16.7943 6.13607 16.2337V14.5245H0.666687V21.5117C0.666687 24.4378 2.96383 26.8307 5.79423 26.8307H18.4422V22.7286H15.3657C14.805 22.7286 14.3401 22.2637 14.3401 21.7031Z" fill="white"/>
<path id="Vector_2" d="M25.3746 7.9749L17.1706 1.30226C15.311 -0.215498 12.6993 -0.215498 10.8397 1.30226L2.63567 7.9749C1.39138 8.98674 0.666687 10.5182 0.666687 12.159V12.4735H7.16158C7.72219 12.4735 8.18709 12.9384 8.18709 13.499V15.2082H11.2636C11.8242 15.2082 12.2891 15.6731 12.2891 16.2337V17.9429H15.3657C15.9263 17.9429 16.3912 18.4078 16.3912 18.9684V20.6776H19.4677C20.0283 20.6776 20.4932 21.1424 20.4932 21.7031V26.8306H22.2024C25.0328 26.8306 27.3299 24.4378 27.3299 21.5116V12.159C27.3299 10.5182 26.6189 8.98674 25.3746 7.9749Z" fill="white"/>
</g>
</g>
</svg>
