<svg width="16" height="16" viewBox="0 0 16 16" fill="none" xmlns="http://www.w3.org/2000/svg">
<path d="M8.59998 11.216H9.11998C9.63997 11.216 10.072 10.752 10.072 10.192C10.072 9.49601 9.82397 9.36001 9.41598 9.21601L8.60798 8.93601V11.216H8.59998Z" fill="white"/>
<path d="M7.976 1.34265e-05C3.56003 0.0160133 -0.0159464 3.60799 5.34822e-05 8.02396C0.0160534 12.4399 3.60803 16.0159 8.024 15.9999C12.44 15.9839 16.0159 12.3919 15.9999 7.97596C15.9839 3.55999 12.392 -0.00798652 7.976 1.34265e-05ZM9.80798 8.07996C10.432 8.29595 11.272 8.75995 11.272 10.1919C11.272 11.4239 10.304 12.4159 9.11999 12.4159H8.59999V12.8799C8.59999 13.2079 8.328 13.4799 8 13.4799C7.672 13.4799 7.4 13.2079 7.4 12.8799V12.4159H7.112C5.80001 12.4159 4.73602 11.3119 4.73602 9.95194C4.73602 9.62395 5.00802 9.35195 5.33602 9.35195C5.66401 9.35195 5.93601 9.62395 5.93601 9.95194C5.93601 10.6479 6.46401 11.2159 7.112 11.2159H7.4V8.51195L6.19201 8.07996C5.56801 7.86396 4.72802 7.39996 4.72802 5.96797C4.72802 4.73598 5.69601 3.74399 6.88001 3.74399H7.4V3.27999C7.4 2.95199 7.672 2.67999 8 2.67999C8.328 2.67999 8.59999 2.95199 8.59999 3.27999V3.74399H8.88799C10.2 3.74399 11.264 4.84798 11.264 6.20797C11.264 6.53597 10.992 6.80796 10.664 6.80796C10.336 6.80796 10.064 6.53597 10.064 6.20797C10.064 5.51197 9.53599 4.94398 8.88799 4.94398H8.59999V7.64796L9.80798 8.07996Z" fill="white"/>
<path d="M5.936 5.97583C5.936 6.67182 6.184 6.80782 6.592 6.95182L7.39999 7.23182V4.94383H6.88C6.36 4.94383 5.936 5.40783 5.936 5.97583Z" fill="white"/>
</svg>
