<svg width="16" height="16" viewBox="0 0 16 16" fill="none" xmlns="http://www.w3.org/2000/svg">
<path d="M14.5641 0H2.25641C1.00923 0 0 1.00923 0 2.25641V15.3846C0 15.721 0.278974 16 0.615385 16C0.951795 16 1.23077 15.721 1.23077 15.3846V2.25641C1.23077 1.69026 1.69026 1.23077 2.25641 1.23077H4.10256V2.46154H3.89744C3.10974 2.46154 2.46154 3.10974 2.46154 3.89744V8C2.46154 8.78769 3.10974 9.4359 3.89744 9.4359H12.9231C13.7108 9.4359 14.359 8.78769 14.359 8V3.89744C14.359 3.10974 13.7108 2.46154 12.9231 2.46154H12.7179V1.23077H14.5641C14.9005 1.23077 15.1795 0.951795 15.1795 0.615385C15.1795 0.278974 14.9005 0 14.5641 0ZM10.3959 5.63692L7.93436 7.27795C7.82769 7.34359 7.71282 7.38462 7.58974 7.38462C7.43385 7.38462 7.26974 7.32718 7.15487 7.2041L6.33436 6.38359C6.09641 6.14564 6.09641 5.7518 6.33436 5.51385C6.57231 5.2759 6.96615 5.2759 7.2041 5.51385L7.6718 5.97333L9.71487 4.61128C9.99385 4.42256 10.3795 4.49641 10.5682 4.78359C10.7569 5.06256 10.6831 5.4482 10.3959 5.63692ZM11.4872 2.46154H5.33333V1.23077H11.4872V2.46154Z" fill="#2A2B2E"/>
</svg>
