<svg width="23" height="23" viewBox="0 0 23 23" fill="none" xmlns="http://www.w3.org/2000/svg">
<path d="M10.5849 1.14676C10.5849 0.641357 10.9946 0.23165 11.5 0.231649C12.0054 0.231649 12.4151 0.641356 12.4151 1.14676L12.4151 10.5849L21.8532 10.5849C22.3586 10.5849 22.7683 10.9946 22.7683 11.5C22.7683 12.0054 22.3586 12.4151 21.8532 12.4151L12.4151 12.4151L12.4151 21.8532C12.4151 22.3586 12.0054 22.7683 11.5 22.7683C10.9946 22.7683 10.5849 22.3586 10.5849 21.8532L10.5849 12.4151L1.14674 12.4151C0.641344 12.4151 0.231637 12.0054 0.231637 11.5C0.231637 10.9946 0.641344 10.5849 1.14674 10.5849L10.5849 10.5849L10.5849 1.14676Z" fill="#2A2B2E"/>
<path d="M10.4749 1.04123C10.5277 0.521459 10.9663 0.115635 11.5 0.115634L11.6052 0.121322C12.0904 0.170515 12.4758 0.556056 12.5251 1.04123L12.5308 1.14644V10.4692H21.8535L21.9588 10.4749C22.4439 10.5242 22.8295 10.9096 22.8787 11.3948L22.8844 11.5C22.8843 12.0337 22.4785 12.4722 21.9588 12.5251L21.8535 12.5308H12.5308V21.8536C12.5306 22.3873 12.125 22.826 11.6052 22.8787L11.5 22.8844C10.9307 22.8844 10.4694 22.4228 10.4692 21.8536V12.5308H1.14643C0.577209 12.5306 0.115621 12.0693 0.115621 11.5L0.121308 11.3948C0.174011 10.875 0.612732 10.4694 1.14643 10.4692H10.4692V1.14644L10.4749 1.04123Z" stroke="#2A2B2E" stroke-width="0.225"/>
</svg>
