<svg width="17" height="9" viewBox="0 0 17 9" fill="none" xmlns="http://www.w3.org/2000/svg">
<path d="M15.3264 0.404756C15.6795 0.115305 16.2078 0.136201 16.5359 0.467012L16.5972 0.535196C16.8646 0.866434 16.8645 1.35017 16.5972 1.68149L16.5359 1.74968L10.4467 7.88929C9.9126 8.42777 9.20612 8.70257 8.5 8.70257C7.88219 8.70257 7.26437 8.49226 6.76178 8.07902L6.55327 7.88929L0.464055 1.74968C0.115282 1.39771 0.115119 0.818871 0.464055 0.467012L0.53224 0.404756C0.885357 0.115312 1.41365 0.136203 1.74178 0.467012L7.831 6.60564L7.90313 6.67184C8.27451 6.97688 8.82302 6.95444 9.169 6.60564L15.2582 0.467012L15.3264 0.404756Z" fill="#2A2B2E" stroke="#2A2B2E" stroke-width="0.4"/>
</svg>
