<svg width="18" height="18" viewBox="0 0 18 18" fill="none" xmlns="http://www.w3.org/2000/svg">
<path d="M0.9 10.8V11.7C0.9 13.419 1.863 14.913 3.285 15.669L2.7 18H4.5L4.95 16.2H13.05L13.5 18H15.3L14.715 15.669C15.4357 15.2867 16.0386 14.7151 16.4588 14.0158C16.8791 13.3165 17.1007 12.5159 17.1 11.7V10.8H18V9H1.8V2.7C1.8 2.46131 1.89482 2.23239 2.0636 2.0636C2.23239 1.89482 2.46131 1.8 2.7 1.8C3.15 1.8 3.492 2.106 3.6 2.511C3.033 2.997 2.7 3.717 2.7 4.5H8.1C8.1 3.78392 7.81554 3.09716 7.30919 2.59081C6.80284 2.08446 6.11609 1.8 5.4 1.8H5.247C4.878 0.756 3.879 0 2.7 0C1.98392 0 1.29716 0.284464 0.790812 0.790812C0.284464 1.29716 0 1.98392 0 2.7V10.8H0.9Z" fill="#2A2B2E"/>
</svg>
