<svg width="16" height="16" viewBox="0 0 16 16" fill="none" xmlns="http://www.w3.org/2000/svg">
<path d="M0 16V14.2222H1.77778V0H10.6667V0.888889H14.2222V14.2222H16V16H12.4444V2.66667H10.6667V16H0ZM7.11111 8.88889C7.36296 8.88889 7.57422 8.80356 7.74489 8.63289C7.91556 8.46222 8.00059 8.25126 8 8C8 7.74815 7.91467 7.53689 7.744 7.36622C7.57333 7.19556 7.36237 7.11052 7.11111 7.11111C6.85926 7.11111 6.648 7.19644 6.47733 7.36711C6.30667 7.53778 6.22163 7.74874 6.22222 8C6.22222 8.25185 6.30756 8.46311 6.47822 8.63378C6.64889 8.80444 6.85985 8.88948 7.11111 8.88889Z" fill="#2A2B2E"/>
</svg>
