<svg width="4" height="11" viewBox="0 0 4 11" fill="none" xmlns="http://www.w3.org/2000/svg">
<path d="M1.62931 2.5862H3.99999V0.64655C3.99999 0.293103 3.70689 0 3.35344 0H0C0.0689653 0.206896 0.120689 0.422413 0.120689 0.64655V10.1293C0.120689 10.3534 0.077586 10.5689 0 10.7758H3.35344C3.70689 10.7758 3.99999 10.4827 3.99999 10.1293V6.4655H1.62931C1.27586 6.4655 0.982756 6.1724 0.982756 5.81895C0.982756 5.4655 1.27586 5.1724 1.62931 5.1724H3.99999V3.8793H1.62931C1.27586 3.8793 0.982756 3.5862 0.982756 3.23275C0.982756 2.8793 1.27586 2.5862 1.62931 2.5862Z" fill="#2A2B2E"/>
</svg>
