<svg width="40" height="40" viewBox="0 0 40 40" fill="none" xmlns="http://www.w3.org/2000/svg">
  <path d="M14.1667 31.6667H13.3333C6.66667 31.6667 3.33333 30 3.33333 21.6667V13.3334C3.33333 6.66669 6.66667 3.33335 13.3333 3.33335H26.6667C33.3333 3.33335 36.6667 6.66669 36.6667 13.3334V21.6667C36.6667 28.3334 33.3333 31.6667 26.6667 31.6667H25.8333C25.3167 31.6667 24.8167 31.9167 24.5 32.3334L21.8333 36.3334C20.8333 37.8334 19.1667 37.8334 18.1667 36.3334L15.5 32.3334C15.2167 31.9334 14.6167 31.6667 14.1667 31.6667Z" stroke="#4285F4" stroke-width="2" stroke-linecap="round" stroke-linejoin="round"/>
  <path d="M11.6667 13.3334H28.3333" stroke="#4285F4" stroke-width="2" stroke-linecap="round" stroke-linejoin="round"/>
  <path d="M11.6667 21.6667H21.6667" stroke="#4285F4" stroke-width="2" stroke-linecap="round" stroke-linejoin="round"/>
</svg>