<svg width="12" height="12" viewBox="0 0 12 12" fill="none" xmlns="http://www.w3.org/2000/svg">
<path d="M11.6312 5.99626C11.6312 7.37327 11.6312 8.75592 11.6312 10.1361C11.6312 11.0324 11.0119 11.7484 10.0758 11.9512C9.9209 11.9828 9.76266 11.9986 9.60398 11.9982C7.08179 12.0007 4.55983 12.0007 2.0381 11.9982C0.877371 11.9982 0.00068278 11.1926 0 10.1298C0 7.37577 0 4.62175 0 1.86773C0 0.803672 0.878737 0.000625914 2.03878 0C4.55505 0 7.07132 0 9.5876 0C10.7552 0 11.6271 0.790528 11.6312 1.86022C11.6353 3.2341 11.6312 4.61612 11.6312 5.99626Z" fill="#2A2B2E"/>
</svg>
