<svg width="17" height="17" viewBox="0 0 17 17" fill="none" xmlns="http://www.w3.org/2000/svg">
<path d="M15.1993 0.501583C15.558 0.142844 16.1397 0.142844 16.4984 0.501583C16.8572 0.860321 16.8572 1.44195 16.4984 1.80069L9.7991 8.5L16.4984 15.1993C16.8572 15.558 16.8572 16.1397 16.4984 16.4984C16.1397 16.8572 15.558 16.8572 15.1993 16.4984L8.49999 9.79911L1.80069 16.4984C1.44195 16.8572 0.860317 16.8572 0.501577 16.4984C0.142838 16.1397 0.142838 15.558 0.501577 15.1993L7.20089 8.5L0.501577 1.80069C0.142839 1.44195 0.142839 0.860321 0.501577 0.501583C0.860316 0.142844 1.44195 0.142844 1.80069 0.501583L8.49999 7.20089L15.1993 0.501583Z" fill="#2A2B2E"/>
<path d="M15.1961 0.348588C15.6026 0.0171799 16.2019 0.0403926 16.5808 0.419233L16.6514 0.497952C16.9609 0.877284 16.9608 1.42446 16.6514 1.80387L16.5808 1.88259L9.96335 8.5L16.5808 15.1174L16.6514 15.1961C16.9608 15.5755 16.9609 16.1227 16.6514 16.502L16.5808 16.5808C16.2019 16.9596 15.6026 16.9828 15.1961 16.6514L15.1174 16.5808L8.49999 9.96336L1.88259 16.5808C1.50365 16.9595 0.904338 16.983 0.497946 16.6514L0.419227 16.5808C0.0151613 16.1767 0.0153108 15.5216 0.419227 15.1174L7.03664 8.5L0.419227 1.88259C0.0153102 1.47843 0.0151608 0.8233 0.419227 0.419233L0.497946 0.348588C0.904338 0.0170152 1.50365 0.0405236 1.88259 0.419233L8.49999 7.03664L15.1174 0.419233L15.1961 0.348588Z" stroke="#2A2B2E" stroke-width="0.225"/>
</svg>
