<svg width="24" height="24" viewBox="0 0 24 24" fill="none" xmlns="http://www.w3.org/2000/svg">
  <path d="M3 22H21" stroke="#2A2B2E" stroke-width="1.5" stroke-linecap="round" stroke-linejoin="round"/>
  <path d="M5.59998 8.38H4.37C3.61 8.38 3 8.99 3 9.75V16.63H7V9.75C7 8.99 6.38998 8.38 5.62998 8.38H5.59998Z" stroke="#2A2B2E" stroke-width="1.5" stroke-linecap="round" stroke-linejoin="round"/>
  <path d="M12.2 5.19H10.9C10.14 5.19 9.53003 5.8 9.53003 6.56V16.63H13.53V6.56C13.53 5.8 12.92 5.19 12.16 5.19H12.2Z" stroke="#2A2B2E" stroke-width="1.5" stroke-linecap="round" stroke-linejoin="round"/>
  <path d="M18.8 10.56H17.5C16.74 10.56 16.13 11.17 16.13 11.93V16.63H20.13V11.93C20.13 11.17 19.52 10.56 18.76 10.56H18.8Z" stroke="#2A2B2E" stroke-width="1.5" stroke-linecap="round" stroke-linejoin="round"/>
</svg>
