<svg width="16" height="16" viewBox="0 0 16 16" fill="none" xmlns="http://www.w3.org/2000/svg">
<path d="M12.2413 15.9998C11.783 15.986 11.1994 15.8577 10.6302 15.6642C9.40521 15.2472 8.29812 14.6062 7.25121 13.8593C5.4942 12.6062 3.93116 11.1019 2.61222 9.3948C1.6606 8.16647 0.844383 6.85612 0.342242 5.37422C0.0870976 4.61919 -0.0809098 3.8485 0.0400803 3.04276C0.100954 2.58486 0.313724 2.16055 0.644405 1.83759C1.09953 1.39308 1.55465 0.947952 1.99473 0.489048C2.65735 -0.203379 3.68734 -0.121365 4.30482 0.489048C5.01238 1.18982 5.71721 1.89331 6.41933 2.59951C7.01362 3.1974 7.07694 4.04446 6.57919 4.66552C6.42194 4.86203 6.21221 5.01006 5.97424 5.0925C5.52037 5.25402 5.17683 5.53637 4.99064 5.98964C4.88507 6.24136 4.8631 6.52026 4.92796 6.78537C5.10286 7.521 5.4815 8.15144 5.95167 8.73055C6.63623 9.57323 7.4374 10.2788 8.41786 10.764C8.73569 10.9211 9.06669 11.0658 9.42966 11.0526C10.1192 11.0282 10.6389 10.7089 10.8646 10.0447C11.1969 9.07113 12.4945 8.69987 13.2988 9.47744C14.1031 10.255 14.8855 11.032 15.6459 11.8402C16.1042 12.3279 16.1067 13.1481 15.7168 13.6977C15.6325 13.8164 15.5388 13.928 15.4365 14.0314C15.0334 14.4396 14.6122 14.8303 14.2235 15.2516C13.7264 15.7951 13.1032 16.0079 12.2413 15.9998Z" fill="#2A2B2E"/>
</svg>
