<svg width="19" height="18" viewBox="0 0 19 18" fill="none" xmlns="http://www.w3.org/2000/svg">
<path d="M9.50002 6.01062H11.8902C12.2782 6.01062 12.4888 6.22179 12.4888 6.60401C12.4888 8.20283 12.4888 9.8014 12.4888 11.3997C12.4888 11.7721 12.274 11.9847 11.8993 11.9847C10.3003 11.9847 8.70119 11.9847 7.10213 11.9847C6.72678 11.9847 6.5127 11.7735 6.5127 11.3997C6.5127 9.79577 6.5127 8.19156 6.5127 6.58712C6.5127 6.22531 6.72889 6.01132 7.09298 6.01062H9.50002Z" fill="#2A2B2E"/>
<path d="M2.65014 3.97148C2.3762 4.24671 2.13113 4.49026 1.89028 4.73663C1.71634 4.91401 1.51845 5.00412 1.27408 4.9105C1.02972 4.81688 0.946619 4.61837 0.921971 4.37271C0.824788 3.45763 0.719858 2.54888 0.61845 1.63662C0.580422 1.29452 0.536055 0.951715 0.505069 0.608911C0.469858 0.229505 0.73676 -0.0365725 1.11704 0.00425421C2.00648 0.0999858 2.89521 0.204867 3.78394 0.304822C4.15014 0.345649 4.51563 0.387179 4.88253 0.420967C5.12127 0.443492 5.31563 0.529369 5.40929 0.764475C5.50296 0.99958 5.42408 1.20794 5.24662 1.38251C5.00014 1.62395 4.75366 1.8675 4.45014 2.16807C4.51459 2.19271 4.57546 2.22586 4.63112 2.26662C5.20953 2.8396 5.78559 3.41469 6.35929 3.9919C6.67056 4.30443 6.67127 4.57544 6.35929 4.88445C6.02502 5.22045 5.68958 5.55575 5.35296 5.89034C5.08394 6.15712 4.78958 6.15571 4.52268 5.88682C3.93817 5.30398 3.3546 4.72021 2.77197 4.13549C2.72775 4.0836 2.68705 4.0288 2.65014 3.97148Z" fill="#2A2B2E"/>
<path d="M2.63736 14.0064L3.65003 12.9865C3.94792 12.688 4.2444 12.3882 4.5451 12.0925C4.80003 11.8426 5.0951 11.8447 5.35003 12.0974C5.69933 12.4433 6.04721 12.7908 6.39369 13.1399C6.6613 13.4095 6.66341 13.6988 6.39369 13.9705C5.81294 14.5562 5.22914 15.1397 4.64228 15.7212C4.58925 15.7657 4.53273 15.806 4.47327 15.8415C4.74721 16.1146 4.98524 16.3561 5.2282 16.5919C5.41059 16.7679 5.50989 16.9678 5.41552 17.2205C5.32116 17.4732 5.11341 17.5506 4.8613 17.5767C4.05919 17.6597 3.25778 17.754 2.45637 17.8434C2.00848 17.8941 1.562 17.949 1.11341 17.992C0.734539 18.0286 0.466933 17.7604 0.507778 17.381C0.602848 16.4919 0.707778 15.6036 0.807778 14.7153C0.848623 14.3492 0.890172 13.9832 0.924679 13.6172C0.947214 13.3708 1.03876 13.1737 1.28243 13.0829C1.52609 12.9921 1.71552 13.0794 1.88454 13.2504C2.12679 13.4996 2.37468 13.7467 2.63736 14.0064Z" fill="#2A2B2E"/>
<path d="M16.3424 3.96439C16.3098 4.0246 16.2716 4.08163 16.2283 4.13474C15.6551 4.71195 15.08 5.28774 14.503 5.86213C14.1981 6.16552 13.9227 6.16552 13.622 5.86565C13.2868 5.53059 12.9502 5.19623 12.6157 4.85977C12.3403 4.58313 12.341 4.29664 12.6157 4.01508C13.1945 3.43458 13.7744 2.85503 14.3551 2.27642C14.4009 2.23137 14.453 2.19266 14.5171 2.13564C14.2424 1.86252 13.9847 1.60982 13.7312 1.35289C13.5312 1.14946 13.4953 0.9221 13.6185 0.697553C13.6631 0.617932 13.7273 0.550925 13.8048 0.502793C13.8824 0.454661 13.971 0.426977 14.0622 0.422327C15.0558 0.312517 16.0502 0.206225 17.0438 0.0971193C17.3058 0.0684937 17.5671 0.0370527 17.8276 0.00279578C18.2671 -0.0556286 18.5431 0.230159 18.491 0.672214C18.3819 1.59504 18.2798 2.51856 18.1805 3.4428C18.1438 3.77363 18.11 4.10518 18.0706 4.43601C18.0431 4.66267 17.9298 4.83231 17.7093 4.91045C17.4889 4.98858 17.2967 4.91749 17.1354 4.757C16.8854 4.51274 16.634 4.25652 16.3424 3.96439Z" fill="#2A2B2E"/>
<path d="M14.5121 15.8703C13.8748 15.2367 13.2558 14.6201 12.6438 13.9986C12.548 13.9059 12.4755 13.7918 12.4325 13.6656C12.3776 13.4756 12.4473 13.301 12.5938 13.1574C12.9459 12.8125 13.2896 12.4626 13.6382 12.1156C13.9163 11.8383 14.2015 11.8341 14.4832 12.1107C15.0691 12.6926 15.6529 13.2764 16.2346 13.862C16.2762 13.9028 16.3107 13.9507 16.3642 14.0134L17.1269 13.2412C17.2677 13.1004 17.4255 13.0138 17.6297 13.056C17.8882 13.1088 18.0417 13.275 18.0734 13.5544C18.1727 14.4371 18.2663 15.3205 18.3635 16.2039C18.4036 16.5699 18.4403 16.936 18.491 17.3006C18.5544 17.7617 18.272 18.0397 17.8107 17.9834C17.0036 17.8848 16.1952 17.8004 15.3874 17.711C14.9403 17.6617 14.4924 17.616 14.0452 17.5625C13.9422 17.556 13.8434 17.5191 13.7614 17.4564C13.6794 17.3937 13.6179 17.3082 13.5846 17.2105C13.5051 16.9867 13.5734 16.7966 13.736 16.6354C13.9889 16.3841 14.2438 16.1342 14.5121 15.8703Z" fill="#2A2B2E"/>
</svg>
