<svg width="15" height="5" viewBox="0 0 15 5" fill="none" xmlns="http://www.w3.org/2000/svg">
<path d="M14.4681 3.05908C13.2306 2.9361 11.9931 2.84387 10.748 2.77469V2.76701L10.5789 1.76781C10.4636 1.06069 10.2945 0 8.49595 0H6.48218C4.69129 0 4.52219 1.01457 4.39922 1.76012L4.23781 2.74395C3.523 2.79007 2.80819 2.83618 2.09338 2.90536L0.525405 3.05908C0.202588 3.08983 -0.0279963 3.37421 0.00274819 3.68934C0.0334927 4.00448 0.310194 4.23506 0.633011 4.20432L2.20098 4.05059C6.22854 3.65091 10.2868 3.80464 14.3605 4.212H14.422C14.714 4.212 14.9677 3.9891 14.9984 3.68934C15.0215 3.37421 14.7909 3.08983 14.4681 3.05908Z" fill="#2A2B2E"/>
</svg>
