<svg width="24" height="24" viewBox="0 0 24 24" fill="none" xmlns="http://www.w3.org/2000/svg">
<path d="M19.0018 6.96049C17.8042 6.84147 16.6066 6.75221 15.4016 6.68526V6.67783L15.2379 5.71083C15.1264 5.0265 14.9627 4 13.2221 4H11.2733C9.54009 4 9.37644 4.98187 9.25743 5.70339L9.10122 6.65551C8.40945 6.70014 7.71768 6.74477 7.02591 6.81172L5.50847 6.96049C5.19606 6.99024 4.97291 7.26546 5.00266 7.57043C5.03241 7.87541 5.3002 8.09856 5.61261 8.06881L7.13004 7.92004C11.0278 7.53324 14.9553 7.68201 18.8976 8.07625H18.9571C19.2398 8.07625 19.4853 7.86053 19.515 7.57043C19.5373 7.26546 19.3142 6.99024 19.0018 6.96049Z" fill="#2A2B2E"/>
<path d="M17.6331 9.12506C17.4546 8.9391 17.2091 8.83496 16.9562 8.83496H7.55407C7.30117 8.83496 7.04826 8.9391 6.87718 9.12506C6.70609 9.31102 6.60939 9.56392 6.62427 9.82427L7.08545 17.4561C7.16727 18.5867 7.27141 20 9.86742 20H14.6428C17.2388 20 17.3431 18.5941 17.4248 17.4561L17.886 9.83171C17.9009 9.56392 17.8042 9.31102 17.6331 9.12506ZM13.4899 16.2734H11.0129C10.708 16.2734 10.4551 16.0205 10.4551 15.7155C10.4551 15.4105 10.708 15.1576 11.0129 15.1576H13.4899C13.7949 15.1576 14.0478 15.4105 14.0478 15.7155C14.0478 16.0205 13.7949 16.2734 13.4899 16.2734ZM14.1147 13.298H10.3955C10.0906 13.298 9.83766 13.0451 9.83766 12.7401C9.83766 12.4351 10.0906 12.1822 10.3955 12.1822H14.1147C14.4197 12.1822 14.6726 12.4351 14.6726 12.7401C14.6726 13.0451 14.4197 13.298 14.1147 13.298Z" fill="#2A2B2E"/>
</svg>
