<svg width="24" height="24" viewBox="0 0 24 24" fill="none" xmlns="http://www.w3.org/2000/svg">
<path d="M11.7924 18.4889C13.7479 18.4889 15.7035 18.4889 17.7479 18.4889C18.2813 18.4889 18.6368 18.8444 18.5479 19.3778C18.459 19.7333 18.1924 20 17.7479 20H17.659C13.7479 20 9.83685 20 5.92575 20C5.39242 20 4.94797 19.5556 5.12575 19.0222C5.12575 18.8444 5.21464 18.7556 5.39242 18.6667C5.48131 18.5778 5.65908 18.4889 5.83686 18.4889C6.10353 18.4889 6.37019 18.4889 6.63686 18.4889H11.7924Z" fill="#2A2B2E"/>
<path d="M17.8368 5.42222C17.7479 5.33333 17.659 5.24444 17.5701 5.15555C17.4812 5.06666 17.3923 4.97778 17.3035 4.88889C17.0368 4.62222 16.6812 4.35555 16.3257 4.26667C15.9701 4.17778 15.6146 4 15.259 4C14.9035 4 14.459 4.08889 14.1035 4.17778C13.7479 4.35555 13.3924 4.53333 13.1257 4.8C10.8146 7.19999 8.50348 9.5111 6.19237 11.8222C5.92571 12.0889 5.74793 12.4444 5.65904 12.8C5.48126 13.6 5.30348 14.4 5.12571 15.1111V15.2C5.03682 15.5555 4.94793 15.9111 5.03682 16.3555C5.12571 16.8 5.39237 17.0666 5.74793 17.3333C6.10348 17.5111 6.54793 17.6 6.90348 17.5111C7.79237 17.3333 8.68125 17.1555 9.57014 16.9777C10.0146 16.8889 10.3701 16.7111 10.7257 16.4444C13.0368 14.1333 15.3479 11.8222 17.659 9.5111C18.1923 8.97776 18.459 8.26665 18.5479 7.64443C18.6368 6.66666 18.3701 6.04444 17.8368 5.42222Z" fill="#2A2B2E"/>
</svg>
