<svg width="16" height="9" viewBox="0 0 16 9" fill="none" xmlns="http://www.w3.org/2000/svg">
<path d="M0.00124853 0.413752C0.00127357 0.338857 0.0215734 0.26537 0.059979 0.201128C0.0983846 0.136885 0.153459 0.0842948 0.219332 0.0489596C0.285206 0.0136244 0.359409 -0.00313039 0.434033 0.000481713C0.508658 0.00409382 0.580905 0.0279365 0.643076 0.0694695L6.57153 4.03027C7.50987 4.65738 8.48825 4.65738 9.43222 4.03027C11.0912 2.92218 14.0576 0.941147 15.3588 0.073232C15.4209 0.0316436 15.4931 0.00775585 15.5677 0.00412172C15.6424 0.00048758 15.7165 0.0172442 15.7824 0.0525996C15.8482 0.087955 15.9033 0.140581 15.9416 0.204854C15.9799 0.269127 16.0001 0.342633 16 0.417515V6.73498C16 7.7233 15.2837 8.28143 14.2484 8.28143C10.1873 8.28143 5.8709 8.27516 1.80475 8.27516C0.737536 8.27516 0 7.73961 0 6.73185C0.00125112 4.98724 0.00124853 1.86111 0.00124853 0.413752Z" fill="#2A2B2E"/>
</svg>
