<svg width="8" height="16" viewBox="0 0 8 16" fill="none" xmlns="http://www.w3.org/2000/svg">
<path d="M2.17149 2.15931V13.8378H2.39563C3.89472 13.8378 5.39463 13.8378 6.89372 13.8378C7.06348 13.8334 7.23188 13.8692 7.3852 13.9422C7.53853 14.0152 7.67244 14.1234 7.77604 14.2579C7.87965 14.3925 7.95001 14.5496 7.98141 14.7165C8.01281 14.8834 8.00435 15.0553 7.95672 15.2183C7.82517 15.6861 7.41588 15.993 6.89453 15.9963C5.97607 16.0011 5.05761 15.9963 4.13915 15.9963C3.43671 15.9963 2.73507 15.9963 2.03263 15.9963C0.82913 15.9914 0.00243623 15.1753 0.00243623 13.975C-0.000812076 9.98935 -0.000812076 6.00368 0.00243623 2.01801C0.00243623 0.827506 0.826697 0.00649661 2.01558 0.0032483C3.64406 -0.00108277 5.27173 -0.00108277 6.89859 0.0032483C7.15441 -0.00293763 7.40404 0.0823856 7.60254 0.243867C7.80105 0.405349 7.9354 0.632383 7.98142 0.884106C8.02744 1.13583 7.9821 1.39571 7.85356 1.61698C7.72502 1.83825 7.52172 2.00637 7.28026 2.09109C7.13266 2.13758 6.97861 2.16033 6.82388 2.1585C5.35158 2.16337 3.87929 2.1585 2.407 2.1585L2.17149 2.15931Z" fill="#2A2B2E"/>
</svg>
