<svg width="17" height="5" viewBox="0 0 17 5" fill="none" xmlns="http://www.w3.org/2000/svg">
<path d="M16.6823 2.3927C16.6572 2.25028 16.5824 2.1214 16.471 2.02909C16.3597 1.93678 16.2192 1.88704 16.0746 1.88877C15.4192 1.88877 14.7639 1.88877 14.1085 1.88877H13.2289L13.2025 1.79533C13.0465 1.28058 12.7305 0.828964 12.3003 0.506102C11.8701 0.18324 11.3482 0.00595332 10.8104 0H10.7988C10.2606 0.000637977 9.73706 0.176034 9.30707 0.499805C8.87708 0.823576 8.56385 1.27821 8.41449 1.79533C8.39064 1.88104 8.37646 1.89135 8.27916 1.89135C6.1526 1.88812 3.9964 1.89135 1.90786 1.89135H0.726654C0.671235 1.89135 0.61388 1.89135 0.555238 1.89522C0.465776 1.9027 0.379096 1.92998 0.301469 1.97507C0.223843 2.02017 0.15721 2.08196 0.106392 2.15596C0.0555735 2.22997 0.0218409 2.31435 0.0076336 2.40299C-0.00657372 2.49163 -0.000900581 2.58233 0.0242434 2.66851C0.0841737 2.87279 0.250432 3.1196 0.700876 3.1196H8.38162C8.74571 4.40391 9.80319 4.93233 10.61 4.9929C10.6744 4.99741 10.7389 4.99999 10.8033 4.99999C11.3596 4.99788 11.8998 4.81254 12.3402 4.47264C12.7806 4.13275 13.0968 3.65722 13.2398 3.1196H13.9306C14.618 3.1196 15.3054 3.1196 15.9928 3.1196C16.1004 3.12095 16.2074 3.10373 16.3092 3.06869C16.4406 3.01743 16.5499 2.92172 16.6181 2.79822C16.6862 2.67472 16.709 2.53123 16.6823 2.3927ZM12.0793 2.50161C12.0772 2.8373 11.9426 3.15859 11.7046 3.39542C11.4667 3.63226 11.1448 3.76544 10.8091 3.76594C10.4719 3.76646 10.1483 3.63299 9.90952 3.39492C9.67072 3.15684 9.53627 2.83365 9.53576 2.49645C9.53525 2.15925 9.66871 1.83566 9.90678 1.59685C10.1449 1.35805 10.468 1.22361 10.8053 1.22309H10.8104C11.1477 1.22648 11.4702 1.36251 11.708 1.60176C11.9458 1.84102 12.0798 2.16427 12.0812 2.50161H12.0793Z" fill="black"/>
</svg>
