<svg width="40" height="40" viewBox="0 0 40 40" fill="none" xmlns="http://www.w3.org/2000/svg">
  <path d="M15 35H25C33.3333 35 36.6667 31.6667 36.6667 23.3333V16.6667C36.6667 8.33333 33.3333 5 25 5H15C6.66667 5 3.33333 8.33333 3.33333 16.6667V23.3333C3.33333 31.6667 6.66667 35 15 35Z" stroke="#4285F4" stroke-width="2" stroke-linecap="round" stroke-linejoin="round"/>
  <path d="M15 16.6666C16.8409 16.6666 18.3333 15.1742 18.3333 13.3333C18.3333 11.4924 16.8409 10 15 10C13.159 10 11.6667 11.4924 11.6667 13.3333C11.6667 15.1742 13.159 16.6666 15 16.6666Z" stroke="#4285F4" stroke-width="2" stroke-linecap="round" stroke-linejoin="round"/>
  <path d="M4.18333 30L12.8 23.9833C14.15 23 16.1167 23.0833 17.35 24.1833L17.9333 24.7C19.2667 25.8833 21.4 25.8833 22.7333 24.7L29.9333 18.3333C31.2667 17.15 33.4 17.15 34.7333 18.3333L36.6667 20" stroke="#4285F4" stroke-width="2" stroke-linecap="round" stroke-linejoin="round"/>
</svg>