<svg width="16" height="17" viewBox="0 0 16 17" fill="none" xmlns="http://www.w3.org/2000/svg">
<path d="M14.8267 4.68718L9.90359 0.683077C8.78769 -0.227692 7.22051 -0.227692 6.10462 0.683077L1.17333 4.68718C0.426667 5.29436 0 6.21333 0 7.19795V12.8103C0 14.5662 1.37846 16.0021 3.07692 16.0021H12.9231C14.6215 16.0021 16 14.5662 16 12.8103V7.19795C16 6.21333 15.5733 5.29436 14.8267 4.68718ZM7.58974 8.20718H8.41026C9.42769 8.20718 10.2564 9.0359 10.2564 10.0533C10.2564 11.0051 9.53436 11.7764 8.61539 11.8749V12.1046C8.61539 12.441 8.33641 12.72 8 12.72C7.66359 12.72 7.38462 12.441 7.38462 12.1046V11.8995H6.35897C6.02256 11.8995 5.74359 11.6205 5.74359 11.2841C5.74359 10.9477 6.02256 10.6687 6.35897 10.6687H8.41026C8.74667 10.6687 9.02564 10.3897 9.02564 10.0533C9.02564 9.71692 8.74667 9.43795 8.41026 9.43795H7.58974C6.57231 9.43795 5.74359 8.60923 5.74359 7.59179C5.74359 6.64 6.46564 5.86872 7.38462 5.77026V5.54051C7.38462 5.2041 7.66359 4.92513 8 4.92513C8.33641 4.92513 8.61539 5.2041 8.61539 5.54051V5.74564H9.64103C9.97744 5.74564 10.2564 6.02462 10.2564 6.36103C10.2564 6.69744 9.97744 6.97641 9.64103 6.97641H7.58974C7.25333 6.97641 6.97436 7.25538 6.97436 7.59179C6.97436 7.92821 7.25333 8.20718 7.58974 8.20718Z" fill="#2A2B2E"/>
</svg>
