<svg width="20" height="16" viewBox="0 0 20 16" fill="none" xmlns="http://www.w3.org/2000/svg">
<path d="M18.6846 7.08103L15.4946 4.46359V3.07692C15.4946 1.37846 13.8146 0 11.7446 0H7.74459C5.89459 0 4.36459 1.10769 4.06459 2.5518C3.91459 2.56821 3.76459 2.58462 3.61459 2.61744C1.92459 2.93744 0.56459 4.04513 0.14459 5.42359C-0.33541 7.03179 0.40459 8.65641 1.99459 9.58359V13.4072C1.99459 13.7928 2.17459 14.1538 2.50459 14.4246L3.50459 15.2451C3.83459 15.5159 4.27459 15.6636 4.74459 15.6636C5.21459 15.6636 5.65459 15.5159 5.98459 15.2451L6.98459 14.4246C7.31459 14.1538 7.49459 13.7928 7.49459 13.4072V9.58359C8.73459 8.85333 9.49459 7.6718 9.49459 6.40821C9.49459 5.21026 8.83459 4.09436 7.69459 3.3559C7.07459 2.95385 6.35459 2.69128 5.58459 2.58462C5.85459 1.81333 6.71459 1.23897 7.73459 1.23897H11.7346C12.9746 1.23897 13.9846 2.06769 13.9846 3.08513V4.47179L10.7946 7.08923C10.2746 7.5159 9.98459 8.08205 9.98459 8.68103V13.7436C9.98459 14.9908 11.2146 16 12.7346 16H16.7346C18.2546 16 19.4846 14.9908 19.4846 13.7436V8.68103C19.4846 8.08205 19.1946 7.50769 18.6746 7.08923L18.6846 7.08103ZM4.76459 6.97436C4.35459 6.97436 4.01459 6.69538 4.01459 6.35897C4.01459 6.02256 4.34459 5.74359 4.75459 5.74359H4.76459C5.17459 5.74359 5.51459 6.02256 5.51459 6.35897C5.51459 6.69538 5.17459 6.97436 4.76459 6.97436ZM15.7446 9.4359H13.7446C13.3346 9.4359 12.9946 9.15692 12.9946 8.82051C12.9946 8.4841 13.3346 8.20513 13.7446 8.20513H15.7446C16.1546 8.20513 16.4946 8.4841 16.4946 8.82051C16.4946 9.15692 16.1546 9.4359 15.7446 9.4359Z" fill="#2A2B2E"/>
</svg>
