<svg width="14" height="18" viewBox="0 0 14 18" fill="none" xmlns="http://www.w3.org/2000/svg">
<path d="M13.0071 6.25675C13.0204 7.12998 12.8818 7.99887 12.5974 8.8246C12.1258 10.2634 11.4155 11.5867 10.6201 12.8664C9.55081 14.5664 8.35053 16.1804 7.03022 17.6938C6.6778 18.1021 6.32584 18.1021 5.97436 17.6938C4.2322 15.6623 2.64208 13.5232 1.39898 11.1433C0.842897 10.0775 0.353683 8.97946 0.131953 7.78986C-0.310099 5.4177 0.361426 3.38975 2.10289 1.72994C3.13129 0.749404 4.37791 0.194023 5.78712 0.0405718C7.43356 -0.134701 8.94695 0.257373 10.2977 1.22735C11.4398 2.03828 12.2858 3.19993 12.7072 4.53571C12.905 5.15233 13.012 5.79359 13.0071 6.25675ZM6.50581 9.7981C7.37659 9.79344 8.20986 9.44311 8.82236 8.82414C9.43486 8.20518 9.77642 7.36827 9.77193 6.49749C9.75574 4.68775 8.27613 3.22011 6.48329 3.237C5.61569 3.24407 4.78615 3.59421 4.17589 4.21093C3.56563 4.82766 3.22424 5.66084 3.22632 6.52846C3.23547 8.33398 4.71156 9.80584 6.50581 9.7981Z" fill="#2A2B2E"/>
</svg>
