<svg width="24" height="24" viewBox="0 0 24 24" fill="none" xmlns="http://www.w3.org/2000/svg">
<path d="M20.9977 13.6057C20.9977 13.0814 20.9977 12.5566 20.9977 12.0312C21.0025 11.8325 20.9462 11.637 20.8366 11.4711C20.7269 11.3052 20.5691 11.1768 20.3843 11.1033C20.2408 11.0442 20.0849 11.0217 19.9306 11.0378C19.7763 11.0538 19.6284 11.108 19.5002 11.1953C19.3634 11.2924 19.2523 11.4214 19.1767 11.5711C19.1011 11.7208 19.0632 11.8867 19.0663 12.0544C19.0663 12.7561 19.0663 13.4572 19.0663 14.1578C19.0663 15.2652 19.0663 16.4104 19.0663 17.5364C19.0663 18.4071 18.4103 19.0652 17.5456 19.0659C14.0138 19.0706 10.3884 19.0706 6.46294 19.0659C6.26151 19.0705 6.06125 19.0342 5.87417 18.9594C5.6871 18.8846 5.51709 18.7728 5.37433 18.6307C5.23157 18.4885 5.11902 18.319 5.04344 18.1323C4.96786 17.9456 4.93081 17.7455 4.93451 17.5441C4.93451 13.8323 4.93451 10.108 4.93451 6.46426C4.93592 6.28939 4.96489 6.11585 5.02037 5.95001C5.22689 5.32596 5.78381 4.93776 6.47454 4.93621H8.50109C9.61493 4.93621 10.7674 4.93621 11.9045 4.93157C12.1244 4.92999 12.3402 4.87251 12.5318 4.76454C12.7086 4.65379 12.8429 4.48673 12.913 4.29031C12.9832 4.0939 12.9851 3.87957 12.9185 3.68192C12.8553 3.48202 12.7287 3.30812 12.5579 3.18648C12.3871 3.06483 12.1814 3.00204 11.9718 3.0076C10.1865 3.0076 8.2822 3.0076 6.35233 3.0076C6.15496 3.00974 5.9583 3.0315 5.76524 3.07256C4.11383 3.41668 3.00232 4.78388 3 6.47508C3 7.76392 3 9.0512 3 10.3369V13.6683C3 14.9448 3 16.2215 3 17.4985C3 19.4936 4.50445 20.9984 6.4962 21H11.9996H17.503C19.4932 21 20.9969 19.4936 21 17.4992C21 16.7399 21 15.9805 21 15.2211V13.6057H20.9977Z" fill="#2A2B2E"/>
<path d="M20.9946 3.94333C20.9953 3.81988 20.9715 3.69751 20.9246 3.58329C20.8778 3.46908 20.8087 3.36528 20.7215 3.27792C20.6342 3.19055 20.5305 3.12134 20.4163 3.07428C20.3022 3.02723 20.1798 3.00326 20.0563 3.00378C18.6919 2.99914 17.2632 2.99836 15.6907 3.00378C15.4497 3.00398 15.2177 3.09555 15.0416 3.26002C14.8655 3.42448 14.7583 3.6496 14.7416 3.88998C14.7244 4.12267 14.7915 4.3538 14.9307 4.54109C15.0699 4.72839 15.2718 4.85932 15.4997 4.90996C15.5978 4.92851 15.6976 4.93654 15.7975 4.93393H15.823C16.4495 4.93393 17.076 4.93393 17.7026 4.93393C15.6033 7.02957 13.5046 9.12599 11.4063 11.2232L11.3754 11.2533C11.322 11.303 11.2726 11.3568 11.2277 11.4142C11.1167 11.5524 11.0477 11.7196 11.0288 11.8958C11.0099 12.072 11.0418 12.25 11.1209 12.4086C11.1945 12.5733 11.3138 12.7134 11.4646 12.8123C11.6154 12.9113 11.7914 12.9649 11.9718 12.967H12.0066C12.3546 12.967 12.5944 12.7721 12.7661 12.6012C14.8468 10.5179 16.9286 8.43595 19.0113 6.35525L19.0639 6.30345V6.45269C19.0639 7.05432 19.0639 7.67605 19.0639 8.28851C19.0623 8.54252 19.1611 8.7869 19.3389 8.96839C19.5166 9.14989 19.7589 9.25378 20.013 9.25745C20.2726 9.26099 20.5229 9.16142 20.7092 8.98061C20.7988 8.89312 20.8701 8.78862 20.9189 8.67323C20.9676 8.55784 20.9928 8.43387 20.993 8.30861C21 6.85713 21 5.38863 20.9946 3.94333Z" fill="#2A2B2E"/>
</svg>
