<svg width="18" height="18" viewBox="0 0 18 18" fill="none" xmlns="http://www.w3.org/2000/svg">
<path d="M17.9977 10.5984C17.9977 10.0741 17.9977 9.54931 17.9977 9.02398C18.0025 8.82519 17.9462 8.6297 17.8366 8.46381C17.7269 8.29791 17.5691 8.16956 17.3843 8.09602C17.2408 8.03696 17.0849 8.01444 16.9306 8.03051C16.7763 8.04657 16.6284 8.1007 16.5002 8.18804C16.3634 8.2851 16.2523 8.4141 16.1767 8.56383C16.1011 8.71355 16.0632 8.87947 16.0663 9.04718C16.0663 9.74882 16.0663 10.4499 16.0663 11.1506C16.0663 12.2579 16.0663 13.4032 16.0663 14.5291C16.0663 15.3998 15.4103 16.0579 14.5456 16.0587C11.0138 16.0633 7.38842 16.0633 3.46294 16.0587C3.26151 16.0632 3.06125 16.027 2.87417 15.9522C2.6871 15.8774 2.51709 15.7655 2.37433 15.6234C2.23157 15.4813 2.11902 15.3117 2.04344 15.125C1.96786 14.9383 1.93081 14.7382 1.93451 14.5368C1.93451 10.825 1.93451 7.10078 1.93451 3.45699C1.93592 3.28213 1.96489 3.10858 2.02037 2.94275C2.22689 2.31869 2.78381 1.9305 3.47454 1.92895H5.50109C6.61493 1.92895 7.76743 1.92895 8.90447 1.92431C9.12436 1.92272 9.34023 1.86524 9.53178 1.75728C9.70856 1.64653 9.84286 1.47947 9.91303 1.28305C9.9832 1.08663 9.98513 0.87231 9.91852 0.674657C9.8553 0.474761 9.72873 0.300859 9.55794 0.179213C9.38715 0.0575661 9.1814 -0.0052191 8.97177 0.000339741C7.18654 0.000339741 5.2822 0.000339741 3.35233 0.000339741C3.15496 0.00247262 2.9583 0.0242319 2.76524 0.0652967C1.11383 0.409415 0.00232048 1.77661 0 3.46782C0 4.75665 0 6.04394 0 7.32968V10.6611C0 11.9375 0 13.2142 0 14.4912C0 16.4863 1.50445 17.9912 3.4962 17.9927H8.99961H14.503C16.4932 17.9927 17.9969 16.4863 18 14.492C18 13.7326 18 12.9732 18 12.2138V10.5984H17.9977Z" fill="#2A2B2E"/>
</svg>
