<svg width="14" height="11" viewBox="0 0 14 11" fill="none" xmlns="http://www.w3.org/2000/svg">
<path d="M6.87339 10.9995C5.17483 10.9995 3.47672 10.9995 1.77902 10.9995C0.902422 10.9995 0.223993 10.465 0.0432501 9.63681C0.0136278 9.48937 -0.000221948 9.3392 0.00193653 9.18882C-0.00064551 6.72814 -0.00064551 4.26768 0.00193653 1.80743C0.00193653 0.733299 0.742982 0 1.81969 0H11.9581C13.0141 0 13.7584 0.739107 13.7584 1.79C13.7584 4.27177 13.7584 6.75375 13.7584 9.23595C13.7584 10.1319 13.1774 10.8304 12.3041 10.9788C12.1757 10.9963 12.0462 11.0029 11.9168 10.9988C10.2367 11.0001 8.55558 11.0003 6.87339 10.9995ZM12.3686 6.58162C12.3757 6.51707 12.3815 6.48866 12.3815 6.45897C12.3815 4.89555 12.3815 3.33255 12.3815 1.76999C12.3815 1.48919 12.2524 1.37752 11.9516 1.37752H1.81259C1.48984 1.37752 1.37881 1.49177 1.37881 1.81582C1.37881 3.88145 1.37881 5.94944 1.37881 8.01981C1.37881 8.07016 1.38397 8.12051 1.38785 8.19475C1.44788 8.13665 1.49048 8.09792 1.53115 8.05725C2.09403 7.49501 2.65111 6.92761 3.22174 6.37505C3.36494 6.23046 3.53572 6.1161 3.72395 6.03874C3.92941 5.95339 4.15573 5.93151 4.37374 5.97592C4.59175 6.02033 4.79148 6.12899 4.94719 6.28791C5.23831 6.56419 5.50555 6.86887 5.79345 7.16645C5.8793 7.0651 5.93482 6.99991 5.9871 6.93471C6.76171 6.00647 7.53503 5.07779 8.30706 4.14869C8.47554 3.946 8.6679 3.77881 8.92482 3.70458C9.44962 3.55288 9.89308 3.69941 10.2417 4.10673C10.8601 4.82195 11.4726 5.5417 12.0878 6.25951C12.1756 6.35956 12.2621 6.45897 12.3686 6.58162Z" fill="#2A2B2E"/>
</svg>
