<svg width="24" height="24" viewBox="0 0 24 24" fill="none" xmlns="http://www.w3.org/2000/svg">
<path d="M17.677 15.1483C17.6305 15.0363 17.5574 14.9384 17.4644 14.8638C17.3715 14.7891 17.2618 14.7402 17.1456 14.7216C16.7569 14.6531 16.5239 14.8987 16.347 15.1475C15.0747 16.9384 13.3865 17.7091 11.3369 17.4391C9.33131 17.1746 7.90038 16.0221 7.08586 14.0218C6.988 13.7654 6.90734 13.5024 6.84446 13.2345C6.83383 13.1952 6.82396 13.1558 6.81333 13.1141C6.90394 13.1943 7.00181 13.2652 7.10559 13.3259C7.26811 13.4199 7.45086 13.47 7.63697 13.4715C7.92316 13.4565 8.1433 13.2637 8.2268 12.9543C8.27276 12.8123 8.27416 12.6589 8.23079 12.516C8.18742 12.3732 8.10151 12.2483 7.9854 12.1592C7.42594 11.7073 6.93403 11.3161 6.48009 10.965C6.3668 10.8827 6.24145 10.82 6.10888 10.7792C5.9821 10.7295 5.84303 10.7246 5.7133 10.7653C5.58357 10.806 5.47044 10.8901 5.39152 11.0043C4.9854 11.5428 4.5565 12.1167 4.14278 12.6874C4.08684 12.7639 4.04603 12.8512 4.02269 12.9441C3.99936 13.037 3.99395 13.1338 4.00679 13.2289C4.01963 13.324 4.05046 13.4155 4.0975 13.4982C4.14455 13.5809 4.20689 13.6532 4.28094 13.7108C4.43041 13.8299 4.61889 13.8835 4.80602 13.8603C4.99316 13.837 5.16409 13.7387 5.28221 13.5864C5.3232 13.536 5.36191 13.4857 5.40291 13.429C5.62195 14.5287 6.09354 15.5574 6.77769 16.4279C7.46184 17.2983 8.33835 17.9848 9.33286 18.429C10.3274 18.8732 11.4105 19.0622 12.4905 18.9797C13.5704 18.8973 14.6152 18.546 15.5363 17.9555C16.3628 17.4341 17.0683 16.7302 17.6026 15.8938C17.6742 15.7859 17.7186 15.6611 17.7316 15.5309C17.7445 15.4006 17.7258 15.2691 17.677 15.1483Z" fill="#2A2B2E"/>
<path d="M19.7144 10.2801C19.5642 10.161 19.3747 10.1079 19.187 10.1325C18.9994 10.1571 18.8286 10.2574 18.7117 10.4116C18.6729 10.4604 18.6357 10.51 18.5963 10.5627C18.3826 9.50359 17.9349 8.5103 17.2884 7.66097C16.6419 6.81163 15.8142 6.12942 14.8704 5.66797C13.9266 5.20652 12.8924 4.97842 11.8492 5.00161C10.806 5.02479 9.78225 5.29863 8.85839 5.80159C7.86651 6.33451 7.02149 7.12008 6.40266 8.08455C6.32987 8.19246 6.28406 8.31743 6.26935 8.44824C6.25464 8.57905 6.2715 8.7116 6.3184 8.83399C6.36346 8.94571 6.43492 9.04386 6.5262 9.1194C6.61748 9.19493 6.72563 9.24541 6.84067 9.26617C7.25742 9.34489 7.5011 9.06858 7.64761 8.85052C8.23916 7.96787 9.06752 7.2847 10.03 6.88569C10.9924 6.48669 12.0466 6.38941 13.0619 6.60592C14.0772 6.82243 15.0088 7.3432 15.7414 8.10366C16.4739 8.86412 16.9751 9.83083 17.1828 10.8839L16.9247 10.6816C16.8415 10.6095 16.7437 10.5578 16.6385 10.5306C16.5333 10.5033 16.4235 10.5011 16.3174 10.5242C16.1828 10.5529 16.059 10.621 15.9605 10.7204C15.862 10.8198 15.7931 10.9464 15.7618 11.0852C15.7305 11.2239 15.7381 11.3691 15.7839 11.5035C15.8296 11.6379 15.9115 11.7559 16.0198 11.8435C16.4973 12.2277 17.0067 12.6355 17.51 13.0244C17.6221 13.1072 17.7461 13.1712 17.8774 13.2141C17.9529 13.2422 18.0325 13.2568 18.1127 13.2574C18.2074 13.2571 18.3008 13.2338 18.3853 13.1893C18.4698 13.1449 18.5431 13.0806 18.5993 13.0016C18.9849 12.4914 19.4343 11.8994 19.8594 11.3027C19.9151 11.2259 19.9555 11.1384 19.9784 11.0452C20.0012 10.9521 20.006 10.8552 19.9925 10.7601C19.9791 10.665 19.9475 10.5736 19.8998 10.4912C19.8521 10.4088 19.7891 10.3371 19.7144 10.2801Z" fill="#2A2B2E"/>
</svg>
