<svg width="14" height="9" viewBox="0 0 14 9" fill="none" xmlns="http://www.w3.org/2000/svg">
<path d="M13.9403 4.49522C13.8929 4.38108 13.8184 4.2813 13.7236 4.20523C13.6289 4.12916 13.5171 4.0793 13.3987 4.06032C13.0025 3.99052 12.765 4.24086 12.5847 4.49441C11.288 6.31983 9.56719 7.10536 7.47813 6.83014C5.43395 6.56054 3.97547 5.38586 3.14527 3.34701C3.04552 3.08575 2.96331 2.81765 2.89922 2.54463C2.88839 2.50451 2.87833 2.46439 2.8675 2.42187C2.95984 2.50361 3.0596 2.57589 3.16538 2.63771C3.33102 2.73359 3.51729 2.78464 3.70699 2.78614C3.99868 2.7709 4.22307 2.57432 4.30818 2.25898C4.35502 2.11427 4.35644 1.95789 4.31224 1.81228C4.26803 1.66668 4.18047 1.53935 4.06213 1.44858C3.49189 0.988012 2.99052 0.589231 2.52783 0.231369C2.41236 0.14755 2.2846 0.0836063 2.14948 0.0420062C2.02026 -0.0086647 1.87851 -0.0136354 1.74628 0.0278652C1.61405 0.0693657 1.49875 0.155013 1.41831 0.271488C1.00437 0.820316 0.567211 1.40525 0.14553 1.98698C0.0885146 2.06497 0.0469188 2.15387 0.0231318 2.24858C-0.000655216 2.34329 -0.00616533 2.44194 0.00691962 2.53887C0.0200046 2.63579 0.0514275 2.72908 0.0993804 2.81338C0.147333 2.89767 0.210872 2.97132 0.286349 3.03007C0.438695 3.15143 0.630801 3.20612 0.821542 3.18242C1.01228 3.15873 1.1865 3.05853 1.30689 2.90329C1.34867 2.85194 1.38813 2.80059 1.42992 2.74282C1.65317 3.86373 2.13385 4.91225 2.83117 5.79944C3.52848 6.68662 4.42187 7.3863 5.43552 7.83909C6.44918 8.29189 7.5532 8.48445 8.65391 8.40043C9.75463 8.31642 10.8196 7.95832 11.7584 7.3565C12.6008 6.82508 13.3199 6.10757 13.8645 5.25507C13.9375 5.14514 13.9827 5.01795 13.9959 4.88518C14.0092 4.75241 13.99 4.61832 13.9403 4.49522Z" fill="#2A2B2E"/>
</svg>
