<svg width="24" height="24" viewBox="0 0 24 24" fill="none" xmlns="http://www.w3.org/2000/svg">
<path d="M9.04912 6.74026C8.96386 6.81517 8.91176 6.85862 8.86282 6.90507C7.7229 7.98626 6.5835 9.06771 5.44463 10.1494C5.19675 10.3854 4.90387 10.4603 4.57626 10.3554C4.42086 10.309 4.28353 10.2197 4.18175 10.099C4.07997 9.97827 4.01834 9.83154 4.00472 9.67748C3.9684 9.41829 4.08366 9.20255 4.27076 9.02127C4.64284 8.66769 5.01491 8.31437 5.38699 7.96129C6.58218 6.82716 7.7771 5.69277 8.97176 4.55814C9.06018 4.47424 9.1399 4.38285 9.22043 4.29296C9.45725 4.02553 9.76908 3.95661 10.1109 4.02702C10.2611 4.05388 10.3992 4.1233 10.507 4.22614C10.6149 4.32897 10.6873 4.4604 10.7148 4.60308C10.7293 4.67009 10.7359 4.73844 10.7345 4.80684C10.7345 9.58159 10.7345 14.3563 10.7345 19.1311C10.7345 19.7169 10.3588 20.039 9.75408 19.9776C9.58875 19.9646 9.43262 19.9 9.31008 19.7938C9.18754 19.6877 9.10549 19.5461 9.07675 19.391C9.05503 19.2673 9.04525 19.1419 9.04754 19.0165C9.04754 15.0093 9.04754 11.0021 9.04754 6.99495L9.04912 6.74026Z" fill="white"/>
<path d="M14.9509 17.2582C15.0417 17.1765 15.0938 17.1308 15.1435 17.0836C16.2739 16.0109 17.4054 14.9387 18.538 13.867C18.939 13.4872 19.4971 13.5127 19.8255 13.9194C19.9383 14.0518 20.0005 14.2164 20.0021 14.3866C20.0036 14.5567 19.9445 14.7224 19.8342 14.8566C19.7727 14.9297 19.706 14.9988 19.6345 15.0633C18.1188 16.5026 16.6029 17.9419 15.0866 19.3811C14.9753 19.4868 14.8711 19.5991 14.7709 19.7137C14.6569 19.8441 14.5022 19.9368 14.3291 19.9784C14.156 20.02 13.9735 20.0084 13.8078 19.9452C13.6437 19.8937 13.5019 19.7926 13.4042 19.6573C13.3065 19.5219 13.2583 19.3599 13.267 19.1961C13.267 14.4089 13.267 9.62137 13.267 4.83363C13.267 4.21638 13.7928 3.85981 14.4077 4.04858C14.5416 4.08474 14.6617 4.15675 14.7535 4.256C14.8454 4.35524 14.9051 4.47751 14.9256 4.60815C14.9468 4.73194 14.9561 4.85732 14.9532 4.9827C14.9532 8.98339 14.9532 12.9846 14.9532 16.9863L14.9509 17.2582Z" fill="#646469"/>
</svg>
