<svg width="16" height="16" viewBox="0 0 16 16" fill="none" xmlns="http://www.w3.org/2000/svg">
<path d="M11.3156 12.6551C9.85888 13.7603 8.03018 14.2567 6.21475 14.0399C4.39931 13.8231 2.73886 12.9101 1.58317 11.493C-0.681033 8.69746 -0.497904 4.72111 2.01254 2.10962C4.42343 -0.396936 8.43356 -0.705472 11.2418 1.37518C14.2874 3.63188 15.1097 8.11595 12.6339 11.3498C12.7133 11.3995 12.7885 11.4554 12.8588 11.517C13.7929 12.4471 14.7257 13.3786 15.6573 14.3117C15.924 14.5784 16.0662 14.8896 15.9693 15.2746C15.9325 15.4323 15.8556 15.5778 15.7459 15.6969C15.6363 15.8161 15.4977 15.9048 15.3436 15.9546C15.1896 16.0043 15.0253 16.0134 14.8667 15.9809C14.7081 15.9484 14.5606 15.8754 14.4385 15.769C14.2607 15.6161 14.0981 15.4391 13.9309 15.272C13.0615 14.4032 12.193 13.5327 11.3156 12.6551ZM12.1886 7.04094C12.1882 6.0234 11.8861 5.02882 11.3206 4.18302C10.755 3.33723 9.95132 2.67821 9.01123 2.28934C8.07113 1.90047 7.03685 1.79923 6.03922 1.99841C5.04158 2.19759 4.12542 2.68825 3.40663 3.40832C2.68784 4.12839 2.19871 5.04552 2.00113 6.04368C1.80354 7.04185 1.90638 8.07621 2.29662 9.01591C2.68687 9.95561 3.34698 10.7584 4.19347 11.3228C5.03996 11.8872 6.03479 12.1878 7.05211 12.1865C7.72761 12.1876 8.39666 12.0552 9.02084 11.7969C9.64503 11.5385 10.212 11.1594 10.6893 10.6813C11.1666 10.2032 11.5447 9.63545 11.802 9.01072C12.0593 8.386 12.1907 7.71659 12.1886 7.04094Z" fill="#2A2B2E"/>
</svg>
