<svg width="17" height="16" viewBox="0 0 17 16" fill="none" xmlns="http://www.w3.org/2000/svg">
<path d="M8.70408 12.9235V11.898H6.85816C6.52179 11.898 6.24285 11.619 6.24285 11.2827V10.2571H4.39694C4.06057 10.2571 3.78163 9.97821 3.78163 9.64184V8.61633H0.5V12.8086C0.5 14.5643 1.87829 16 3.57653 16H11.1653V13.5388H9.31938C8.98302 13.5388 8.70408 13.2598 8.70408 12.9235Z" fill="#2A2B2E"/>
<path d="M15.3248 4.68658L10.4023 0.682989C9.28657 -0.227663 7.71959 -0.227663 6.60383 0.682989L1.68139 4.68658C0.934816 5.29368 0.5 6.21254 0.5 7.19703V7.38572H4.39694C4.7333 7.38572 5.01224 7.66466 5.01224 8.00103V9.02654H6.85816C7.19453 9.02654 7.47347 9.30547 7.47347 9.64184V10.6674H9.31938C9.65575 10.6674 9.93469 10.9463 9.93469 11.2827V12.3082H11.7806C12.117 12.3082 12.3959 12.5871 12.3959 12.9235V16H13.4214C15.1197 16 16.498 14.5643 16.498 12.8086V7.19703C16.498 6.21254 16.0713 5.29368 15.3248 4.68658Z" fill="#2A2B2E"/>
</svg>
