<svg width="7" height="17" viewBox="0 0 7 17" fill="none" xmlns="http://www.w3.org/2000/svg">
<path d="M1.75086 13.7797C1.8452 13.6949 1.89934 13.6474 1.95102 13.5983C3.12576 12.4836 4.3016 11.3694 5.47853 10.2557C5.89527 9.86102 6.47526 9.88748 6.81652 10.3102C6.93367 10.4477 6.99832 10.6188 6.99996 10.7956C7.0016 10.9724 6.94013 11.1446 6.82554 11.284C6.76159 11.36 6.69225 11.4318 6.618 11.4989C5.04293 12.9945 3.46757 14.4902 1.89195 15.9858C1.77628 16.0956 1.668 16.2124 1.56381 16.3315C1.44533 16.467 1.28457 16.5633 1.1047 16.6065C0.92484 16.6497 0.73516 16.6377 0.56299 16.572C0.392427 16.5185 0.245076 16.4134 0.143561 16.2728C0.0420468 16.1322 -0.00802234 15.9638 0.00104654 15.7936C0.00104654 10.8188 0.00104654 5.84371 0.00104654 0.868389C0.00104654 0.226947 0.547401 -0.143592 1.18645 0.0525767C1.32558 0.0901486 1.45033 0.164983 1.54578 0.268118C1.64122 0.371253 1.70331 0.498312 1.7246 0.634075C1.74666 0.762714 1.75627 0.892998 1.75331 1.0233C1.75331 5.18073 1.75331 9.33868 1.75331 13.4971L1.75086 13.7797Z" fill="#646469"/>
</svg>
