<svg width="7" height="16" viewBox="0 0 7 16" fill="none" xmlns="http://www.w3.org/2000/svg">
<path d="M5.05619 2.74181C4.97084 2.8168 4.91869 2.86029 4.8697 2.90678C3.72862 3.98908 2.58807 5.07162 1.44804 6.15441C1.19991 6.39062 0.906741 6.4656 0.578799 6.36062C0.423239 6.31414 0.285768 6.22479 0.183887 6.10394C0.0820053 5.9831 0.0203163 5.83622 0.0066756 5.682C-0.0296745 5.42255 0.0857021 5.20659 0.272984 5.02513C0.645442 4.6712 1.0179 4.31751 1.39035 3.96408C2.58675 2.8288 3.78288 1.69326 4.97875 0.55748C5.06725 0.473496 5.14706 0.382016 5.22766 0.292033C5.46473 0.0243339 5.77687 -0.0446566 6.11903 0.0258299C6.26941 0.0527108 6.40766 0.122203 6.51558 0.225143C6.6235 0.328084 6.69601 0.45964 6.72355 0.60247C6.7381 0.66955 6.74472 0.737961 6.74331 0.806433C6.74331 5.58602 6.74331 10.3656 6.74331 15.1452C6.74331 15.7316 6.36716 16.054 5.76185 15.9925C5.59636 15.9795 5.44007 15.9148 5.31741 15.8086C5.19474 15.7024 5.11261 15.5606 5.08384 15.4054C5.0621 15.2815 5.05231 15.156 5.0546 15.0305C5.0546 11.0192 5.0546 7.008 5.0546 2.99676L5.05619 2.74181Z" fill="#646469"/>
</svg>
