<svg width="16" height="12" viewBox="0 0 16 12" fill="none" xmlns="http://www.w3.org/2000/svg">
<path d="M5.88229 9.64745C5.95513 9.55581 6.00103 9.48728 6.05712 9.42875C9.68353 5.59309 10.6867 4.22393 14.3145 0.387502C14.6008 0.084099 14.9192 -0.0814642 15.3286 0.040205C15.4748 0.0843131 15.6086 0.165862 15.7179 0.277633C15.8273 0.389404 15.9088 0.52795 15.9554 0.681002C16.0021 0.834054 16.0122 0.99689 15.9851 1.1551C15.958 1.3133 15.8944 1.462 15.7999 1.58802C15.7505 1.65269 15.6977 1.71439 15.6418 1.77284C11.7619 5.87571 10.5045 7.51439 6.62389 11.6157C6.23925 12.0231 5.81381 12.1101 5.41023 11.8598C5.31758 11.7994 5.23242 11.7269 5.15671 11.6442C3.54967 9.94546 1.94166 8.24569 0.332673 6.54489C-0.183824 5.99814 -0.0854766 5.1996 0.534466 4.89465C0.685059 4.81455 0.854138 4.78149 1.02187 4.79936C1.18961 4.81722 1.34905 4.88527 1.4815 4.99553C1.55942 5.05751 1.6325 5.12601 1.70004 5.20037L5.72639 9.45648C5.76864 9.50653 5.81016 9.56197 5.88229 9.64745Z" fill="#2A2B2E"/>
</svg>
