<svg width="17" height="15" viewBox="0 0 17 15" fill="none" xmlns="http://www.w3.org/2000/svg">
<path d="M3.03401 4.13031C3.13954 4.13031 3.24507 4.13031 3.3506 4.13031C5.98887 4.13031 8.73267 4.13031 11.3709 4.13031C14.2203 4.13031 16.5419 6.24092 16.8585 8.98472C17.1751 12.0451 14.8535 14.7889 11.7931 15C10.9488 15 10.1046 15 9.36585 15C8.94373 15 8.62714 14.7889 8.52161 14.3668C8.41608 13.9447 8.62714 13.6281 8.94373 13.417C9.15479 13.3115 9.36585 13.3115 9.57691 13.3115C10.4212 13.3115 11.2654 13.3115 12.1097 13.206C13.7981 12.9949 15.0645 11.5175 15.2756 9.82897C15.4866 7.50729 13.6926 5.71327 11.4765 5.71327C8.8382 5.71327 6.19993 5.71327 3.45613 5.71327C3.3506 5.71327 3.24507 5.71327 3.03401 5.71327C3.45613 6.13539 3.77272 6.55752 4.19485 6.87411C4.7225 7.40176 5.25015 7.92942 5.77781 8.35154C6.0944 8.66813 6.19993 8.98472 5.98887 9.30131C5.77781 9.82897 5.14462 10.04 4.61697 9.61791C4.40591 9.40685 4.19485 9.19578 3.87826 8.98472C2.71742 7.92942 1.55658 6.76858 0.39574 5.60774C-0.131913 5.08008 -0.131913 4.76349 0.39574 4.23584C1.66211 2.96947 3.03401 1.59757 4.40591 0.331202C4.82803 -0.0909213 5.25015 -0.0909212 5.67228 0.225671C5.98887 0.542263 5.98887 1.06992 5.67228 1.49204C4.82803 2.23075 3.98379 3.075 3.13954 3.81372C3.13954 3.91925 3.03401 3.91925 2.92848 4.02478C2.92848 4.02478 2.92848 4.13031 3.03401 4.13031Z" fill="#2A2B2E"/>
</svg>
