<svg width="18" height="16" viewBox="0 0 18 16" fill="none" xmlns="http://www.w3.org/2000/svg">
<path d="M14.531 0H3.45976C1.54997 0 0 1.54997 0 3.45976V14.4941C0 14.937 0.249103 15.3429 0.655049 15.5366C0.811891 15.6105 0.987186 15.6566 1.15325 15.6566C1.41158 15.6566 1.66069 15.5736 1.87289 15.3983L4.98206 12.9165C5.3511 12.6212 5.8124 12.4644 6.28293 12.4644H14.5402C16.45 12.4644 18 10.9144 18 9.00461V3.45976C18 1.54997 16.45 0 14.5402 0H14.531ZM12.4552 8.07278C12.4552 8.95848 11.7263 9.68734 10.8406 9.68734H7.15018C6.26448 9.68734 5.53562 8.95848 5.53562 8.07278V5.80318C5.53562 5.25884 5.80318 4.76064 6.25525 4.45618L8.10046 3.22911C8.6448 2.8693 9.34598 2.86007 9.89031 3.22911L11.7355 4.45618C12.1876 4.76064 12.4552 5.25884 12.4552 5.80318V8.07278Z" fill="#2A2B2E"/>
</svg>
