<svg width="24" height="24" viewBox="0 0 24 24" fill="none" xmlns="http://www.w3.org/2000/svg">
<rect x="-304" y="-208" width="711" height="296" rx="5" fill="white"/>
<path d="M6.875 8.91384C6.975 8.91384 7.075 8.91384 7.175 8.91384C9.675 8.91384 12.275 8.91384 14.775 8.91384C17.475 8.91384 19.675 10.9138 19.975 13.5138C20.275 16.4138 18.075 19.0138 15.175 19.2138C14.375 19.2138 13.575 19.2138 12.875 19.2138C12.475 19.2138 12.175 19.0138 12.075 18.6138C11.975 18.2138 12.175 17.9138 12.475 17.7138C12.675 17.6138 12.875 17.6138 13.075 17.6138C13.875 17.6138 14.675 17.6138 15.475 17.5138C17.075 17.3138 18.275 15.9138 18.475 14.3138C18.675 12.1138 16.975 10.4138 14.875 10.4138C12.375 10.4138 9.875 10.4138 7.275 10.4138C7.175 10.4138 7.075 10.4138 6.875 10.4138C7.275 10.8138 7.575 11.2138 7.975 11.5138C8.475 12.0138 8.975 12.5138 9.475 12.9138C9.775 13.2138 9.875 13.5138 9.675 13.8138C9.475 14.3138 8.875 14.5138 8.375 14.1138C8.175 13.9138 7.975 13.7138 7.675 13.5138C6.575 12.5138 5.475 11.4138 4.375 10.3138C3.875 9.81384 3.875 9.51384 4.375 9.01384C5.575 7.81384 6.875 6.51384 8.175 5.31384C8.575 4.91384 8.975 4.91384 9.375 5.21384C9.675 5.51384 9.675 6.01384 9.375 6.41384C8.575 7.11384 7.775 7.91384 6.975 8.61384C6.975 8.71384 6.875 8.71384 6.775 8.81384C6.775 8.81384 6.775 8.91384 6.875 8.91384Z" fill="#2A2B2E"/>
</svg>
