<svg width="16" height="9" viewBox="0 0 16 9" fill="none" xmlns="http://www.w3.org/2000/svg">
<path d="M1.30304 2.5806C1.017 2.08003 0.72595 1.60521 0.467799 1.11751C0.413123 1.01759 0.381871 0.906561 0.376403 0.792798C0.370935 0.679035 0.391393 0.565516 0.436234 0.46082C0.481074 0.356123 0.549123 0.262986 0.635239 0.188447C0.721355 0.113908 0.823286 0.0599175 0.93333 0.0305521C1.29088 -0.0731376 1.65201 0.0913357 1.8365 0.459613C2.12387 1.04247 2.47989 1.58887 2.897 2.08718C3.91459 3.28569 5.16458 4.1195 6.71635 4.43987C8.61852 4.83317 10.3433 4.39339 11.8915 3.24493C12.8712 2.51839 13.6078 1.58304 14.1498 0.494652C14.2814 0.231495 14.4695 0.0498605 14.7684 0.0133903C14.9047 -0.00893753 15.0445 0.00829936 15.1712 0.0630577C15.298 0.117816 15.4064 0.207794 15.4835 0.322312C15.5695 0.431054 15.6214 0.562804 15.6328 0.700988C15.6441 0.839172 15.6143 0.977619 15.5471 1.09891C15.3276 1.50724 15.0859 1.90412 14.8513 2.30386C14.8034 2.38538 14.7448 2.46047 14.6804 2.55414L15.5529 3.42442C15.6372 3.5088 15.7238 3.59104 15.8039 3.679C15.9345 3.8235 16.0047 4.01268 15.9998 4.20743C15.9949 4.40218 15.9153 4.58761 15.7776 4.72536C15.6398 4.86311 15.4544 4.94266 15.2596 4.94756C15.0649 4.95245 14.8757 4.88231 14.7312 4.75165C14.403 4.43987 14.0876 4.11378 13.768 3.79341C13.7465 3.77268 13.7243 3.75337 13.705 3.73549L12.2534 4.89181C12.445 5.27367 12.6546 5.6727 12.8433 6.08102C12.9131 6.2243 12.9498 6.38146 12.9506 6.54083C12.944 6.70633 12.8817 6.86474 12.7737 6.99029C12.6656 7.11584 12.5183 7.20115 12.3556 7.23234C12.1939 7.26754 12.025 7.24835 11.8753 7.17775C11.7256 7.10715 11.6033 6.98909 11.5276 6.84189C11.3359 6.47933 11.1564 6.10963 10.9719 5.74278C10.9426 5.68486 10.9119 5.62765 10.9004 5.60333L8.7644 6.12107V6.28912C8.7644 6.74178 8.76941 7.19443 8.7644 7.64781C8.75836 7.84435 8.67604 8.03081 8.53488 8.1677C8.39372 8.30458 8.20481 8.38113 8.00818 8.38113C7.81155 8.38113 7.62265 8.30458 7.48149 8.1677C7.34033 8.03081 7.25801 7.84435 7.25196 7.64781C7.24481 7.18871 7.25196 6.73033 7.25196 6.27124V6.12178L5.11381 5.60119C4.92288 5.98091 4.71764 6.39638 4.50526 6.80828C4.32362 7.16083 3.96393 7.32172 3.60995 7.21946C3.5016 7.18986 3.40121 7.13649 3.31607 7.06322C3.23094 6.98995 3.16321 6.89863 3.1178 6.79589C3.07239 6.69316 3.05045 6.5816 3.05357 6.46932C3.05669 6.35704 3.0848 6.24687 3.13584 6.14681C3.31462 5.77067 3.50698 5.40096 3.69291 5.0284L3.76012 4.89109L2.30489 3.73263C1.99668 4.04155 1.68419 4.37622 1.34594 4.68372C1.2075 4.81074 1.03848 4.89969 0.855384 4.94187C0.69828 4.96954 0.536431 4.9439 0.395581 4.869C0.254732 4.79411 0.14297 4.67426 0.0780697 4.52854C0.0071157 4.38583 -0.016308 4.22416 0.0112276 4.06718C0.0387631 3.9102 0.115811 3.76616 0.2311 3.65612C0.583645 3.28998 0.949776 2.93172 1.30304 2.5806Z" fill="#2A2B2E"/>
</svg>
