<svg width="12" height="9" viewBox="0 0 12 9" fill="none" xmlns="http://www.w3.org/2000/svg">
<path d="M6.51209 8.99803C5.25783 8.99803 4.0043 9.00244 2.75004 8.99803C1.40388 8.99215 0.329005 8.1224 0.0584489 6.82329C0.0202688 6.63158 0.00179256 6.43647 0.00330843 6.241C-0.00110281 4.52307 -0.00110281 2.80514 0.00330843 1.08721C0.00330843 0.42552 0.414295 0.00498307 1.07598 0.00424786C3.67567 0.00424786 6.27536 -0.00530983 8.87505 0.00424786C10.3947 0.0108647 11.5659 1.16219 11.585 2.6826C11.6078 4.4368 11.5953 6.19175 11.5894 7.94595C11.5894 8.58411 11.1483 8.99508 10.4962 8.99656C9.16741 8.9995 7.83939 8.99999 6.51209 8.99803Z" fill="#2A2B2E"/>
</svg>
