<svg width="16" height="9" viewBox="0 0 16 9" fill="none" xmlns="http://www.w3.org/2000/svg">
<path d="M7.58681 8.43784C6.79546 8.43784 5.65754 8.15114 4.56153 7.67788C3.14148 7.0644 1.88783 6.19802 0.752415 5.15573C0.549103 4.96793 0.353299 4.77387 0.162499 4.5748C-0.0526986 4.35007 -0.0545764 4.08965 0.15937 3.8668C1.19989 2.77531 2.40941 1.85878 3.74141 1.15246C4.66609 0.651246 5.66442 0.300073 6.69912 0.112053C7.936 -0.10056 9.20595 -0.00969593 10.4 0.37685C12.5026 1.04354 14.2579 2.26173 15.795 3.81985C16.0683 4.09654 16.0683 4.34256 15.795 4.61862C14.4306 6.0121 12.8717 7.12262 11.05 7.83814C10.0772 8.22 9.05503 8.43784 7.58681 8.43784ZM11.2821 4.21235C11.2815 3.56259 11.0882 2.92762 10.7267 2.38783C10.3653 1.84804 9.85195 1.4277 9.25165 1.18003C8.65135 0.932351 7.99112 0.868474 7.35452 0.996484C6.71793 1.12449 6.1336 1.43863 5.67552 1.89914C5.21743 2.35964 4.90619 2.94579 4.78118 3.5834C4.65618 4.22101 4.72304 4.88139 4.97329 5.48095C5.22355 6.08052 5.64595 6.5923 6.18702 6.95151C6.7281 7.31072 7.36351 7.5012 8.01283 7.49885C8.88139 7.49388 9.71271 7.14522 10.3252 6.52898C10.9378 5.91275 11.2818 5.07901 11.2821 4.20985V4.21235Z" fill="#2A2B2E"/>
</svg>
