<svg width="18" height="18" viewBox="0 0 18 18" fill="none" xmlns="http://www.w3.org/2000/svg">
<path d="M8.98642 17.2503C6.90686 17.2503 4.8273 17.2503 2.74844 17.2503C2.00528 17.2503 1.36206 17.0203 0.81525 16.5023C0.0108705 15.7392 -0.249514 14.4151 0.26633 13.4285C1.25861 11.5312 2.27411 9.64683 3.28258 7.75743C4.40247 5.65953 5.52377 3.56235 6.64647 1.46588C7.19258 0.450606 8.04059 -0.0602539 9.17995 0.00566367C10.1194 0.0601173 10.845 0.528703 11.2954 1.367C13.4123 5.30916 15.5219 9.25252 17.6242 13.1971C18.0865 14.0612 18.14 14.936 17.6854 15.8101C17.2308 16.6842 16.4982 17.1643 15.5228 17.2431C15.406 17.2524 15.2884 17.2517 15.1709 17.2517L8.98642 17.2503ZM7.94558 8.14004V8.98049C7.94558 9.58306 7.93925 10.1849 7.94558 10.7875C7.95614 11.5627 8.64933 12.0672 9.35307 11.8185C9.78799 11.6645 10.0568 11.2661 10.0568 10.7502C10.0568 9.00341 10.0568 7.2566 10.0568 5.50978C10.0565 5.42646 10.0494 5.3433 10.0357 5.26116C9.98958 4.9879 9.8401 4.74393 9.61934 4.58159C9.39857 4.41924 9.12411 4.35146 8.85482 4.39277C8.32349 4.46442 7.95333 4.91008 7.95051 5.4933C7.94136 6.37459 7.94558 7.25732 7.94558 8.14004ZM9.00754 15.1015C9.28567 15.0987 9.55147 14.9842 9.74716 14.7829C9.94284 14.5817 10.0526 14.31 10.0526 14.0268C10.0621 13.8794 10.0416 13.7316 9.99245 13.5926C9.94331 13.4536 9.86656 13.3264 9.76698 13.219C9.66741 13.1116 9.54715 13.0262 9.41372 12.9682C9.28029 12.9102 9.13655 12.8808 8.99147 12.8819C8.84639 12.883 8.70308 12.9145 8.57051 12.9745C8.43793 13.0345 8.31892 13.1217 8.22091 13.2306C8.12289 13.3395 8.04799 13.4678 8.00086 13.6075C7.95373 13.7472 7.93539 13.8953 7.94699 14.0425C7.95125 14.3256 8.06502 14.5955 8.26359 14.7936C8.46216 14.9918 8.7295 15.1021 9.00754 15.1008V15.1015Z" fill="#2A2B2E"/>
</svg>
