<svg width="554" height="310" viewBox="0 0 554 310" fill="none" xmlns="http://www.w3.org/2000/svg">
<g clip-path="url(#clip0_1649_6152)">
<rect width="554" height="310" rx="24" fill="#208061"/>
<g filter="url(#filter0_d_1649_6152)">
<rect x="76" y="72" width="402" height="166" rx="14" fill="white" shape-rendering="crispEdges"/>
<rect x="100" y="96" width="72" height="72" rx="6" fill="#B58300"/>
<g clip-path="url(#clip1_1649_6152)">
<path d="M135.011 116.002C140.956 116.002 146.902 116.005 152.85 116.01C153.312 116.003 153.773 116.072 154.215 116.215C155.322 116.606 155.994 117.659 155.996 118.912C155.996 121.791 155.996 124.671 155.996 127.549C155.996 133.994 155.996 140.438 155.996 146.88C155.996 148.823 154.863 149.998 152.969 149.998C140.995 149.998 129.019 149.998 117.042 149.998C115.123 149.998 113.996 148.824 113.996 146.858C113.996 137.619 113.996 128.38 113.996 119.142C113.996 117.154 115.126 116.004 117.085 116.002H135.011ZM116.38 140.055C116.567 139.915 116.678 139.835 116.785 139.751C118.972 138.052 121.16 136.352 123.347 134.65C124.75 133.556 126.27 133.476 127.762 134.445L134.097 138.537C134.606 138.864 134.927 138.818 135.323 138.369C135.572 138.09 135.82 137.811 136.067 137.53C138.488 134.795 140.907 132.059 143.327 129.322C143.819 128.772 144.388 128.405 145.131 128.363C146.053 128.309 146.772 128.698 147.326 129.435C149.317 132.046 151.308 134.657 153.299 137.268C153.383 137.377 153.475 137.48 153.627 137.659V119.179C153.627 118.508 153.555 118.436 152.899 118.436H117.098C116.442 118.436 116.378 118.51 116.378 119.187V140.055H116.38ZM145.298 130.733C145.144 130.901 145.041 131.012 144.942 131.124L137.186 139.889C135.884 141.361 134.361 141.566 132.721 140.514C130.631 139.166 128.54 137.819 126.447 136.473C125.855 136.093 125.383 136.116 124.825 136.55C122.106 138.664 119.387 140.777 116.668 142.889C116.568 142.957 116.488 143.05 116.436 143.161C116.385 143.271 116.363 143.393 116.375 143.515C116.388 144.606 116.375 145.696 116.375 146.785C116.375 147.511 116.429 147.566 117.147 147.566H152.859C153.563 147.566 153.621 147.506 153.621 146.773C153.621 145.194 153.621 143.614 153.611 142.036C153.603 141.794 153.525 141.56 153.386 141.365C151.026 138.235 148.653 135.111 146.268 131.995C145.958 131.592 145.648 131.189 145.297 130.733H145.298Z" fill="white"/>
<path d="M131.554 132.441C130.723 132.442 129.91 132.191 129.218 131.719C128.526 131.248 127.987 130.577 127.668 129.792C127.35 129.007 127.266 128.143 127.428 127.31C127.59 126.476 127.99 125.71 128.578 125.109C129.166 124.508 129.915 124.099 130.731 123.934C131.546 123.769 132.391 123.855 133.159 124.181C133.926 124.507 134.582 125.059 135.043 125.766C135.504 126.473 135.749 127.305 135.747 128.155C135.748 128.718 135.64 129.276 135.429 129.796C135.219 130.316 134.91 130.789 134.52 131.187C134.131 131.585 133.668 131.901 133.159 132.116C132.65 132.331 132.105 132.441 131.554 132.441ZM131.575 126.286C131.214 126.28 130.86 126.384 130.557 126.585C130.254 126.786 130.016 127.074 129.873 127.413C129.73 127.752 129.69 128.127 129.755 128.49C129.821 128.853 129.991 129.188 130.244 129.452C130.496 129.716 130.819 129.897 131.172 129.973C131.526 130.049 131.893 130.016 132.228 129.878C132.563 129.74 132.85 129.504 133.054 129.199C133.257 128.894 133.367 128.534 133.37 128.165C133.374 127.921 133.33 127.679 133.242 127.452C133.153 127.226 133.022 127.019 132.855 126.845C132.688 126.671 132.489 126.532 132.269 126.437C132.05 126.342 131.814 126.292 131.575 126.291V126.286Z" fill="white"/>
</g>
<rect x="100" y="174" width="16.5" height="16" rx="2" fill="#FFC733"/>
<rect x="118.5" y="174" width="16.5" height="16" rx="2" fill="#B58300"/>
<rect x="137" y="174" width="16.5" height="16" rx="2" fill="#FFC733"/>
<rect x="155.5" y="174" width="16.5" height="16" rx="2" fill="#FFC733"/>
<rect x="100" y="196" width="72" height="18" rx="4" fill="#FFC733"/>
<rect x="178" y="97" width="72" height="72" rx="6" fill="#FFC733"/>
<rect x="178" y="175" width="72" height="38" rx="6" fill="#FFC733"/>
<rect x="256" y="96" width="72" height="40" rx="6" fill="#FFC733"/>
<rect x="256" y="142" width="72" height="72" rx="6" fill="#B58300"/>
<path d="M292.864 180.6C292.354 180.6 291.926 180.427 291.581 180.082C291.235 179.736 291.063 179.309 291.064 178.8C291.064 178.29 291.237 177.862 291.582 177.517C291.928 177.171 292.355 176.999 292.864 177C293.374 177 293.802 177.173 294.147 177.518C294.493 177.864 294.665 178.291 294.664 178.8C294.664 179.31 294.491 179.738 294.146 180.083C293.8 180.429 293.373 180.601 292.864 180.6ZM285.664 180.6C285.154 180.6 284.726 180.427 284.381 180.082C284.035 179.736 283.863 179.309 283.864 178.8C283.864 178.29 284.037 177.862 284.382 177.517C284.728 177.171 285.155 176.999 285.664 177C286.174 177 286.602 177.173 286.947 177.518C287.293 177.864 287.465 178.291 287.464 178.8C287.464 179.31 287.291 179.738 286.946 180.083C286.6 180.429 286.173 180.601 285.664 180.6ZM300.064 180.6C299.554 180.6 299.126 180.427 298.781 180.082C298.435 179.736 298.263 179.309 298.264 178.8C298.264 178.29 298.437 177.862 298.782 177.517C299.128 177.171 299.555 176.999 300.064 177C300.574 177 301.002 177.173 301.347 177.518C301.693 177.864 301.865 178.291 301.864 178.8C301.864 179.31 301.691 179.738 301.346 180.083C301 180.429 300.573 180.601 300.064 180.6ZM292.864 187.8C292.354 187.8 291.926 187.627 291.581 187.282C291.235 186.936 291.063 186.509 291.064 186C291.064 185.49 291.237 185.062 291.582 184.717C291.928 184.371 292.355 184.199 292.864 184.2C293.374 184.2 293.802 184.373 294.147 184.718C294.493 185.064 294.665 185.491 294.664 186C294.664 186.51 294.491 186.938 294.146 187.283C293.8 187.629 293.373 187.801 292.864 187.8ZM285.664 187.8C285.154 187.8 284.726 187.627 284.381 187.282C284.035 186.936 283.863 186.509 283.864 186C283.864 185.49 284.037 185.062 284.382 184.717C284.728 184.371 285.155 184.199 285.664 184.2C286.174 184.2 286.602 184.373 286.947 184.718C287.293 185.064 287.465 185.491 287.464 186C287.464 186.51 287.291 186.938 286.946 187.283C286.6 187.629 286.173 187.801 285.664 187.8ZM300.064 187.8C299.554 187.8 299.126 187.627 298.781 187.282C298.435 186.936 298.263 186.509 298.264 186C298.264 185.49 298.437 185.062 298.782 184.717C299.128 184.371 299.555 184.199 300.064 184.2C300.574 184.2 301.002 184.373 301.347 184.718C301.693 185.064 301.865 185.491 301.864 186C301.864 186.51 301.691 186.938 301.346 187.283C301 187.629 300.573 187.801 300.064 187.8ZM280.264 195C279.274 195 278.426 194.647 277.721 193.942C277.015 193.236 276.663 192.389 276.664 191.4V166.2C276.664 165.21 277.017 164.362 277.722 163.657C278.428 162.951 279.275 162.599 280.264 162.6H282.064V159H285.664V162.6H300.064V159H303.664V162.6H305.464C306.454 162.6 307.302 162.953 308.007 163.658C308.713 164.364 309.065 165.211 309.064 166.2V191.4C309.064 192.39 308.711 193.238 308.006 193.943C307.3 194.649 306.453 195.001 305.464 195H280.264ZM280.264 191.4H305.464V173.4H280.264V191.4Z" fill="white"/>
<rect x="334" y="96" width="120" height="118" rx="6" fill="#FFE9B0"/>
<rect x="348" y="110" width="50" height="26" rx="4" fill="#FFC733"/>
<rect x="348" y="142" width="92" height="26" rx="4" fill="#FFC733"/>
<rect x="348" y="174" width="92" height="26" rx="4" fill="#FFC733"/>
</g>
<g opacity="0.6" filter="url(#filter1_d_1649_6152)">
<rect x="-352" y="72" width="402" height="166" rx="14" fill="white" shape-rendering="crispEdges"/>
<rect x="-94" y="96" width="120" height="118" rx="6" fill="#FFE9B0"/>
<rect x="-80" y="142" width="92" height="26" rx="4" fill="#FFC733"/>
<rect x="-80" y="174" width="92" height="26" rx="4" fill="#FFC733"/>
</g>
<g opacity="0.6" filter="url(#filter2_d_1649_6152)">
<rect x="504" y="72" width="402" height="166" rx="14" fill="white" shape-rendering="crispEdges"/>
<rect x="528" y="96" width="72" height="72" rx="6" fill="#B58300"/>
<g clip-path="url(#clip2_1649_6152)">
<path d="M563.011 116.002C568.956 116.002 574.902 116.005 580.85 116.01C581.312 116.003 581.773 116.072 582.215 116.215C583.322 116.606 583.994 117.659 583.996 118.912C583.996 121.791 583.996 124.671 583.996 127.549C583.996 133.994 583.996 140.438 583.996 146.88C583.996 148.823 582.863 149.998 580.969 149.998C568.995 149.998 557.019 149.998 545.042 149.998C543.123 149.998 541.996 148.824 541.996 146.858C541.996 137.619 541.996 128.38 541.996 119.142C541.996 117.154 543.126 116.004 545.085 116.002H563.011ZM544.38 140.055C544.567 139.915 544.678 139.835 544.785 139.751C546.972 138.052 549.16 136.352 551.347 134.65C552.75 133.556 554.27 133.476 555.762 134.445L562.097 138.537C562.606 138.864 562.927 138.818 563.323 138.369C563.572 138.09 563.82 137.811 564.067 137.53C566.488 134.795 568.907 132.059 571.327 129.322C571.819 128.772 572.388 128.405 573.131 128.363C574.053 128.309 574.772 128.698 575.326 129.435C577.317 132.046 579.308 134.657 581.299 137.268C581.383 137.377 581.475 137.48 581.627 137.659V119.179C581.627 118.508 581.555 118.436 580.899 118.436H545.098C544.442 118.436 544.378 118.51 544.378 119.187V140.055H544.38ZM573.298 130.733C573.144 130.901 573.041 131.012 572.942 131.124L565.186 139.889C563.884 141.361 562.361 141.566 560.721 140.514C558.631 139.166 556.54 137.819 554.447 136.473C553.855 136.093 553.383 136.116 552.825 136.55C550.106 138.664 547.387 140.777 544.668 142.889C544.568 142.957 544.488 143.05 544.436 143.161C544.385 143.271 544.363 143.393 544.375 143.515C544.388 144.606 544.375 145.696 544.375 146.785C544.375 147.511 544.429 147.566 545.147 147.566H580.859C581.563 147.566 581.621 147.506 581.621 146.773C581.621 145.194 581.621 143.614 581.611 142.036C581.603 141.794 581.525 141.56 581.386 141.365C579.026 138.235 576.653 135.111 574.268 131.995C573.958 131.592 573.648 131.189 573.297 130.733H573.298Z" fill="white"/>
</g>
<rect x="528" y="174" width="16.5" height="16" rx="2" fill="#FFC733"/>
<rect x="546.5" y="174" width="16.5" height="16" rx="2" fill="#B58300"/>
<rect x="528" y="196" width="72" height="18" rx="4" fill="#FFC733"/>
</g>
<g style="mix-blend-mode:hard-light" opacity="0.2">
<path d="M210 -30.5H-108.5V366H-78.5C73.9 338 177.333 90 210 -30.5Z" fill="#19614A"/>
</g>
<g style="mix-blend-mode:hard-light" opacity="0.2">
<path d="M257.999 362.24L573.881 402.998L624.62 9.75762L594.867 5.9186C527 30 526.541 105.972 468 178.5C408.16 252.636 282.171 303.943 257.999 362.24Z" fill="#19614A"/>
</g>
</g>
<defs>
<filter id="filter0_d_1649_6152" x="58" y="54" width="438" height="202" filterUnits="userSpaceOnUse" color-interpolation-filters="sRGB">
<feFlood flood-opacity="0" result="BackgroundImageFix"/>
<feColorMatrix in="SourceAlpha" type="matrix" values="0 0 0 0 0 0 0 0 0 0 0 0 0 0 0 0 0 0 127 0" result="hardAlpha"/>
<feOffset dy="4"/>
<feGaussianBlur stdDeviation="6.25"/>
<feComposite in2="hardAlpha" operator="out"/>
<feColorMatrix type="matrix" values="0 0 0 0 0 0 0 0 0 0 0 0 0 0 0 0 0 0 0.14 0"/>
<feBlend mode="normal" in2="BackgroundImageFix" result="effect1_dropShadow_1649_6152"/>
<feBlend mode="normal" in="SourceGraphic" in2="effect1_dropShadow_1649_6152" result="shape"/>
</filter>
<filter id="filter1_d_1649_6152" x="-370" y="54" width="438" height="202" filterUnits="userSpaceOnUse" color-interpolation-filters="sRGB">
<feFlood flood-opacity="0" result="BackgroundImageFix"/>
<feColorMatrix in="SourceAlpha" type="matrix" values="0 0 0 0 0 0 0 0 0 0 0 0 0 0 0 0 0 0 127 0" result="hardAlpha"/>
<feOffset dy="4"/>
<feGaussianBlur stdDeviation="6.25"/>
<feComposite in2="hardAlpha" operator="out"/>
<feColorMatrix type="matrix" values="0 0 0 0 0 0 0 0 0 0 0 0 0 0 0 0 0 0 0.14 0"/>
<feBlend mode="normal" in2="BackgroundImageFix" result="effect1_dropShadow_1649_6152"/>
<feBlend mode="normal" in="SourceGraphic" in2="effect1_dropShadow_1649_6152" result="shape"/>
</filter>
<filter id="filter2_d_1649_6152" x="486" y="54" width="438" height="202" filterUnits="userSpaceOnUse" color-interpolation-filters="sRGB">
<feFlood flood-opacity="0" result="BackgroundImageFix"/>
<feColorMatrix in="SourceAlpha" type="matrix" values="0 0 0 0 0 0 0 0 0 0 0 0 0 0 0 0 0 0 127 0" result="hardAlpha"/>
<feOffset dy="4"/>
<feGaussianBlur stdDeviation="6.25"/>
<feComposite in2="hardAlpha" operator="out"/>
<feColorMatrix type="matrix" values="0 0 0 0 0 0 0 0 0 0 0 0 0 0 0 0 0 0 0.14 0"/>
<feBlend mode="normal" in2="BackgroundImageFix" result="effect1_dropShadow_1649_6152"/>
<feBlend mode="normal" in="SourceGraphic" in2="effect1_dropShadow_1649_6152" result="shape"/>
</filter>
<clipPath id="clip0_1649_6152">
<rect width="554" height="310" rx="24" fill="white"/>
</clipPath>
<clipPath id="clip1_1649_6152">
<rect width="42" height="34" fill="white" transform="translate(114 116)"/>
</clipPath>
<clipPath id="clip2_1649_6152">
<rect width="42" height="34" fill="white" transform="translate(542 116)"/>
</clipPath>
</defs>
</svg>
