<?xml version="1.0" encoding="UTF-8"?>
<svg data-bbox="5.334 4.368 13.936 16" xmlns="http://www.w3.org/2000/svg" viewBox="0 0 25 25" height="25" width="25" data-type="color">
    <g>
        <path fill="#ffffff" d="M14.181 4.368h-3.76A1.51 1.51 0 0 0 8.91 5.872v.752c0 .832.672 1.504 1.504 1.504h3.768c.832 0 1.504-.672 1.504-1.504v-.752a1.497 1.497 0 0 0-1.504-1.504Z" data-color="1"/>
        <path fill="#ffffff" d="M16.493 6.624a2.318 2.318 0 0 1-2.312 2.312h-3.76A2.318 2.318 0 0 1 8.11 6.624a.597.597 0 0 0-.88-.52 3.577 3.577 0 0 0-1.896 3.16v7.528a3.585 3.585 0 0 0 3.576 3.576h6.784a3.585 3.585 0 0 0 3.576-3.576V9.264c0-1.368-.768-2.56-1.896-3.16a.597.597 0 0 0-.88.52Zm-1.52 6.328-3.2 3.2a.593.593 0 0 1-.424.176.593.593 0 0 1-.424-.176l-1.2-1.2a.604.604 0 0 1 0-.848.604.604 0 0 1 .848 0l.776.776 2.776-2.776a.604.604 0 0 1 .848 0 .604.604 0 0 1 0 .848Z" data-color="1"/>
    </g>
</svg>
