<svg width="697" height="340" viewBox="0 0 697 340" fill="none" xmlns="http://www.w3.org/2000/svg">
<g clip-path="url(#clip0_1188_5254)">
<rect width="697" height="340" rx="24" fill="#3D3D3F"/>
<path d="M103.01 145.5C102.51 114.667 120.31 53 195.51 53C270.71 53 295.51 114 295.51 145.5C295.51 190.5 296.7 280 391.5 280C486.3 280 494.5 188 494.5 145.5C493.833 114.667 516.91 53 592.51 53C668.11 53 694.5 114.667 691.5 145.5" stroke="#F09886" stroke-dasharray="2 2"/>
<rect x="22" y="130" width="186" height="84.6667" rx="8" fill="#F5B9AC"/>
<path d="M50 149.333C50 151.807 49.053 154.18 47.367 155.93C45.6811 157.68 43.3941 158.664 41.0086 158.667C36.0349 158.667 31.9935 154.476 32 149.324C32.0065 144.156 36.0486 140 41.0605 140C45.9795 140.006 50.0014 144.204 50 149.333ZM46.0119 154.22C45.991 154.155 45.9766 154.102 45.9565 154.052C44.7368 150.899 43.5176 147.746 42.2989 144.593C42.2492 144.465 42.1851 144.435 42.0627 144.436C41.3362 144.441 40.6105 144.443 39.8847 144.436C39.7364 144.436 39.6687 144.481 39.614 144.628C38.4658 147.676 37.3138 150.722 36.158 153.767L35.9881 154.215C36.0117 154.221 36.0358 154.226 36.0601 154.228C36.9241 154.228 37.7881 154.228 38.6521 154.233C38.7658 154.233 38.7918 154.171 38.8198 154.084C38.9588 153.654 39.1042 153.226 39.2382 152.795C39.2469 152.748 39.2731 152.705 39.311 152.678C39.349 152.65 39.3959 152.638 39.4419 152.646C40.4614 152.65 41.4812 152.65 42.5012 152.646C42.5445 152.638 42.5888 152.649 42.6244 152.676C42.66 152.702 42.684 152.743 42.6913 152.787C42.8259 153.218 42.9793 153.645 43.1089 154.076C43.1127 154.101 43.1214 154.126 43.1344 154.147C43.1474 154.169 43.1644 154.188 43.1846 154.203C43.2047 154.218 43.2275 154.228 43.2516 154.234C43.2757 154.239 43.3006 154.24 43.3249 154.235C44.1709 154.229 45.0169 154.235 45.8622 154.235C45.9054 154.23 45.9514 154.224 46.0119 154.22Z" fill="white"/>
<path d="M40 150.366L40.9753 147.259H41.0122L42 150.37L40 150.366Z" fill="white"/>
<rect x="32" y="166.667" width="166" height="38" rx="4" fill="#F09886"/>
<g filter="url(#filter0_d_1188_5254)">
<rect x="226" y="130" width="187" height="84.0007" rx="8" fill="#E9664A"/>
<g clip-path="url(#clip1_1188_5254)">
<path d="M244.994 158.001C243.213 157.999 241.474 157.47 239.994 156.48C238.515 155.49 237.362 154.083 236.682 152.438C236.002 150.793 235.826 148.983 236.174 147.237C236.523 145.492 237.382 143.889 238.642 142.631C239.902 141.373 241.506 140.518 243.253 140.172C244.999 139.826 246.809 140.006 248.453 140.689C250.097 141.372 251.501 142.527 252.489 144.009C253.476 145.49 254.002 147.231 254 149.011C253.996 151.397 253.046 153.684 251.357 155.369C249.668 157.055 247.379 158.001 244.994 158.001ZM241.3 153.712C242.872 153.712 244.425 153.728 245.98 153.704C246.563 153.696 247.105 153.483 247.589 153.145C248.861 152.257 249.101 150.497 248.089 149.361C247.866 149.111 247.573 148.922 247.314 148.708L247.431 148.626C248.92 147.556 248.765 145.468 247.134 144.632C246.621 144.37 246.071 144.272 245.499 144.278C244.161 144.281 242.823 144.278 241.486 144.278C241.427 144.278 241.369 144.283 241.302 144.285L241.3 153.712Z" fill="white"/>
<path d="M243.796 151.578V149.865C244.028 149.865 244.254 149.865 244.479 149.865C244.767 149.865 245.055 149.848 245.343 149.878C245.835 149.928 246.131 150.256 246.135 150.714C246.139 151.173 245.852 151.53 245.363 151.567C244.847 151.609 244.326 151.578 243.796 151.578Z" fill="white"/>
<path d="M243.798 146.304C244.278 146.304 244.74 146.291 245.2 146.309C245.661 146.327 245.959 146.633 245.979 147.068C246.001 147.544 245.753 147.887 245.278 147.924C244.791 147.964 244.3 147.933 243.798 147.933V146.304Z" fill="white"/>
</g>
<rect x="260.001" y="141" width="89" height="16" rx="3" fill="white"/>
<rect x="236" y="166.001" width="57" height="38" rx="3" fill="#F5B9AC"/>
<g clip-path="url(#clip2_1188_5254)">
<path d="M264.505 176.002C267.478 176.002 270.451 176.003 273.425 176.006C273.656 176.002 273.887 176.037 274.107 176.108C274.661 176.304 274.997 176.83 274.998 177.457C274.998 178.896 274.998 180.336 274.998 181.775C274.998 184.998 274.998 188.22 274.998 191.441C274.998 192.412 274.431 193 273.485 193C267.497 193 261.51 193 255.521 193C254.562 193 253.998 192.413 253.998 191.43C253.998 186.81 253.998 182.191 253.998 177.572C253.998 176.578 254.563 176.003 255.543 176.002H264.505ZM255.19 188.028C255.283 187.958 255.339 187.918 255.392 187.876C256.486 187.027 257.58 186.177 258.673 185.326C259.375 184.779 260.135 184.739 260.881 185.223L264.049 187.269C264.303 187.433 264.464 187.41 264.661 187.185C264.786 187.046 264.91 186.906 265.034 186.766C266.244 185.398 267.454 184.03 268.663 182.662C268.909 182.387 269.194 182.203 269.566 182.182C270.027 182.155 270.386 182.35 270.663 182.718C271.658 184.024 272.654 185.329 273.65 186.635C273.691 186.689 273.737 186.741 273.814 186.83V177.59C273.814 177.255 273.778 177.219 273.449 177.219H255.549C255.221 177.219 255.189 177.256 255.189 177.594V188.028H255.19ZM269.649 183.367C269.572 183.451 269.52 183.507 269.471 183.563L265.593 187.945C264.942 188.681 264.181 188.784 263.36 188.258C262.315 187.584 261.27 186.91 260.224 186.237C259.928 186.047 259.691 186.059 259.413 186.276C258.053 187.333 256.694 188.389 255.334 189.446C255.284 189.479 255.244 189.526 255.218 189.581C255.192 189.636 255.182 189.697 255.187 189.758C255.194 190.304 255.187 190.849 255.187 191.393C255.187 191.756 255.214 191.784 255.574 191.784H273.43C273.782 191.784 273.81 191.754 273.81 191.387C273.81 190.598 273.81 189.808 273.805 189.019C273.802 188.898 273.763 188.781 273.693 188.683C272.513 187.118 271.327 185.556 270.134 183.998C269.979 183.797 269.824 183.595 269.648 183.367H269.649Z" fill="white"/>
<path d="M262.778 184.221C262.362 184.222 261.956 184.096 261.61 183.861C261.264 183.625 260.995 183.289 260.835 182.897C260.676 182.504 260.634 182.072 260.715 181.656C260.796 181.239 260.996 180.856 261.29 180.555C261.584 180.255 261.959 180.05 262.366 179.968C262.774 179.885 263.196 179.928 263.58 180.091C263.964 180.254 264.292 180.53 264.522 180.884C264.753 181.237 264.875 181.653 264.874 182.078C264.875 182.36 264.821 182.639 264.716 182.899C264.61 183.159 264.456 183.395 264.261 183.594C264.066 183.793 263.835 183.951 263.581 184.059C263.326 184.166 263.053 184.221 262.778 184.221ZM262.789 181.144C262.608 181.141 262.431 181.193 262.279 181.293C262.128 181.394 262.009 181.538 261.938 181.707C261.866 181.877 261.846 182.064 261.879 182.246C261.912 182.427 261.997 182.595 262.123 182.727C262.249 182.859 262.411 182.949 262.587 182.987C262.764 183.025 262.948 183.009 263.115 182.94C263.282 182.871 263.426 182.753 263.528 182.6C263.629 182.448 263.684 182.268 263.686 182.083C263.688 181.961 263.666 181.84 263.622 181.727C263.578 181.614 263.512 181.51 263.428 181.423C263.345 181.336 263.245 181.267 263.136 181.219C263.026 181.172 262.908 181.147 262.789 181.146V181.144Z" fill="white"/>
</g>
<rect x="297" y="166.001" width="106" height="12" rx="3" fill="#F5B9AC"/>
<rect x="297" y="181.001" width="106" height="23" rx="3" fill="#F5B9AC"/>
</g>
<rect x="431" y="130" width="186" height="84" rx="8" fill="#F5B9AC"/>
<path d="M441 148.993C441.001 147.213 441.531 145.473 442.521 143.993C443.511 142.514 444.918 141.362 446.564 140.682C448.209 140.002 450.019 139.826 451.764 140.175C453.51 140.524 455.113 141.383 456.371 142.643C457.628 143.903 458.484 145.508 458.829 147.254C459.174 149 458.994 150.81 458.311 152.454C457.628 154.098 456.472 155.502 454.991 156.489C453.51 157.477 451.769 158.002 449.988 158C447.603 157.996 445.316 157.045 443.631 155.356C441.945 153.667 440.999 151.379 441 148.993ZM454.885 148.064C454.723 147.091 454.337 146.249 453.681 145.535C452.058 143.766 449.274 143.612 447.401 144.774C445.817 145.76 445.08 147.238 445.093 149.083C445.103 150.591 445.669 151.867 446.846 152.833C447.939 153.73 449.217 154.071 450.612 153.932C452.438 153.75 453.756 152.823 454.529 151.149C454.726 150.72 454.854 150.262 454.906 149.792H454.695C453.951 149.792 453.208 149.796 452.463 149.788C452.308 149.788 452.241 149.824 452.19 149.981C451.911 150.862 451.182 151.452 450.318 151.517C449.358 151.589 448.512 151.136 448.095 150.293C447.694 149.484 447.682 148.648 448.042 147.824C448.48 146.816 449.482 146.3 450.562 146.515C451.362 146.675 451.881 147.181 452.2 147.915C452.226 147.974 452.292 148.059 452.344 148.059C453.179 148.064 454.018 148.064 454.885 148.064Z" fill="white"/>
<rect x="441" y="166.001" width="166" height="38" rx="4" fill="#F09886"/>
<rect x="635" y="130" width="186" height="84.047" rx="8" fill="#F5B9AC"/>
<g clip-path="url(#clip3_1188_5254)">
<path d="M645 149.011C645.002 147.226 645.534 145.481 646.528 143.998C647.522 142.515 648.933 141.361 650.583 140.68C652.233 139.999 654.048 139.823 655.799 140.174C657.549 140.525 659.156 141.387 660.416 142.651C661.676 143.916 662.533 145.525 662.879 147.277C663.224 149.028 663.042 150.843 662.356 152.491C661.67 154.139 660.511 155.546 659.025 156.535C657.538 157.524 655.792 158.05 654.007 158.047C651.615 158.041 649.323 157.086 647.634 155.392C645.946 153.698 644.998 151.403 645 149.011ZM649.667 153.757H649.893C651.023 153.757 652.153 153.757 653.284 153.757C653.596 153.761 653.908 153.746 654.219 153.713C655.4 153.569 656.422 153.096 657.226 152.201C657.952 151.391 658.31 150.426 658.374 149.348C658.447 148.057 658.134 146.877 657.269 145.886C656.34 144.823 655.128 144.337 653.742 144.302C652.426 144.269 651.108 144.292 649.792 144.291C649.75 144.293 649.708 144.298 649.667 144.305V153.757Z" fill="white"/>
<path d="M652.295 151.369V146.641C652.891 146.68 653.488 146.655 654.056 146.771C655.14 146.991 655.809 148.018 655.708 149.189C655.615 150.273 655.05 151.013 654.095 151.272C653.892 151.326 653.684 151.357 653.474 151.365C653.085 151.379 652.695 151.369 652.295 151.369Z" fill="white"/>
</g>
<rect x="645" y="166.047" width="166" height="38" rx="4" fill="#F09886"/>
<g clip-path="url(#clip4_1188_5254)">
<path d="M379.443 219.693C379.342 219.853 379.282 219.94 379.231 220.03C378.493 221.306 377.756 222.581 377.02 223.857C376.831 224.185 376.589 224.436 376.189 224.475C375.681 224.523 375.318 224.291 375.105 223.771C374.72 222.822 374.343 221.872 373.963 220.92C371.851 215.634 369.743 210.346 367.639 205.059C367.349 204.334 367.575 203.711 368.232 203.558C368.509 203.509 368.794 203.541 369.054 203.65C372.245 204.909 375.431 206.185 378.618 207.455L387.692 211.073C388.375 211.345 388.681 211.913 388.396 212.469C388.261 212.704 388.066 212.898 387.83 213.031C386.572 213.78 385.3 214.502 384.033 215.234C383.943 215.287 383.855 215.352 383.695 215.447C383.798 215.51 383.895 215.581 383.987 215.659C385.84 217.507 387.691 219.357 389.541 221.208C390.161 221.827 390.159 222.342 389.541 222.968L386.951 225.557C386.354 226.153 385.828 226.156 385.236 225.564C383.378 223.706 381.521 221.848 379.665 219.99C379.584 219.897 379.509 219.798 379.443 219.693Z" fill="white"/>
<path d="M365.775 202.931C365.652 202.863 365.373 202.774 365.181 202.591C364.446 201.887 363.733 201.168 363.023 200.441C362.582 199.991 362.581 199.386 362.995 198.98C363.409 198.574 364 198.593 364.437 199.022C365.17 199.74 365.894 200.465 366.612 201.198C366.766 201.338 366.87 201.523 366.91 201.727C366.95 201.931 366.923 202.142 366.832 202.329C366.666 202.711 366.352 202.904 365.775 202.931Z" fill="white"/>
<path d="M362.553 206.922C362.065 206.922 361.577 206.922 361.089 206.922C360.435 206.91 359.993 206.495 360 205.91C360.007 205.326 360.461 204.918 361.11 204.914C362.116 204.914 363.121 204.906 364.127 204.914C364.369 204.909 364.605 204.991 364.792 205.145C364.978 205.3 365.103 205.516 365.144 205.754C365.182 205.973 365.144 206.198 365.038 206.393C364.931 206.588 364.762 206.741 364.558 206.828C364.383 206.888 364.2 206.918 364.015 206.917C363.53 206.93 363.042 206.922 362.553 206.922Z" fill="white"/>
<path d="M370.92 198.58C370.92 199.068 370.92 199.556 370.92 200.044C370.912 200.724 370.508 201.164 369.907 201.157C369.326 201.151 368.917 200.699 368.914 200.046C368.909 199.051 368.906 198.052 368.914 197.059C368.914 196.506 369.257 196.102 369.757 196.014C369.98 195.976 370.21 196.016 370.407 196.128C370.604 196.24 370.756 196.417 370.838 196.629C370.892 196.795 370.918 196.969 370.916 197.144C370.927 197.622 370.92 198.101 370.92 198.58Z" fill="white"/>
<path d="M376.959 199.382C376.9 199.499 376.83 199.755 376.667 199.925C375.939 200.687 375.189 201.429 374.437 202.166C374.254 202.353 374.004 202.46 373.742 202.464C373.48 202.467 373.227 202.367 373.039 202.185C372.941 202.095 372.863 201.986 372.809 201.865C372.755 201.744 372.726 201.613 372.724 201.481C372.722 201.348 372.747 201.216 372.797 201.094C372.848 200.971 372.923 200.86 373.018 200.768C373.759 200.005 374.512 199.253 375.275 198.512C375.415 198.364 375.599 198.267 375.799 198.235C375.999 198.203 376.204 198.237 376.383 198.333C376.758 198.513 376.943 198.826 376.959 199.382Z" fill="white"/>
<path d="M366.463 209.873C366.399 209.991 366.322 210.258 366.152 210.436C365.43 211.191 364.687 211.925 363.94 212.656C363.847 212.75 363.736 212.824 363.615 212.875C363.493 212.926 363.362 212.953 363.23 212.953C363.098 212.953 362.967 212.926 362.845 212.875C362.723 212.824 362.613 212.75 362.52 212.656C362.427 212.565 362.353 212.456 362.302 212.337C362.252 212.217 362.226 212.088 362.226 211.958C362.226 211.828 362.252 211.699 362.302 211.579C362.353 211.459 362.427 211.351 362.52 211.26C363.262 210.497 364.014 209.745 364.778 209.004C364.916 208.856 365.1 208.758 365.3 208.725C365.501 208.692 365.706 208.726 365.885 208.821C366.262 209.002 366.446 209.316 366.463 209.873Z" fill="white"/>
</g>
</g>
<defs>
<filter id="filter0_d_1188_5254" x="219" y="127" width="201" height="98.0007" filterUnits="userSpaceOnUse" color-interpolation-filters="sRGB">
<feFlood flood-opacity="0" result="BackgroundImageFix"/>
<feColorMatrix in="SourceAlpha" type="matrix" values="0 0 0 0 0 0 0 0 0 0 0 0 0 0 0 0 0 0 127 0" result="hardAlpha"/>
<feOffset dy="4"/>
<feGaussianBlur stdDeviation="3.5"/>
<feComposite in2="hardAlpha" operator="out"/>
<feColorMatrix type="matrix" values="0 0 0 0 0 0 0 0 0 0 0 0 0 0 0 0 0 0 0.25 0"/>
<feBlend mode="normal" in2="BackgroundImageFix" result="effect1_dropShadow_1188_5254"/>
<feBlend mode="normal" in="SourceGraphic" in2="effect1_dropShadow_1188_5254" result="shape"/>
</filter>
<clipPath id="clip0_1188_5254">
<rect width="697" height="340" rx="24" fill="white"/>
</clipPath>
<clipPath id="clip1_1188_5254">
<rect width="18.0007" height="18.0007" fill="white" transform="translate(236 140)"/>
</clipPath>
<clipPath id="clip2_1188_5254">
<rect width="21" height="17" fill="white" transform="translate(254 176.001)"/>
</clipPath>
<clipPath id="clip3_1188_5254">
<rect width="18.0484" height="18.047" fill="white" transform="translate(645 140)"/>
</clipPath>
<clipPath id="clip4_1188_5254">
<rect width="30" height="30" fill="white" transform="translate(360 196)"/>
</clipPath>
</defs>
</svg>
