<svg width="240" height="72" viewBox="0 0 240 72" fill="none" xmlns="http://www.w3.org/2000/svg">
<rect x="19" y="19" width="34" height="34" rx="6" fill="#17619C"/>
<path d="M36 28C31.592 28 28 31.592 28 36C28 40.408 31.592 44 36 44C40.408 44 44 40.408 44 36C44 31.592 40.408 28 36 28ZM39.824 34.16L35.288 38.696C35.176 38.808 35.024 38.872 34.864 38.872C34.704 38.872 34.552 38.808 34.44 38.696L32.176 36.432C31.944 36.2 31.944 35.816 32.176 35.584C32.408 35.352 32.792 35.352 33.024 35.584L34.864 37.424L38.976 33.312C39.208 33.08 39.592 33.08 39.824 33.312C40.056 33.544 40.056 33.92 39.824 34.16Z" fill="white"/>
<path d="M53 36H61" stroke="#17619C" stroke-dasharray="2 2"/>
<rect x="61" y="19" width="34" height="34" rx="6" fill="#17619C"/>
<path d="M78 28C73.592 28 70 31.592 70 36C70 40.408 73.592 44 78 44C82.408 44 86 40.408 86 36C86 31.592 82.408 28 78 28ZM81.824 34.16L77.288 38.696C77.176 38.808 77.024 38.872 76.864 38.872C76.704 38.872 76.552 38.808 76.44 38.696L74.176 36.432C73.944 36.2 73.944 35.816 74.176 35.584C74.408 35.352 74.792 35.352 75.024 35.584L76.864 37.424L80.976 33.312C81.208 33.08 81.592 33.08 81.824 33.312C82.056 33.544 82.056 33.92 81.824 34.16Z" fill="white"/>
<path d="M95 36H103" stroke="#17619C" stroke-dasharray="2 2"/>
<rect x="103" y="19" width="34" height="34" rx="6" fill="#94B6D1"/>
<circle cx="120" cy="36" r="7" stroke="white" stroke-width="2"/>
<path d="M137 36H145" stroke="#17619C" stroke-dasharray="2 2"/>
<rect x="145" y="19" width="34" height="34" rx="6" fill="#94B6D1"/>
<circle cx="162" cy="36" r="7" stroke="white" stroke-width="2"/>
<path d="M179 36H187" stroke="#17619C" stroke-dasharray="2 2"/>
<rect x="187" y="19" width="34" height="34" rx="6" fill="#94B6D1"/>
<circle cx="204" cy="36" r="7" stroke="white" stroke-width="2"/>
</svg>
