<svg width="240" height="72" viewBox="0 0 240 72" fill="none" xmlns="http://www.w3.org/2000/svg">
<rect x="17" y="12" width="48" height="48" rx="6" fill="#E8A800"/>
<g clip-path="url(#clip0_1187_4399)">
<path d="M41.0088 44.4945C39.8759 44.484 38.7544 44.2648 37.6996 43.8478C37.552 43.8017 37.3926 43.8134 37.2533 43.8806C36.5881 44.2339 35.9341 44.6099 35.276 44.9788C34.9935 45.1327 34.711 45.2637 34.4158 45.0501C34.1207 44.8364 34.0755 44.4974 34.1461 44.1541C34.2873 43.459 34.4286 42.7624 34.6009 42.073C34.6301 41.9792 34.6323 41.8789 34.6073 41.7839C34.5823 41.6888 34.5311 41.6029 34.4596 41.536C30.5488 37.0847 32.0191 29.3885 38.321 27.3516C43.2841 25.7477 48.4336 28.7119 49.5013 33.8498C50.6016 39.1373 47.0834 43.8008 42.1302 44.4005C41.7587 44.4461 41.3831 44.4646 41.0088 44.4945ZM45.438 37.3539C45.7611 37.3494 46.0757 37.2483 46.3419 37.0634C46.6081 36.8786 46.8139 36.6183 46.9335 36.3155C47.053 36.0127 47.0808 35.6809 47.0133 35.3621C46.9459 35.0433 46.7863 34.7519 46.5546 34.5246C46.3229 34.2974 46.0297 34.1445 45.7118 34.0853C45.394 34.0261 45.066 34.0633 44.7691 34.1922C44.4723 34.3211 44.22 34.5358 44.0441 34.8093C43.8683 35.0828 43.7768 35.4027 43.7812 35.7286C43.7883 36.1654 43.9666 36.5815 44.277 36.8861C44.5875 37.1906 45.0049 37.3588 45.438 37.3539ZM36.5796 37.3539C36.9028 37.3525 37.2184 37.2544 37.4864 37.0721C37.7544 36.8898 37.9627 36.6314 38.0851 36.3296C38.2074 36.0278 38.2383 35.6963 38.1737 35.3768C38.1092 35.0574 37.9521 34.7644 37.7225 34.535C37.4928 34.3055 37.2009 34.15 36.8835 34.0879C36.5662 34.0259 36.2377 34.0601 35.9397 34.1864C35.6416 34.3126 35.3874 34.5252 35.2092 34.7972C35.031 35.0692 34.9367 35.3884 34.9384 35.7144C34.9393 35.9307 34.9825 36.1448 35.0655 36.3443C35.1485 36.5438 35.2697 36.7249 35.4221 36.8772C35.5745 37.0294 35.7552 37.1499 35.9538 37.2317C36.1524 37.3135 36.3651 37.355 36.5796 37.3539ZM42.6372 35.7172C42.6395 35.3912 42.5458 35.0719 42.368 34.7996C42.1902 34.5273 41.9364 34.3143 41.6386 34.1875C41.3408 34.0607 41.0124 34.0259 40.6949 34.0874C40.3775 34.1489 40.0852 34.3039 39.8552 34.533C39.6251 34.762 39.4676 35.0547 39.4025 35.374C39.3374 35.6934 39.3677 36.025 39.4895 36.327C39.6114 36.629 39.8193 36.8877 40.0869 37.0705C40.3546 37.2533 40.67 37.3519 40.9932 37.3539C41.2082 37.3571 41.4217 37.3171 41.6212 37.2363C41.8207 37.1554 42.0023 37.0353 42.1553 36.883C42.3083 36.7307 42.4297 36.5491 42.5125 36.349C42.5952 36.1488 42.6376 35.9341 42.6372 35.7172Z" fill="white"/>
<path d="M43.976 48.0555C43.976 48.1979 43.976 48.3133 43.976 48.4315C43.9727 48.7566 43.843 49.0674 43.6148 49.2971C43.3866 49.5267 43.0781 49.6568 42.7557 49.6594C41.591 49.6717 40.4258 49.6717 39.2601 49.6594C39.0977 49.6594 38.9369 49.6269 38.7869 49.5638C38.637 49.5008 38.501 49.4083 38.3867 49.2919C38.2725 49.1755 38.1822 49.0373 38.1212 48.8855C38.0602 48.7337 38.0297 48.5711 38.0314 48.4073C38.0243 48.1709 38.0243 47.933 38.0314 47.6951C38.0302 47.5314 38.0614 47.3691 38.1229 47.2177C38.1845 47.0662 38.2752 46.9286 38.3899 46.8128C38.5046 46.697 38.641 46.6053 38.7911 46.543C38.9412 46.4808 39.1021 46.4492 39.2644 46.4502C39.9112 46.4373 40.5595 46.4502 41.2064 46.4502C43.7486 46.4616 45.9646 45.5599 47.9024 43.9375C49.2185 42.8639 50.2312 41.4598 50.8387 39.8665C51.1042 39.1543 51.1734 38.3708 51.3062 37.6145C51.4347 36.8794 51.5491 36.1402 51.6339 35.3995C51.737 34.4978 51.5251 33.6261 51.2808 32.7728C50.6915 30.6683 49.4814 28.7944 47.8111 27.3999C46.1409 26.0054 44.0895 25.1564 41.9295 24.9656C36.2687 24.4328 31.0882 28.6619 30.3933 34.3525C30.2902 35.2072 30.4752 36.0049 30.5882 36.8225C30.7902 38.301 31.0331 39.7753 31.2449 41.2539C31.3706 42.1285 31.1037 42.5586 30.2634 42.7894C29.7699 42.9431 29.2584 43.0298 28.7422 43.0472C27.6123 43.0472 26.8129 42.3777 26.2395 41.4803C24.8116 39.244 24.6209 36.8552 25.6491 34.4209C25.8785 33.856 26.2427 33.357 26.7094 32.9683C27.1761 32.5796 27.7308 32.3133 28.3242 32.1931C28.5186 32.1592 28.7148 32.1364 28.9117 32.1247C28.9385 32.0578 28.9739 31.9737 29.0049 31.8883C30.7647 26.8686 34.2392 23.8901 39.4466 23.1252C45.3531 22.2591 51.0845 25.9854 52.9615 31.7658C53.018 31.941 53.0095 32.1561 53.3104 32.1689C54.9402 32.2429 55.9345 33.2044 56.4656 34.6559C57.3751 37.1444 57.1506 39.5317 55.5913 41.7154C55.0532 42.4689 54.3202 43.0315 53.364 43.0558C52.8372 43.0686 52.3033 42.8948 51.7779 42.7794C51.5788 42.7353 51.4602 42.7538 51.3359 42.9318C49.6374 45.4203 47.1085 47.2099 44.2105 47.9743C44.1427 47.9928 44.0777 48.0199 43.976 48.0555Z" fill="white"/>
</g>
<rect x="69" y="12" width="154" height="48" rx="6" fill="#FFF8E6"/>
<path d="M111.524 19H79.8373C78.4544 19 77.4888 20.3698 77.9536 21.6722L82.8268 35.3278C82.9819 35.7625 82.9819 36.2375 82.8268 36.6722L77.9536 50.3278C77.4888 51.6302 78.4544 53 79.8373 53H111.524C112.369 53 113.123 52.4684 113.407 51.6722L118.76 36.6722C118.915 36.2375 118.915 35.7625 118.76 35.3278L113.407 20.3278C113.123 19.5316 112.369 19 111.524 19Z" fill="#FFD054"/>
<path d="M159.524 19H127.837C126.454 19 125.489 20.3698 125.954 21.6722L130.827 35.3278C130.982 35.7625 130.982 36.2375 130.827 36.6722L125.954 50.3278C125.489 51.6302 126.454 53 127.837 53H159.524C160.369 53 161.123 52.4684 161.407 51.6722L166.76 36.6722C166.915 36.2375 166.915 35.7625 166.76 35.3278L161.407 20.3278C161.123 19.5316 160.369 19 159.524 19Z" fill="#FFB900"/>
<path d="M207.524 19H175.837C174.454 19 173.489 20.3698 173.954 21.6722L178.827 35.3278C178.982 35.7625 178.982 36.2375 178.827 36.6722L173.954 50.3278C173.489 51.6302 174.454 53 175.837 53H207.524C208.369 53 209.123 52.4684 209.407 51.6722L214.76 36.6722C214.915 36.2375 214.915 35.7625 214.76 35.3278L209.407 20.3278C209.123 19.5316 208.369 19 207.524 19Z" fill="#8C6600"/>
<defs>
<clipPath id="clip0_1187_4399">
<rect width="32" height="26.6667" fill="white" transform="translate(25 23)"/>
</clipPath>
</defs>
</svg>
