<svg width="180" height="72" viewBox="0 0 180 72" fill="none" xmlns="http://www.w3.org/2000/svg">
<path d="M12.4004 14C7.99239 14 4.40039 17.592 4.40039 22C4.40039 26.408 7.99239 30 12.4004 30C16.8084 30 20.4004 26.408 20.4004 22C20.4004 17.592 16.8084 14 12.4004 14ZM16.2244 20.16L11.6884 24.696C11.5764 24.808 11.4244 24.872 11.2644 24.872C11.1044 24.872 10.9524 24.808 10.8404 24.696L8.57639 22.432C8.34439 22.2 8.34439 21.816 8.57639 21.584C8.80839 21.352 9.19239 21.352 9.42439 21.584L11.2644 23.424L15.3764 19.312C15.6084 19.08 15.9924 19.08 16.2244 19.312C16.4564 19.544 16.4564 19.92 16.2244 20.16Z" fill="#D2D2D4"/>
<rect x="28.4004" y="15" width="151.2" height="14" rx="7" fill="#D2D2D4"/>
<path d="M12.4004 42C7.99239 42 4.40039 45.592 4.40039 50C4.40039 54.408 7.99239 58 12.4004 58C16.8084 58 20.4004 54.408 20.4004 50C20.4004 45.592 16.8084 42 12.4004 42ZM16.2244 48.16L11.6884 52.696C11.5764 52.808 11.4244 52.872 11.2644 52.872C11.1044 52.872 10.9524 52.808 10.8404 52.696L8.57639 50.432C8.34439 50.2 8.34439 49.816 8.57639 49.584C8.80839 49.352 9.19239 49.352 9.42439 49.584L11.2644 51.424L15.3764 47.312C15.6084 47.08 15.9924 47.08 16.2244 47.312C16.4564 47.544 16.4564 47.92 16.2244 48.16Z" fill="#6E6E73"/>
<rect x="28.4004" y="43" width="151.2" height="14" rx="7" fill="#6E6E73"/>
</svg>
