<svg width="342" height="72" viewBox="0 0 342 72" fill="none" xmlns="http://www.w3.org/2000/svg">
<rect x="50.667" y="5.5" width="36" height="19" rx="3" fill="#D0E3F2"/>
<rect x="50.667" y="30.5" width="36" height="36" rx="3" fill="#17619C"/>
<path d="M69 40C64.592 40 61 43.592 61 48C61 52.408 64.592 56 69 56C73.408 56 77 52.408 77 48C77 43.592 73.408 40 69 40ZM72.824 46.16L68.288 50.696C68.176 50.808 68.024 50.872 67.864 50.872C67.704 50.872 67.552 50.808 67.44 50.696L65.176 48.432C64.944 48.2 64.944 47.816 65.176 47.584C65.408 47.352 65.792 47.352 66.024 47.584L67.864 49.424L71.976 45.312C72.208 45.08 72.592 45.08 72.824 45.312C73.056 45.544 73.056 45.92 72.824 46.16Z" fill="white"/>
<rect x="92.667" y="5.5" width="36" height="36" rx="3" fill="#D0E3F2"/>
<rect x="92.667" y="47.5" width="36" height="19" rx="3" fill="#D0E3F2"/>
<rect x="136.667" y="5.5" width="154" height="61" rx="3" fill="#F2F9FF"/>
<rect x="146.667" y="12.5" width="55" height="13" rx="2" fill="#D0E3F2"/>
<rect x="146.667" y="29.5" width="139" height="13" rx="2" fill="#D0E3F2"/>
<rect x="146.667" y="46.5" width="139" height="13" rx="2" fill="#D0E3F2"/>
</svg>
