<svg width="697" height="366" viewBox="0 0 697 366" fill="none" xmlns="http://www.w3.org/2000/svg">
<g clip-path="url(#clip0_1265_7489)">
<rect width="697" height="366" rx="24" fill="#19614A"/>
<g filter="url(#filter0_d_1265_7489)">
<rect x="-81" y="115" width="271" height="120" rx="8" fill="#208061"/>
<rect x="-61" y="135" width="110.5" height="80" rx="9" fill="#36D3A0"/>
<rect x="59.5" y="135" width="110.5" height="18" rx="9" fill="#36D3A0"/>
<rect x="59.5" y="161" width="110.5" height="54" rx="9" fill="#36D3A0"/>
<path d="M116.2 194.432H117.24C118.28 194.432 119.144 193.504 119.144 192.384C119.144 190.992 118.648 190.72 117.832 190.432L116.216 189.872V194.432H116.2Z" fill="white"/>
<path d="M114.952 172C106.12 172.032 98.9681 179.216 99.0001 188.048C99.0321 196.88 106.216 204.032 115.048 204C123.88 203.968 131.032 196.784 131 187.952C130.968 179.12 123.784 171.984 114.952 172ZM118.616 188.16C119.864 188.592 121.544 189.52 121.544 192.384C121.544 194.848 119.608 196.832 117.24 196.832H116.2V197.76C116.2 198.416 115.656 198.96 115 198.96C114.344 198.96 113.8 198.416 113.8 197.76V196.832H113.224C110.6 196.832 108.472 194.624 108.472 191.904C108.472 191.248 109.016 190.704 109.672 190.704C110.328 190.704 110.872 191.248 110.872 191.904C110.872 193.296 111.928 194.432 113.224 194.432H113.8V189.024L111.384 188.16C110.136 187.728 108.456 186.8 108.456 183.936C108.456 181.472 110.392 179.488 112.76 179.488H113.8V178.56C113.8 177.904 114.344 177.36 115 177.36C115.656 177.36 116.2 177.904 116.2 178.56V179.488H116.776C119.4 179.488 121.528 181.696 121.528 184.416C121.528 185.072 120.984 185.616 120.328 185.616C119.672 185.616 119.128 185.072 119.128 184.416C119.128 183.024 118.072 181.888 116.776 181.888H116.2V187.296L118.616 188.16Z" fill="white"/>
<path d="M110.872 183.952C110.872 185.344 111.368 185.616 112.184 185.904L113.8 186.464V181.888H112.76C111.72 181.888 110.872 182.816 110.872 183.952Z" fill="white"/>
</g>
<g filter="url(#filter1_d_1265_7489)">
<rect x="210" y="115" width="271" height="120" rx="8" fill="#2AA57D"/>
<rect x="230" y="135" width="110.5" height="80" rx="9" fill="white"/>
<rect x="350.5" y="135" width="110.5" height="18" rx="9" fill="white"/>
<rect x="350.5" y="161" width="110.5" height="54" rx="9" fill="white"/>
<path d="M407.2 194.432H408.24C409.28 194.432 410.144 193.504 410.144 192.384C410.144 190.992 409.648 190.72 408.832 190.432L407.216 189.872V194.432H407.2Z" fill="#36D3A0"/>
<path d="M405.952 172C397.12 172.032 389.968 179.216 390 188.048C390.032 196.88 397.216 204.032 406.048 204C414.88 203.968 422.032 196.784 422 187.952C421.968 179.12 414.784 171.984 405.952 172ZM409.616 188.16C410.864 188.592 412.544 189.52 412.544 192.384C412.544 194.848 410.608 196.832 408.24 196.832H407.2V197.76C407.2 198.416 406.656 198.96 406 198.96C405.344 198.96 404.8 198.416 404.8 197.76V196.832H404.224C401.6 196.832 399.472 194.624 399.472 191.904C399.472 191.248 400.016 190.704 400.672 190.704C401.328 190.704 401.872 191.248 401.872 191.904C401.872 193.296 402.928 194.432 404.224 194.432H404.8V189.024L402.384 188.16C401.136 187.728 399.456 186.8 399.456 183.936C399.456 181.472 401.392 179.488 403.76 179.488H404.8V178.56C404.8 177.904 405.344 177.36 406 177.36C406.656 177.36 407.2 177.904 407.2 178.56V179.488H407.776C410.4 179.488 412.528 181.696 412.528 184.416C412.528 185.072 411.984 185.616 411.328 185.616C410.672 185.616 410.128 185.072 410.128 184.416C410.128 183.024 409.072 181.888 407.776 181.888H407.2V187.296L409.616 188.16Z" fill="#36D3A0"/>
<path d="M401.872 183.952C401.872 185.344 402.368 185.616 403.184 185.904L404.8 186.464V181.888H403.76C402.72 181.888 401.872 182.816 401.872 183.952Z" fill="#36D3A0"/>
</g>
<g filter="url(#filter2_d_1265_7489)">
<rect x="501" y="115" width="271" height="120" rx="8" fill="#208061"/>
<rect x="521" y="135" width="110.5" height="80" rx="9" fill="#36D3A0"/>
<rect x="641.5" y="135" width="110.5" height="18" rx="9" fill="#36D3A0"/>
<rect x="641.5" y="161" width="110.5" height="54" rx="9" fill="#36D3A0"/>
<path d="M696.952 172C688.12 172.032 680.968 179.216 681 188.048C681.032 196.88 688.216 204.032 697.048 204C705.88 203.968 713.032 196.784 713 187.952C712.968 179.12 705.784 171.984 696.952 172ZM700.616 188.16C701.864 188.592 703.544 189.52 703.544 192.384C703.544 194.848 701.608 196.832 699.24 196.832H698.2V197.76C698.2 198.416 697.656 198.96 697 198.96C696.344 198.96 695.8 198.416 695.8 197.76V196.832H695.224C692.6 196.832 690.472 194.624 690.472 191.904C690.472 191.248 691.016 190.704 691.672 190.704C692.328 190.704 692.872 191.248 692.872 191.904C692.872 193.296 693.928 194.432 695.224 194.432H695.8V189.024L693.384 188.16C692.136 187.728 690.456 186.8 690.456 183.936C690.456 181.472 692.392 179.488 694.76 179.488H695.8V178.56C695.8 177.904 696.344 177.36 697 177.36C697.656 177.36 698.2 177.904 698.2 178.56V179.488H698.776C701.4 179.488 703.528 181.696 703.528 184.416C703.528 185.072 702.984 185.616 702.328 185.616C701.672 185.616 701.128 185.072 701.128 184.416C701.128 183.024 700.072 181.888 698.776 181.888H698.2V187.296L700.616 188.16Z" fill="white"/>
<path d="M692.872 183.952C692.872 185.344 693.368 185.616 694.184 185.904L695.8 186.464V181.888H694.76C693.72 181.888 692.872 182.816 692.872 183.952Z" fill="white"/>
</g>
<g style="mix-blend-mode:screen">
<path opacity="0.2" d="M684.987 507.538C812.593 390.511 801.55 382.341 770.499 142.014C609.678 235.884 298.175 482.497 338.736 717.991C389.437 1012.36 490.581 685.829 684.987 507.538Z" fill="#208061"/>
<path opacity="0.2" d="M206.982 -9.22421C290.892 -160.676 277.828 -164.923 172.17 -383C49.4157 -242.977 -167.807 89.6883 -54.6622 300.166C86.7683 563.263 79.147 221.512 206.982 -9.22421Z" fill="#208061"/>
</g>
</g>
<defs>
<filter id="filter0_d_1265_7489" x="-97" y="103" width="303" height="152" filterUnits="userSpaceOnUse" color-interpolation-filters="sRGB">
<feFlood flood-opacity="0" result="BackgroundImageFix"/>
<feColorMatrix in="SourceAlpha" type="matrix" values="0 0 0 0 0 0 0 0 0 0 0 0 0 0 0 0 0 0 127 0" result="hardAlpha"/>
<feOffset dy="4"/>
<feGaussianBlur stdDeviation="8"/>
<feComposite in2="hardAlpha" operator="out"/>
<feColorMatrix type="matrix" values="0 0 0 0 0 0 0 0 0 0 0 0 0 0 0 0 0 0 0.13 0"/>
<feBlend mode="normal" in2="BackgroundImageFix" result="effect1_dropShadow_1265_7489"/>
<feBlend mode="normal" in="SourceGraphic" in2="effect1_dropShadow_1265_7489" result="shape"/>
</filter>
<filter id="filter1_d_1265_7489" x="194" y="103" width="303" height="152" filterUnits="userSpaceOnUse" color-interpolation-filters="sRGB">
<feFlood flood-opacity="0" result="BackgroundImageFix"/>
<feColorMatrix in="SourceAlpha" type="matrix" values="0 0 0 0 0 0 0 0 0 0 0 0 0 0 0 0 0 0 127 0" result="hardAlpha"/>
<feOffset dy="4"/>
<feGaussianBlur stdDeviation="8"/>
<feComposite in2="hardAlpha" operator="out"/>
<feColorMatrix type="matrix" values="0 0 0 0 0 0 0 0 0 0 0 0 0 0 0 0 0 0 0.13 0"/>
<feBlend mode="normal" in2="BackgroundImageFix" result="effect1_dropShadow_1265_7489"/>
<feBlend mode="normal" in="SourceGraphic" in2="effect1_dropShadow_1265_7489" result="shape"/>
</filter>
<filter id="filter2_d_1265_7489" x="485" y="103" width="303" height="152" filterUnits="userSpaceOnUse" color-interpolation-filters="sRGB">
<feFlood flood-opacity="0" result="BackgroundImageFix"/>
<feColorMatrix in="SourceAlpha" type="matrix" values="0 0 0 0 0 0 0 0 0 0 0 0 0 0 0 0 0 0 127 0" result="hardAlpha"/>
<feOffset dy="4"/>
<feGaussianBlur stdDeviation="8"/>
<feComposite in2="hardAlpha" operator="out"/>
<feColorMatrix type="matrix" values="0 0 0 0 0 0 0 0 0 0 0 0 0 0 0 0 0 0 0.13 0"/>
<feBlend mode="normal" in2="BackgroundImageFix" result="effect1_dropShadow_1265_7489"/>
<feBlend mode="normal" in="SourceGraphic" in2="effect1_dropShadow_1265_7489" result="shape"/>
</filter>
<clipPath id="clip0_1265_7489">
<rect width="697" height="366" rx="24" fill="white"/>
</clipPath>
</defs>
</svg>
