<svg width="240" height="72" viewBox="0 0 240 72" fill="none" xmlns="http://www.w3.org/2000/svg">
<rect x="24.5" y="12" width="48" height="48" rx="6" fill="#4E4E52"/>
<g clip-path="url(#clip0_1265_7380)">
<path d="M49.0009 38.673C48.1861 38.673 47.4076 38.6618 46.6265 38.673C46.3603 38.6793 46.2791 38.5993 46.2403 38.3356C45.7929 35.3357 42.9449 33.097 39.9218 33.3483C39.8531 33.3483 39.7818 33.3483 39.6719 33.3483V33.0045C39.6719 29.5047 39.6719 26.0048 39.6719 22.5049C39.6719 20.96 40.6441 19.9938 42.19 19.9938H62.4653C64.0262 19.9938 64.9947 20.9637 64.9947 22.5287C64.9947 27.0602 64.9947 31.5912 64.9947 36.1219C64.9947 37.6943 64.0199 38.6655 62.4365 38.6655C59.7913 38.6655 57.1461 38.6655 54.5009 38.6655C54.4009 38.6582 54.301 38.6794 54.2125 38.7265C54.1241 38.7736 54.0507 38.8448 54.001 38.9318C52.9725 40.448 51.929 41.9542 50.8967 43.4666C50.8145 43.6059 50.7023 43.7251 50.5683 43.8157C50.4343 43.9063 50.2818 43.9659 50.1219 43.9903C49.5221 44.0691 49.0109 43.6079 49.0072 42.9691C48.9997 41.6667 49.0072 40.3642 49.0072 39.063L49.0009 38.673ZM59.6384 31.3083C59.6537 31.2489 59.6637 31.1883 59.6684 31.1271C59.6684 29.0984 59.6759 27.0697 59.6684 25.0398C59.6684 24.4061 59.2285 24.0049 58.5874 24.0024C57.5677 24.0024 56.5479 24.0024 55.5282 24.0024C54.7083 24.0024 54.3334 24.3774 54.3322 25.2098V31.3083H59.6384ZM53.015 32.6733H49.3908C48.2661 32.6733 47.1414 32.6733 46.0166 32.6733C45.8013 32.6633 45.5888 32.726 45.4133 32.8513C45.2379 32.9767 45.1097 33.1575 45.0494 33.3645C44.8257 34.057 45.3393 34.667 46.1566 34.667H59.8396C59.9655 34.6687 60.0912 34.6569 60.2146 34.632C60.3896 34.5934 60.5509 34.508 60.6813 34.3849C60.8116 34.2618 60.9061 34.1056 60.9546 33.933C61.0031 33.7604 61.0038 33.5778 60.9567 33.4048C60.9095 33.2318 60.8163 33.0749 60.6869 32.9508C60.4583 32.717 60.1696 32.6708 59.8559 32.672C57.5773 32.6762 55.2974 32.6766 53.0162 32.6733H53.015ZM51.6641 31.3146C51.6641 30.9396 51.6878 30.5921 51.6641 30.2534C51.648 30.001 51.535 29.7645 51.3487 29.5935C51.1623 29.4226 50.9171 29.3302 50.6643 29.3359C49.5608 29.3209 48.4573 29.3234 47.3538 29.3359C46.9064 29.3359 46.5353 29.5634 46.429 29.9934C46.3228 30.4234 46.3528 30.8684 46.3216 31.3146H51.6641Z" fill="white"/>
<path d="M40.3169 52H34.1683C33.3885 52 33.0011 51.6138 33.0073 50.8276C33.0136 50.0414 32.9598 49.2377 33.0648 48.4589C33.178 47.5921 33.6035 46.7964 34.2616 46.2211C34.9196 45.6457 35.765 45.3304 36.639 45.3341C39.1059 45.3103 41.5728 45.3066 44.0397 45.3341C46.0593 45.3566 47.6176 46.9353 47.6714 48.9589C47.6889 49.6139 47.6826 50.2714 47.6714 50.9263C47.6626 51.6038 47.2502 52 46.5641 52.0013L40.3169 52Z" fill="white"/>
<path d="M44.3311 39.3267C44.3311 40.3876 43.9098 41.405 43.1598 42.1551C42.4099 42.9052 41.3927 43.3266 40.3321 43.3266C39.2715 43.3266 38.2543 42.9052 37.5043 42.1551C36.7543 41.405 36.333 40.3876 36.333 39.3267C36.333 38.2659 36.7543 37.2486 37.5043 36.4984C38.2543 35.7483 39.2715 35.3269 40.3321 35.3269C41.3927 35.3269 42.4099 35.7483 43.1598 36.4984C43.9098 37.2486 44.3311 38.2659 44.3311 39.3267Z" fill="white"/>
</g>
<g clip-path="url(#clip1_1265_7380)">
<rect width="86" height="22" rx="11" transform="matrix(-1 0 0 1 170.5 38)" fill="#4E4E52"/>
<rect width="10" height="10" rx="5" transform="matrix(-1 0 0 1 152.5 44)" fill="white"/>
<rect width="10" height="10" rx="5" transform="matrix(-1 0 0 1 132.5 44)" fill="white"/>
<rect width="10" height="10" rx="5" transform="matrix(-1 0 0 1 112.5 44)" fill="white"/>
<path d="M82.2546 57.1076C84.5334 54.9426 85.3904 52.4381 85.3904 51L93.774 55.0909L113.5 60H83.1031C81.9867 60 81.4452 57.8766 82.2546 57.1076Z" fill="#4E4E52"/>
<rect x="84.5" y="12" width="131" height="22" rx="11" fill="#4E4E52"/>
<rect x="94.5" y="19" width="111" height="8" rx="4" fill="white"/>
</g>
<defs>
<clipPath id="clip0_1265_7380">
<rect width="32" height="32" fill="white" transform="translate(33 20)"/>
</clipPath>
<clipPath id="clip1_1265_7380">
<rect width="139" height="72" fill="white" transform="translate(76.5)"/>
</clipPath>
</defs>
</svg>
