<svg width="240" height="72" viewBox="0 0 240 72" fill="none" xmlns="http://www.w3.org/2000/svg">
<rect x="58" y="24" width="32" height="24" rx="2" fill="#94B6D1"/>
<rect x="108" y="24" width="32" height="24" rx="2" fill="#17619C"/>
<rect x="158" y="24" width="24" height="24" rx="12" fill="#0D3556"/>
<path d="M125 52C125 51.4477 124.552 51 124 51C123.448 51 123 51.4477 123 52H125ZM172.707 51.2929C172.317 50.9024 171.683 50.9024 171.293 51.2929L164.929 57.6569C164.538 58.0474 164.538 58.6805 164.929 59.0711C165.319 59.4616 165.953 59.4616 166.343 59.0711L172 53.4142L177.657 59.0711C178.047 59.4616 178.681 59.4616 179.071 59.0711C179.462 58.6805 179.462 58.0474 179.071 57.6569L172.707 51.2929ZM123 52V61H125V52H123ZM127 65H169V63H127V65ZM173 61V52H171V61H173ZM169 65C171.209 65 173 63.2091 173 61H171C171 62.1046 170.105 63 169 63V65ZM123 61C123 63.2091 124.791 65 127 65V63C125.895 63 125 62.1046 125 61H123Z" fill="#94B6D1"/>
<path d="M123 20C123 20.5523 123.448 21 124 21C124.552 21 125 20.5523 125 20L123 20ZM72.2929 20.7071C72.6834 21.0976 73.3166 21.0976 73.7071 20.7071L80.0711 14.3431C80.4616 13.9526 80.4616 13.3195 80.0711 12.9289C79.6805 12.5384 79.0474 12.5384 78.6569 12.9289L73 18.5858L67.3431 12.9289C66.9526 12.5384 66.3195 12.5384 65.9289 12.9289C65.5384 13.3195 65.5384 13.9526 65.9289 14.3431L72.2929 20.7071ZM125 20L125 11L123 11L123 20L125 20ZM121 7L76 7L76 9L121 9L121 7ZM72 11L72 20L74 20L74 11L72 11ZM76 7C73.7909 7 72 8.79086 72 11L74 11C74 9.89543 74.8954 9 76 9L76 7ZM125 11C125 8.79086 123.209 7 121 7L121 9C122.105 9 123 9.89543 123 11L125 11Z" fill="#94B6D1"/>
<circle cx="73.5" cy="53.5" r="1.5" fill="#94B6D1"/>
<circle cx="73.5" cy="58.5" r="1.5" fill="#94B6D1"/>
<circle cx="73.5" cy="63.5" r="1.5" fill="#94B6D1"/>
</svg>
