<svg width="697" height="366" viewBox="0 0 697 366" fill="none" xmlns="http://www.w3.org/2000/svg">
<g clip-path="url(#clip0_1188_4859)">
<rect width="697" height="366" rx="24" fill="#19614A"/>
<g opacity="0.3" filter="url(#filter0_d_1188_4859)">
<rect x="113" y="119" width="133" height="133" rx="66.5" fill="#208061"/>
</g>
<path opacity="0.2" d="M705.065 31.6867C644.974 -130.694 633.235 -123.56 399.009 -185.683C425.103 -1.30838 535.628 380.314 768.975 431.806C1060.66 496.171 796.614 279.073 705.065 31.6867Z" fill="#208061"/>
<g filter="url(#filter1_d_1188_4859)">
<rect x="123" y="122" width="122" height="122" rx="61" fill="white"/>
<g filter="url(#filter2_d_1188_4859)">
<g clip-path="url(#clip1_1188_4859)">
<path d="M154 165C154 163.895 154.895 163 156 163H197C198.105 163 199 163.895 199 165V172H154V165Z" fill="#2AA57D"/>
<path d="M154 172H199V207C199 208.105 198.105 209 197 209H156C154.895 209 154 208.105 154 207V172Z" fill="white"/>
<rect x="158" y="176" width="15" height="9" rx="1" fill="#2AA57D"/>
<rect x="158" y="187" width="37" height="18" rx="1" fill="#2AA57D"/>
</g>
</g>
<g filter="url(#filter3_d_1188_4859)">
<rect x="183" y="148" width="36" height="36" rx="18" fill="#19614A"/>
<rect x="184" y="149" width="34" height="34" rx="17" stroke="white" stroke-width="2"/>
<path d="M201 156V167H211" stroke="white" stroke-width="3"/>
</g>
</g>
<path d="M284 222L284 332" stroke="#8B8B8F" stroke-width="2" stroke-dasharray="4 6"/>
<path d="M284 150L284 223" stroke="#36D3A0" stroke-width="2"/>
<path d="M284 42L284 147" stroke="#208061" stroke-width="2"/>
<path d="M342 150H285" stroke="#36D3A0" stroke-width="2"/>
<path d="M289 44H304.266C309.789 44 314.266 48.4772 314.266 54V57C314.266 62.5228 318.743 67 324.266 67H343" stroke="#208061" stroke-width="2"/>
<g filter="url(#filter4_d_1188_4859)">
<rect x="275" y="35" width="18" height="18" rx="9" fill="#208061"/>
<rect x="276" y="36" width="16" height="16" rx="8" stroke="#2AA57D" stroke-width="2"/>
</g>
<g filter="url(#filter5_d_1188_4859)">
<rect x="275" y="141" width="18" height="18" rx="9" fill="#36D3A0"/>
<rect x="276" y="142" width="16" height="16" rx="8" stroke="white" stroke-width="2"/>
</g>
<path d="M284 232H338" stroke="#8B8B8F" stroke-width="2" stroke-dasharray="4 6"/>
<path d="M284 303H338" stroke="#8B8B8F" stroke-width="2" stroke-dasharray="4 6"/>
<g filter="url(#filter6_d_1188_4859)">
<rect x="334" y="35" width="212" height="67" rx="3" fill="#208061"/>
<rect x="334.5" y="35.5" width="211" height="66" rx="2.5" stroke="#2AA57D"/>
<rect x="344" y="45" width="55" height="13" rx="2" fill="#36D3A0"/>
<rect x="344" y="62" width="192" height="13" rx="2" fill="#36D3A0"/>
<rect x="344" y="79" width="160" height="13" rx="2" fill="#36D3A0"/>
</g>
<g filter="url(#filter7_d_1188_4859)">
<rect x="334" y="117" width="230" height="67" rx="3" fill="#36D3A0"/>
<rect x="334.5" y="117.5" width="229" height="66" rx="2.5" stroke="white"/>
<rect x="344" y="127" width="55" height="13" rx="2" fill="white"/>
<rect x="344" y="144" width="210" height="13" rx="2" fill="white"/>
<rect x="344" y="161" width="210" height="13" rx="2" fill="white"/>
</g>
<g filter="url(#filter8_d_1188_4859)">
<rect x="334" y="199" width="240" height="67" rx="3" fill="#C2F8E7"/>
<rect x="344" y="209" width="94" height="13" rx="2" fill="#7CF0CA"/>
<rect x="344" y="226" width="220" height="13" rx="2" fill="#7CF0CA"/>
<rect x="344" y="243" width="220" height="13" rx="2" fill="#7CF0CA"/>
</g>
<g filter="url(#filter9_d_1188_4859)">
<rect x="334" y="281" width="187" height="44" rx="3" fill="#C2F8E7"/>
<rect x="344" y="288" width="55" height="13" rx="2" fill="#7CF0CA"/>
<rect x="344" y="305" width="167" height="13" rx="2" fill="#7CF0CA"/>
</g>
<g filter="url(#filter10_d_1188_4859)">
<rect x="275" y="223" width="18" height="18" rx="9" fill="#C2F8E7"/>
</g>
<g filter="url(#filter11_d_1188_4859)">
<rect x="275" y="294" width="18" height="18" rx="9" fill="#C2F8E7"/>
</g>
<path opacity="0.2" d="M68.6163 223.27C-39.866 88.3251 -48.7372 98.8134 -290.574 114.172C-207.36 280.756 18.4765 607.635 256.109 582.472C553.15 551.019 233.889 428.858 68.6163 223.27Z" fill="#208061"/>
</g>
<defs>
<filter id="filter0_d_1188_4859" x="98" y="108" width="163" height="163" filterUnits="userSpaceOnUse" color-interpolation-filters="sRGB">
<feFlood flood-opacity="0" result="BackgroundImageFix"/>
<feColorMatrix in="SourceAlpha" type="matrix" values="0 0 0 0 0 0 0 0 0 0 0 0 0 0 0 0 0 0 127 0" result="hardAlpha"/>
<feOffset dy="4"/>
<feGaussianBlur stdDeviation="7.5"/>
<feComposite in2="hardAlpha" operator="out"/>
<feColorMatrix type="matrix" values="0 0 0 0 0 0 0 0 0 0 0 0 0 0 0 0 0 0 0.13 0"/>
<feBlend mode="normal" in2="BackgroundImageFix" result="effect1_dropShadow_1188_4859"/>
<feBlend mode="normal" in="SourceGraphic" in2="effect1_dropShadow_1188_4859" result="shape"/>
</filter>
<filter id="filter1_d_1188_4859" x="108" y="111" width="152" height="152" filterUnits="userSpaceOnUse" color-interpolation-filters="sRGB">
<feFlood flood-opacity="0" result="BackgroundImageFix"/>
<feColorMatrix in="SourceAlpha" type="matrix" values="0 0 0 0 0 0 0 0 0 0 0 0 0 0 0 0 0 0 127 0" result="hardAlpha"/>
<feOffset dy="4"/>
<feGaussianBlur stdDeviation="7.5"/>
<feComposite in2="hardAlpha" operator="out"/>
<feColorMatrix type="matrix" values="0 0 0 0 0 0 0 0 0 0 0 0 0 0 0 0 0 0 0.13 0"/>
<feBlend mode="normal" in2="BackgroundImageFix" result="effect1_dropShadow_1188_4859"/>
<feBlend mode="normal" in="SourceGraphic" in2="effect1_dropShadow_1188_4859" result="shape"/>
</filter>
<filter id="filter2_d_1188_4859" x="148" y="161" width="57" height="58" filterUnits="userSpaceOnUse" color-interpolation-filters="sRGB">
<feFlood flood-opacity="0" result="BackgroundImageFix"/>
<feColorMatrix in="SourceAlpha" type="matrix" values="0 0 0 0 0 0 0 0 0 0 0 0 0 0 0 0 0 0 127 0" result="hardAlpha"/>
<feOffset dy="4"/>
<feGaussianBlur stdDeviation="3"/>
<feComposite in2="hardAlpha" operator="out"/>
<feColorMatrix type="matrix" values="0 0 0 0 0 0 0 0 0 0 0 0 0 0 0 0 0 0 0.18 0"/>
<feBlend mode="normal" in2="BackgroundImageFix" result="effect1_dropShadow_1188_4859"/>
<feBlend mode="normal" in="SourceGraphic" in2="effect1_dropShadow_1188_4859" result="shape"/>
</filter>
<filter id="filter3_d_1188_4859" x="177" y="146" width="48" height="48" filterUnits="userSpaceOnUse" color-interpolation-filters="sRGB">
<feFlood flood-opacity="0" result="BackgroundImageFix"/>
<feColorMatrix in="SourceAlpha" type="matrix" values="0 0 0 0 0 0 0 0 0 0 0 0 0 0 0 0 0 0 127 0" result="hardAlpha"/>
<feOffset dy="4"/>
<feGaussianBlur stdDeviation="3"/>
<feComposite in2="hardAlpha" operator="out"/>
<feColorMatrix type="matrix" values="0 0 0 0 0 0 0 0 0 0 0 0 0 0 0 0 0 0 0.13 0"/>
<feBlend mode="normal" in2="BackgroundImageFix" result="effect1_dropShadow_1188_4859"/>
<feBlend mode="normal" in="SourceGraphic" in2="effect1_dropShadow_1188_4859" result="shape"/>
</filter>
<filter id="filter4_d_1188_4859" x="267" y="31" width="34" height="34" filterUnits="userSpaceOnUse" color-interpolation-filters="sRGB">
<feFlood flood-opacity="0" result="BackgroundImageFix"/>
<feColorMatrix in="SourceAlpha" type="matrix" values="0 0 0 0 0 0 0 0 0 0 0 0 0 0 0 0 0 0 127 0" result="hardAlpha"/>
<feOffset dy="4"/>
<feGaussianBlur stdDeviation="4"/>
<feComposite in2="hardAlpha" operator="out"/>
<feColorMatrix type="matrix" values="0 0 0 0 0 0 0 0 0 0 0 0 0 0 0 0 0 0 0.13 0"/>
<feBlend mode="normal" in2="BackgroundImageFix" result="effect1_dropShadow_1188_4859"/>
<feBlend mode="normal" in="SourceGraphic" in2="effect1_dropShadow_1188_4859" result="shape"/>
</filter>
<filter id="filter5_d_1188_4859" x="267" y="137" width="34" height="34" filterUnits="userSpaceOnUse" color-interpolation-filters="sRGB">
<feFlood flood-opacity="0" result="BackgroundImageFix"/>
<feColorMatrix in="SourceAlpha" type="matrix" values="0 0 0 0 0 0 0 0 0 0 0 0 0 0 0 0 0 0 127 0" result="hardAlpha"/>
<feOffset dy="4"/>
<feGaussianBlur stdDeviation="4"/>
<feComposite in2="hardAlpha" operator="out"/>
<feColorMatrix type="matrix" values="0 0 0 0 0 0 0 0 0 0 0 0 0 0 0 0 0 0 0.13 0"/>
<feBlend mode="normal" in2="BackgroundImageFix" result="effect1_dropShadow_1188_4859"/>
<feBlend mode="normal" in="SourceGraphic" in2="effect1_dropShadow_1188_4859" result="shape"/>
</filter>
<filter id="filter6_d_1188_4859" x="326" y="31" width="228" height="83" filterUnits="userSpaceOnUse" color-interpolation-filters="sRGB">
<feFlood flood-opacity="0" result="BackgroundImageFix"/>
<feColorMatrix in="SourceAlpha" type="matrix" values="0 0 0 0 0 0 0 0 0 0 0 0 0 0 0 0 0 0 127 0" result="hardAlpha"/>
<feOffset dy="4"/>
<feGaussianBlur stdDeviation="4"/>
<feComposite in2="hardAlpha" operator="out"/>
<feColorMatrix type="matrix" values="0 0 0 0 0 0 0 0 0 0 0 0 0 0 0 0 0 0 0.13 0"/>
<feBlend mode="normal" in2="BackgroundImageFix" result="effect1_dropShadow_1188_4859"/>
<feBlend mode="normal" in="SourceGraphic" in2="effect1_dropShadow_1188_4859" result="shape"/>
</filter>
<filter id="filter7_d_1188_4859" x="326" y="113" width="246" height="83" filterUnits="userSpaceOnUse" color-interpolation-filters="sRGB">
<feFlood flood-opacity="0" result="BackgroundImageFix"/>
<feColorMatrix in="SourceAlpha" type="matrix" values="0 0 0 0 0 0 0 0 0 0 0 0 0 0 0 0 0 0 127 0" result="hardAlpha"/>
<feOffset dy="4"/>
<feGaussianBlur stdDeviation="4"/>
<feComposite in2="hardAlpha" operator="out"/>
<feColorMatrix type="matrix" values="0 0 0 0 0 0 0 0 0 0 0 0 0 0 0 0 0 0 0.13 0"/>
<feBlend mode="normal" in2="BackgroundImageFix" result="effect1_dropShadow_1188_4859"/>
<feBlend mode="normal" in="SourceGraphic" in2="effect1_dropShadow_1188_4859" result="shape"/>
</filter>
<filter id="filter8_d_1188_4859" x="326" y="195" width="256" height="83" filterUnits="userSpaceOnUse" color-interpolation-filters="sRGB">
<feFlood flood-opacity="0" result="BackgroundImageFix"/>
<feColorMatrix in="SourceAlpha" type="matrix" values="0 0 0 0 0 0 0 0 0 0 0 0 0 0 0 0 0 0 127 0" result="hardAlpha"/>
<feOffset dy="4"/>
<feGaussianBlur stdDeviation="4"/>
<feComposite in2="hardAlpha" operator="out"/>
<feColorMatrix type="matrix" values="0 0 0 0 0 0 0 0 0 0 0 0 0 0 0 0 0 0 0.13 0"/>
<feBlend mode="normal" in2="BackgroundImageFix" result="effect1_dropShadow_1188_4859"/>
<feBlend mode="normal" in="SourceGraphic" in2="effect1_dropShadow_1188_4859" result="shape"/>
</filter>
<filter id="filter9_d_1188_4859" x="326" y="277" width="203" height="60" filterUnits="userSpaceOnUse" color-interpolation-filters="sRGB">
<feFlood flood-opacity="0" result="BackgroundImageFix"/>
<feColorMatrix in="SourceAlpha" type="matrix" values="0 0 0 0 0 0 0 0 0 0 0 0 0 0 0 0 0 0 127 0" result="hardAlpha"/>
<feOffset dy="4"/>
<feGaussianBlur stdDeviation="4"/>
<feComposite in2="hardAlpha" operator="out"/>
<feColorMatrix type="matrix" values="0 0 0 0 0 0 0 0 0 0 0 0 0 0 0 0 0 0 0.13 0"/>
<feBlend mode="normal" in2="BackgroundImageFix" result="effect1_dropShadow_1188_4859"/>
<feBlend mode="normal" in="SourceGraphic" in2="effect1_dropShadow_1188_4859" result="shape"/>
</filter>
<filter id="filter10_d_1188_4859" x="267" y="219" width="34" height="34" filterUnits="userSpaceOnUse" color-interpolation-filters="sRGB">
<feFlood flood-opacity="0" result="BackgroundImageFix"/>
<feColorMatrix in="SourceAlpha" type="matrix" values="0 0 0 0 0 0 0 0 0 0 0 0 0 0 0 0 0 0 127 0" result="hardAlpha"/>
<feOffset dy="4"/>
<feGaussianBlur stdDeviation="4"/>
<feComposite in2="hardAlpha" operator="out"/>
<feColorMatrix type="matrix" values="0 0 0 0 0 0 0 0 0 0 0 0 0 0 0 0 0 0 0.13 0"/>
<feBlend mode="normal" in2="BackgroundImageFix" result="effect1_dropShadow_1188_4859"/>
<feBlend mode="normal" in="SourceGraphic" in2="effect1_dropShadow_1188_4859" result="shape"/>
</filter>
<filter id="filter11_d_1188_4859" x="267" y="290" width="34" height="34" filterUnits="userSpaceOnUse" color-interpolation-filters="sRGB">
<feFlood flood-opacity="0" result="BackgroundImageFix"/>
<feColorMatrix in="SourceAlpha" type="matrix" values="0 0 0 0 0 0 0 0 0 0 0 0 0 0 0 0 0 0 127 0" result="hardAlpha"/>
<feOffset dy="4"/>
<feGaussianBlur stdDeviation="4"/>
<feComposite in2="hardAlpha" operator="out"/>
<feColorMatrix type="matrix" values="0 0 0 0 0 0 0 0 0 0 0 0 0 0 0 0 0 0 0.13 0"/>
<feBlend mode="normal" in2="BackgroundImageFix" result="effect1_dropShadow_1188_4859"/>
<feBlend mode="normal" in="SourceGraphic" in2="effect1_dropShadow_1188_4859" result="shape"/>
</filter>
<clipPath id="clip0_1188_4859">
<rect width="697" height="366" rx="24" fill="white"/>
</clipPath>
<clipPath id="clip1_1188_4859">
<rect x="154" y="163" width="45" height="46" rx="2" fill="white"/>
</clipPath>
</defs>
</svg>
