<svg width="240" height="72" viewBox="0 0 240 72" fill="none" xmlns="http://www.w3.org/2000/svg">
<rect x="5.5" y="16" width="40" height="40" rx="6" fill="#2AA57D"/>
<path d="M25.7041 40.9235V39.898H23.8582C23.5218 39.898 23.2429 39.619 23.2429 39.2827V38.2571H21.3969C21.0606 38.2571 20.7816 37.9782 20.7816 37.6418V36.6163H17.5V40.8086C17.5 42.5643 18.8783 44 20.5765 44H28.1653V41.5388H26.3194C25.983 41.5388 25.7041 41.2598 25.7041 40.9235Z" fill="white"/>
<path d="M32.3248 32.6866L27.4023 28.683C26.2866 27.7723 24.7196 27.7723 23.6038 28.683L18.6814 32.6866C17.9348 33.2937 17.5 34.2125 17.5 35.197V35.3857H21.3969C21.7333 35.3857 22.0122 35.6647 22.0122 36.001V37.0265H23.8582C24.1945 37.0265 24.4735 37.3055 24.4735 37.6418V38.6674H26.3194C26.6558 38.6674 26.9347 38.9463 26.9347 39.2827V40.3082H28.7806C29.117 40.3082 29.3959 40.5871 29.3959 40.9235V44H30.4214C32.1197 44 33.498 42.5643 33.498 40.8086V35.197C33.498 34.2125 33.0713 33.2937 32.3248 32.6866Z" fill="white"/>
<path d="M49.5 35.5C49.2239 35.5 49 35.7239 49 36C49 36.2761 49.2239 36.5 49.5 36.5V35.5ZM60.8536 36.3536C61.0488 36.1583 61.0488 35.8417 60.8536 35.6464L57.6716 32.4645C57.4763 32.2692 57.1597 32.2692 56.9645 32.4645C56.7692 32.6597 56.7692 32.9763 56.9645 33.1716L59.7929 36L56.9645 38.8284C56.7692 39.0237 56.7692 39.3403 56.9645 39.5355C57.1597 39.7308 57.4763 39.7308 57.6716 39.5355L60.8536 36.3536ZM49.5 36.5H60.5V35.5H49.5V36.5Z" fill="#2AA57D"/>
<rect x="64.5" y="16" width="111" height="40" rx="6" fill="#C2F8E7"/>
<rect x="71" y="22" width="28" height="28" rx="2" fill="#2AA57D"/>
<rect x="104" y="22" width="63" height="6" rx="3" fill="#2AA57D"/>
<rect x="104" y="33" width="63" height="6" rx="3" fill="#2AA57D"/>
<rect x="104" y="44" width="63" height="6" rx="3" fill="#2AA57D"/>
<path d="M179.5 35.5C179.224 35.5 179 35.7239 179 36C179 36.2761 179.224 36.5 179.5 36.5V35.5ZM190.854 36.3536C191.049 36.1583 191.049 35.8417 190.854 35.6464L187.672 32.4645C187.476 32.2692 187.16 32.2692 186.964 32.4645C186.769 32.6597 186.769 32.9763 186.964 33.1716L189.793 36L186.964 38.8284C186.769 39.0237 186.769 39.3403 186.964 39.5355C187.16 39.7308 187.476 39.7308 187.672 39.5355L190.854 36.3536ZM179.5 36.5H190.5V35.5H179.5V36.5Z" fill="#2AA57D"/>
<rect x="194.5" y="16" width="40" height="40" rx="6" fill="#EBFDF7"/>
<rect x="208" y="29" width="14" height="14" rx="7" stroke="#2AA57D" stroke-width="2"/>
</svg>
