<svg width="240" height="72" viewBox="0 0 240 72" fill="none" xmlns="http://www.w3.org/2000/svg">
<rect x="65" y="1" width="24" height="24" rx="12" fill="#A5F4DB"/>
<circle cx="77" cy="13" r="8.5" fill="#2AA57D" stroke="white"/>
<path d="M93 12.5C92.7239 12.5 92.5 12.7239 92.5 13C92.5 13.2761 92.7239 13.5 93 13.5V12.5ZM104.354 13.3536C104.549 13.1583 104.549 12.8417 104.354 12.6464L101.172 9.46447C100.976 9.2692 100.66 9.2692 100.464 9.46447C100.269 9.65973 100.269 9.97631 100.464 10.1716L103.293 13L100.464 15.8284C100.269 16.0237 100.269 16.3403 100.464 16.5355C100.66 16.7308 100.976 16.7308 101.172 16.5355L104.354 13.3536ZM93 13.5H104V12.5H93V13.5Z" fill="#2AA57D"/>
<rect x="108" y="1" width="24" height="24" rx="12" fill="#A5F4DB"/>
<circle cx="120" cy="13" r="8.5" fill="#2AA57D" stroke="white"/>
<path d="M136 12.5C135.724 12.5 135.5 12.7239 135.5 13C135.5 13.2761 135.724 13.5 136 13.5V12.5ZM147.354 13.3536C147.549 13.1583 147.549 12.8417 147.354 12.6464L144.172 9.46447C143.976 9.2692 143.66 9.2692 143.464 9.46447C143.269 9.65973 143.269 9.97631 143.464 10.1716L146.293 13L143.464 15.8284C143.269 16.0237 143.269 16.3403 143.464 16.5355C143.66 16.7308 143.976 16.7308 144.172 16.5355L147.354 13.3536ZM136 13.5H147V12.5H136V13.5Z" fill="#2AA57D"/>
<rect x="151" y="1" width="24" height="24" rx="12" fill="#C2F8E7"/>
<rect x="64.5" y="31" width="111" height="40" rx="6" fill="#C2F8E7"/>
<rect x="71" y="37" width="28" height="28" rx="2" fill="#2AA57D"/>
<rect x="104" y="37" width="63" height="6" rx="3" fill="#2AA57D"/>
<rect x="104" y="48" width="63" height="6" rx="3" fill="#2AA57D"/>
<rect x="104" y="59" width="63" height="6" rx="3" fill="#2AA57D"/>
</svg>
