<svg width="240" height="72" viewBox="0 0 240 72" fill="none" xmlns="http://www.w3.org/2000/svg">
<rect x="33" y="9" width="54" height="54" rx="6" fill="#F6F6F6"/>
<g clip-path="url(#clip0_1148_6970)">
<path d="M60.3829 38.7578C59.4154 38.7578 58.4908 38.7441 57.5633 38.7578C57.2472 38.7654 57.1507 38.6679 57.1047 38.3465C56.5735 34.6904 53.1914 31.962 49.6015 32.2682C49.5199 32.2682 49.4353 32.2682 49.3047 32.2682V31.8493C49.3047 27.5838 49.3047 23.3184 49.3047 19.0529C49.3047 17.17 50.4593 15.9924 52.295 15.9924H76.3719C78.2254 15.9924 79.3755 17.1746 79.3755 19.0818C79.3755 24.6046 79.3755 30.1268 79.3755 35.6486C79.3755 37.565 78.218 38.7487 76.3377 38.7487C73.1965 38.7487 70.0553 38.7487 66.9142 38.7487C66.7955 38.7397 66.6767 38.7655 66.5717 38.8229C66.4667 38.8803 66.3796 38.9671 66.3205 39.0731C65.0992 40.921 63.86 42.7567 62.6342 44.5999C62.5365 44.7697 62.4033 44.915 62.2442 45.0254C62.085 45.1358 61.904 45.2085 61.7141 45.2382C61.0018 45.3342 60.3948 44.7721 60.3904 43.9936C60.3815 42.4063 60.3904 40.8189 60.3904 39.2331L60.3829 38.7578ZM73.015 29.7821C73.0331 29.7096 73.045 29.6357 73.0506 29.5612C73.0506 27.0887 73.0595 24.6163 73.0506 22.1423C73.0506 21.37 72.5282 20.881 71.7669 20.8779C70.556 20.8779 69.345 20.8779 68.134 20.8779C67.1605 20.8779 66.7153 21.3349 66.7138 22.3495V29.7821H73.015ZM65.1496 31.4456H60.846C59.5103 31.4456 58.1747 31.4456 56.8391 31.4456C56.5833 31.4334 56.331 31.5098 56.1227 31.6626C55.9143 31.8154 55.7621 32.0357 55.6905 32.288C55.4248 33.132 56.0347 33.8754 57.0053 33.8754H73.2539C73.4034 33.8775 73.5526 33.8632 73.6991 33.8327C73.907 33.7857 74.0986 33.6817 74.2534 33.5316C74.4081 33.3816 74.5203 33.1912 74.5779 32.9808C74.6355 32.7705 74.6364 32.548 74.5804 32.3372C74.5244 32.1263 74.4137 31.935 74.2601 31.7838C73.9885 31.4989 73.6457 31.4425 73.2732 31.4441C70.5673 31.4491 67.86 31.4496 65.1511 31.4456H65.1496ZM63.5454 29.7897C63.5454 29.3327 63.5736 28.9092 63.5454 28.4963C63.5263 28.1887 63.3921 27.9005 63.1709 27.6922C62.9496 27.4838 62.6584 27.3712 62.3582 27.3782C61.0478 27.3599 59.7374 27.3629 58.427 27.3782C57.8957 27.3782 57.455 27.6554 57.3288 28.1795C57.2027 28.7035 57.2383 29.2458 57.2012 29.7897H63.5454Z" fill="#4E4E52"/>
<path d="M50.0708 55H42.7694C41.8433 55 41.3833 54.5293 41.3907 53.5711C41.3981 52.6129 41.3343 51.6334 41.459 50.6843C41.5934 49.6279 42.0987 48.6581 42.8802 47.9569C43.6616 47.2557 44.6654 46.8713 45.7033 46.8759C48.6328 46.8469 51.5622 46.8424 54.4917 46.8759C56.8899 46.9033 58.7405 48.8273 58.8043 51.2937C58.8251 52.0919 58.8176 52.8932 58.8043 53.6915C58.7939 54.5171 58.3042 55 57.4894 55.0016L50.0708 55Z" fill="#4E4E52"/>
<path d="M54.8376 39.5545C54.8376 40.8474 54.3373 42.0873 53.4467 43.0015C52.5561 43.9157 51.3482 44.4293 50.0887 44.4293C48.8292 44.4293 47.6213 43.9157 46.7308 43.0015C45.8402 42.0873 45.3398 40.8474 45.3398 39.5545C45.3398 38.2616 45.8402 37.0217 46.7308 36.1075C47.6213 35.1933 48.8292 34.6797 50.0887 34.6797C51.3482 34.6797 52.5561 35.1933 53.4467 36.1075C54.3373 37.0217 54.8376 38.2616 54.8376 39.5545Z" fill="#4E4E52"/>
</g>
<rect x="91" y="9" width="116" height="54" rx="6" fill="#F6F6F6"/>
<rect x="99" y="17" width="45" height="8" rx="4" fill="#4E4E52"/>
<rect x="99" y="32" width="100" height="8" rx="4" fill="#4E4E52"/>
<rect x="99" y="47" width="100" height="8" rx="4" fill="#4E4E52"/>
<defs>
<clipPath id="clip0_1148_6970">
<rect width="38" height="39" fill="white" transform="translate(41.3818 16)"/>
</clipPath>
</defs>
</svg>
