<svg width="240" height="62" viewBox="0 0 240 62" fill="none" xmlns="http://www.w3.org/2000/svg">
<rect x="18.5" y="0.5" width="36" height="36" rx="3" fill="#17619C"/>
<g clip-path="url(#clip0_1267_4622)">
<path d="M36.0054 10.501C38.978 10.501 41.9511 10.5024 44.9248 10.5052C45.1562 10.5015 45.3866 10.5361 45.6073 10.6075C46.1609 10.8029 46.4972 11.3296 46.498 11.9562C46.498 13.3954 46.498 14.8355 46.498 16.2747C46.498 19.4971 46.498 22.7189 46.498 25.9401C46.498 26.9114 45.9313 27.4993 44.9847 27.4993C38.9974 27.4993 33.0096 27.4993 27.0212 27.4993C26.0616 27.4993 25.498 26.9122 25.498 25.9292C25.498 21.3096 25.498 16.6902 25.498 12.0711C25.498 11.0772 26.0632 10.5018 27.0426 10.501H36.0054ZM26.6899 22.5274C26.7834 22.4578 26.8392 22.4175 26.8925 22.3756C27.9861 21.5262 29.0798 20.676 30.1735 19.825C30.8748 19.2782 31.6351 19.2379 32.3808 19.7227L35.5486 21.7683C35.8028 21.9319 35.9636 21.9092 36.1613 21.6845C36.286 21.5452 36.4101 21.4054 36.5337 21.2651C37.7438 19.8974 38.9537 18.5295 40.1633 17.1612C40.4093 16.8861 40.694 16.7025 41.0655 16.6815C41.5265 16.6547 41.8858 16.8492 42.163 17.2174C43.1583 18.523 44.1538 19.8287 45.1496 21.1343C45.1914 21.1888 45.2373 21.2399 45.3136 21.3297V12.0895C45.3136 11.754 45.2775 11.718 44.9494 11.718H27.0491C26.721 11.718 26.689 11.7549 26.689 12.0937V22.5274H26.6899ZM41.1492 17.8666C41.0721 17.9505 41.0204 18.0058 40.9712 18.062L37.0931 22.4443C36.4418 23.1807 35.6806 23.2831 34.8604 22.7572C33.8154 22.0828 32.7698 21.4094 31.7237 20.7367C31.4276 20.5463 31.1914 20.5581 30.9125 20.7753C29.5531 21.8321 28.1937 22.8886 26.8342 23.9448C26.7842 23.9783 26.7441 24.0252 26.7182 24.0803C26.6923 24.1355 26.6817 24.1968 26.6874 24.2576C26.694 24.8028 26.6874 25.348 26.6874 25.8923C26.6874 26.2555 26.7145 26.2832 27.0737 26.2832H44.9297C45.2816 26.2832 45.3103 26.253 45.3103 25.8864C45.3103 25.0972 45.3103 24.3071 45.3054 23.5179C45.3017 23.3971 45.2626 23.2802 45.193 23.1824C44.013 21.6174 42.8266 20.0557 41.634 18.4973C41.4789 18.296 41.3239 18.0947 41.1484 17.8666H41.1492Z" fill="white"/>
<path d="M34.2779 18.7203C33.8623 18.7209 33.4558 18.5955 33.11 18.3597C32.7642 18.124 32.4945 17.7887 32.3352 17.3962C32.1759 17.0036 32.1341 16.5716 32.2151 16.1548C32.296 15.7379 32.4962 15.3551 32.7901 15.0546C33.0841 14.7542 33.4586 14.5497 33.8663 14.467C34.274 14.3844 34.6965 14.4273 35.0803 14.5903C35.4641 14.7534 35.792 15.0293 36.0224 15.383C36.2527 15.7367 36.3753 16.1524 36.3745 16.5773C36.3748 16.8589 36.3208 17.1378 36.2155 17.398C36.1103 17.6582 35.9558 17.8946 35.7611 18.0936C35.5663 18.2927 35.3351 18.4505 35.0806 18.5581C34.826 18.6656 34.5533 18.7207 34.2779 18.7203ZM34.2886 15.643C34.1081 15.6402 33.9308 15.6922 33.7793 15.7926C33.6278 15.8929 33.5089 16.037 33.4375 16.2065C33.3662 16.3761 33.3457 16.5635 33.3787 16.7449C33.4117 16.9264 33.4966 17.0938 33.6228 17.2258C33.7489 17.3579 33.9105 17.4486 34.0872 17.4866C34.2638 17.5246 34.4475 17.508 34.615 17.4391C34.7824 17.3702 34.9261 17.252 35.0277 17.0994C35.1294 16.9469 35.1845 16.7669 35.1859 16.5824C35.1878 16.4604 35.166 16.3393 35.1218 16.2261C35.0775 16.1128 35.0118 16.0097 34.9284 15.9225C34.8449 15.8354 34.7454 15.7661 34.6356 15.7185C34.5258 15.671 34.4078 15.6462 34.2886 15.6455V15.643Z" fill="white"/>
</g>
<rect x="18.5" y="42.5" width="8.25" height="8" rx="1" fill="#D0E3F2"/>
<rect x="27.75" y="42.5" width="8.25" height="8" rx="1" fill="#17619C"/>
<rect x="37" y="42.5" width="8.25" height="8" rx="1" fill="#D0E3F2"/>
<rect x="46.25" y="42.5" width="8.25" height="8" rx="1" fill="#D0E3F2"/>
<rect x="18.5" y="56.5" width="36" height="5" rx="2" fill="#D0E3F2"/>
<rect x="60.5" y="0.5" width="36" height="36" rx="3" fill="#D0E3F2"/>
<rect x="60.5" y="42.5" width="36" height="19" rx="3" fill="#D0E3F2"/>
<rect x="102.5" y="0.5" width="36" height="19" rx="3" fill="#D0E3F2"/>
<rect x="102.5" y="25.5" width="36" height="36" rx="3" fill="#17619C"/>
<path d="M120.933 44.8C120.678 44.8 120.464 44.7136 120.291 44.5408C120.119 44.368 120.032 44.1544 120.033 43.9C120.033 43.645 120.119 43.4311 120.292 43.2583C120.465 43.0855 120.679 42.9994 120.933 43C121.188 43 121.402 43.0864 121.575 43.2592C121.748 43.432 121.834 43.6456 121.833 43.9C121.833 44.155 121.747 44.3689 121.574 44.5417C121.401 44.7145 121.187 44.8006 120.933 44.8ZM117.333 44.8C117.078 44.8 116.864 44.7136 116.691 44.5408C116.519 44.368 116.432 44.1544 116.433 43.9C116.433 43.645 116.519 43.4311 116.692 43.2583C116.865 43.0855 117.079 42.9994 117.333 43C117.588 43 117.802 43.0864 117.975 43.2592C118.148 43.432 118.234 43.6456 118.233 43.9C118.233 44.155 118.147 44.3689 117.974 44.5417C117.801 44.7145 117.587 44.8006 117.333 44.8ZM124.533 44.8C124.278 44.8 124.064 44.7136 123.891 44.5408C123.719 44.368 123.632 44.1544 123.633 43.9C123.633 43.645 123.719 43.4311 123.892 43.2583C124.065 43.0855 124.279 42.9994 124.533 43C124.788 43 125.002 43.0864 125.175 43.2592C125.348 43.432 125.434 43.6456 125.433 43.9C125.433 44.155 125.347 44.3689 125.174 44.5417C125.001 44.7145 124.787 44.8006 124.533 44.8ZM120.933 48.4C120.678 48.4 120.464 48.3136 120.291 48.1408C120.119 47.968 120.032 47.7544 120.033 47.5C120.033 47.245 120.119 47.0311 120.292 46.8583C120.465 46.6855 120.679 46.5994 120.933 46.6C121.188 46.6 121.402 46.6864 121.575 46.8592C121.748 47.032 121.834 47.2456 121.833 47.5C121.833 47.755 121.747 47.9689 121.574 48.1417C121.401 48.3145 121.187 48.4006 120.933 48.4ZM117.333 48.4C117.078 48.4 116.864 48.3136 116.691 48.1408C116.519 47.968 116.432 47.7544 116.433 47.5C116.433 47.245 116.519 47.0311 116.692 46.8583C116.865 46.6855 117.079 46.5994 117.333 46.6C117.588 46.6 117.802 46.6864 117.975 46.8592C118.148 47.032 118.234 47.2456 118.233 47.5C118.233 47.755 118.147 47.9689 117.974 48.1417C117.801 48.3145 117.587 48.4006 117.333 48.4ZM124.533 48.4C124.278 48.4 124.064 48.3136 123.891 48.1408C123.719 47.968 123.632 47.7544 123.633 47.5C123.633 47.245 123.719 47.0311 123.892 46.8583C124.065 46.6855 124.279 46.5994 124.533 46.6C124.788 46.6 125.002 46.6864 125.175 46.8592C125.348 47.032 125.434 47.2456 125.433 47.5C125.433 47.755 125.347 47.9689 125.174 48.1417C125.001 48.3145 124.787 48.4006 124.533 48.4ZM114.633 52C114.138 52 113.714 51.8236 113.361 51.4708C113.009 51.118 112.832 50.6944 112.833 50.2V37.6C112.833 37.105 113.009 36.6811 113.362 36.3283C113.715 35.9755 114.139 35.7994 114.633 35.8H115.533V34H117.333V35.8H124.533V34H126.333V35.8H127.233C127.728 35.8 128.152 35.9764 128.505 36.3292C128.858 36.682 129.034 37.1056 129.033 37.6V50.2C129.033 50.695 128.857 51.1189 128.504 51.4717C128.151 51.8245 127.727 52.0006 127.233 52H114.633ZM114.633 50.2H127.233V41.2H114.633V50.2Z" fill="white"/>
<rect x="144.5" y="0.5" width="77" height="61" rx="3" fill="#F2F9FF"/>
<rect x="154.5" y="7.5" width="25" height="13" rx="2" fill="#D0E3F2"/>
<rect x="154.5" y="24.5" width="57" height="13" rx="2" fill="#D0E3F2"/>
<rect x="154.5" y="41.5" width="57" height="13" rx="2" fill="#D0E3F2"/>
<defs>
<clipPath id="clip0_1267_4622">
<rect width="21" height="17" fill="white" transform="translate(25.5 10.5)"/>
</clipPath>
</defs>
</svg>
