<svg width="697" height="314" viewBox="0 0 697 314" fill="none" xmlns="http://www.w3.org/2000/svg">
<rect width="697" height="314" rx="24" fill="#FFE9B0"/>
<path d="M554 89L428 158" stroke="white"/>
<path d="M552 232L428 158" stroke="white"/>
<path d="M590 158H428" stroke="white"/>
<path d="M442.209 51.0049C443.015 51.0094 443.819 51.0169 444.622 51.0303L444.613 51.6299C445.414 51.6432 446.213 51.6614 447.011 51.6836L447.026 51.084C447.829 51.1063 448.63 51.1348 449.43 51.166L449.407 51.7637C450.211 51.795 451.012 51.8309 451.812 51.8711L451.842 51.2725C452.644 51.3128 453.445 51.357 454.244 51.4062L454.209 52.0049C455.007 52.054 455.803 52.1081 456.598 52.166L456.64 51.5674C457.445 51.6261 458.248 51.6911 459.05 51.7588L459 52.3545C459.799 52.4219 460.596 52.494 461.391 52.5703L461.447 51.9746C462.245 52.0511 463.041 52.1295 463.834 52.2148V52.2158L463.77 52.8125C464.57 52.8986 465.37 52.989 466.166 53.084L466.236 52.4893C467.035 52.5845 467.832 52.6849 468.626 52.7891L468.549 53.3818C469.341 53.4857 470.131 53.5944 470.919 53.707L471.003 53.1133C471.802 53.2275 472.598 53.3466 473.393 53.4697L473.302 54.0615C474.095 54.1844 474.886 54.3117 475.674 54.4434L475.771 53.8535C476.562 53.9856 477.35 54.1209 478.136 54.2617L478.03 54.8516C478.822 54.9935 479.612 55.1402 480.398 55.291L480.511 54.7031C481.301 54.8547 482.089 55.0105 482.874 55.1709L482.755 55.7578C483.538 55.9177 484.319 56.0823 485.097 56.251L485.223 55.665C486.011 55.8361 486.797 56.0115 487.58 56.1914L487.446 56.7754C488.228 56.9551 489.008 57.1396 489.784 57.3281L489.925 56.7461C490.704 56.9352 491.48 57.1283 492.253 57.3262L492.104 57.9062C492.884 58.1058 493.661 58.3102 494.435 58.5186L494.589 57.9395C495.367 58.1489 496.141 58.3638 496.912 58.582L496.749 59.1572C497.518 59.3747 498.284 59.5971 499.046 59.8232L499.215 59.248C499.989 59.4779 500.76 59.7134 501.528 59.9521L501.352 60.5234C502.117 60.7615 502.88 61.0042 503.639 61.251L503.823 60.6816C504.585 60.9293 505.344 61.1801 506.099 61.4365H506.1L505.907 62.0049C506.67 62.2639 507.429 62.5271 508.185 62.7949L508.384 62.2314C509.142 62.5003 509.897 62.7722 510.647 63.0498L510.44 63.6123C511.19 63.8896 511.936 64.1711 512.679 64.457L512.894 63.8984C513.648 64.1889 514.397 64.484 515.144 64.7832L514.921 65.3389C515.664 65.637 516.403 65.9393 517.139 66.2461L517.369 65.6924C518.111 66.002 518.848 66.3174 519.582 66.6357L519.344 67.1846C520.082 67.5047 520.816 67.8284 521.545 68.1572L521.791 67.6104C522.523 67.9403 523.25 68.2766 523.973 68.6152L523.72 69.1572C524.447 69.4976 525.169 69.8424 525.887 70.1914L526.148 69.6523C526.874 70.0049 527.594 70.3623 528.31 70.7236L528.04 71.2588C528.753 71.6187 529.462 71.9822 530.165 72.3506L530.442 71.8203C531.158 72.1952 531.869 72.5744 532.575 72.958L532.289 73.4844C532.994 73.8672 533.693 74.2541 534.388 74.6455L534.682 74.124C535.381 74.5181 536.075 74.9166 536.764 75.3193L536.462 75.8359C537.157 76.2422 537.846 76.6535 538.53 77.0684L538.841 76.5557C539.528 76.9723 540.21 77.3932 540.886 77.8184L540.567 78.3252C541.246 78.7521 541.919 79.1837 542.587 79.6191L542.914 79.1172C543.59 79.5577 544.259 80.003 544.923 80.4521L544.588 80.9482C545.249 81.3955 545.904 81.8471 546.554 82.3027L546.897 81.8115C547.559 82.2759 548.214 82.7458 548.863 83.2188L548.513 83.7031C549.16 84.1746 549.801 84.651 550.436 85.1309L550.798 84.6523V84.6514C551.439 85.1363 552.073 85.6277 552.701 86.1211L552.332 86.5918C552.964 87.088 553.59 87.5881 554.209 88.0928L554.587 87.6279C555.209 88.1348 555.823 88.6469 556.431 89.1621L556.045 89.6191C556.658 90.1389 557.265 90.6633 557.864 91.1914L558.259 90.7422C558.863 91.2743 559.46 91.8092 560.05 92.3496L559.646 92.792C560.235 93.3327 560.818 93.8778 561.393 94.4268L561.805 93.9941C562.388 94.5515 562.966 95.1121 563.534 95.6777L563.112 96.1025C563.678 96.6654 564.236 97.2328 564.786 97.8037L565.217 97.3867C565.778 97.9688 566.329 98.5562 566.874 99.1465L566.436 99.5518C566.978 100.14 567.512 100.732 568.038 101.328L568.486 100.932C569.019 101.535 569.544 102.142 570.06 102.754L569.603 103.141C570.119 103.753 570.628 104.37 571.127 104.99L571.593 104.615C572.096 105.24 572.591 105.869 573.076 106.502L572.602 106.866C573.09 107.503 573.57 108.144 574.04 108.789L574.523 108.436C574.997 109.084 575.459 109.738 575.913 110.395L575.423 110.735C575.879 111.394 576.326 112.057 576.763 112.724L577.262 112.396C577.703 113.068 578.136 113.744 578.558 114.424L578.048 114.74C578.469 115.42 578.88 116.102 579.281 116.789L579.798 116.487C580.204 117.183 580.598 117.882 580.983 118.585L580.46 118.873C580.843 119.572 581.217 120.275 581.579 120.981L582.11 120.708C582.478 121.425 582.837 122.144 583.184 122.868L582.644 123.128C582.987 123.847 583.32 124.569 583.643 125.294L584.189 125.051C584.516 125.787 584.831 126.527 585.136 127.27L584.583 127.496C584.885 128.234 585.176 128.975 585.456 129.72L586.015 129.509C586.298 130.261 586.57 131.016 586.83 131.775L586.265 131.97C586.523 132.724 586.769 133.482 587.004 134.242L587.576 134.065C587.813 134.832 588.037 135.603 588.25 136.376L587.674 136.535C587.885 137.303 588.085 138.075 588.272 138.849L588.853 138.707C589.042 139.487 589.218 140.27 589.383 141.056L588.799 141.179C588.962 141.958 589.113 142.739 589.252 143.523L589.841 143.419C589.981 144.209 590.11 145.002 590.225 145.798V145.799L589.631 145.885C589.744 146.671 589.846 147.459 589.935 148.25L590.528 148.184C590.618 148.981 590.693 149.781 590.757 150.583L590.162 150.631C590.225 151.422 590.276 152.216 590.314 153.012L590.91 152.982C590.948 153.783 590.975 154.586 590.988 155.391L590.391 155.4C590.397 155.8 590.4 156.199 590.4 156.6C590.4 157 590.397 157.401 590.391 157.8L590.988 157.808C590.975 158.613 590.948 159.415 590.91 160.216L590.314 160.188C590.276 160.984 590.225 161.778 590.162 162.569L590.757 162.615C590.693 163.418 590.618 164.218 590.528 165.016L589.935 164.949C589.846 165.74 589.744 166.529 589.631 167.315L590.225 167.401C590.11 168.197 589.981 168.99 589.841 169.78L589.252 169.677C589.113 170.461 588.962 171.243 588.799 172.021L589.383 172.144C589.218 172.929 589.042 173.712 588.853 174.492L588.272 174.352C588.085 175.126 587.885 175.897 587.674 176.665L588.25 176.823C588.037 177.596 587.813 178.367 587.576 179.134L587.004 178.958C586.769 179.718 586.523 180.476 586.265 181.23L586.83 181.424C586.57 182.183 586.298 182.938 586.015 183.69L585.456 183.48C585.176 184.225 584.885 184.966 584.583 185.703L585.136 185.929C584.831 186.672 584.516 187.412 584.189 188.148L583.643 187.905C583.32 188.631 582.987 189.353 582.644 190.072L583.184 190.33C582.837 191.054 582.479 191.774 582.111 192.491L581.579 192.219C581.217 192.925 580.843 193.628 580.46 194.327L580.983 194.614C580.598 195.317 580.204 196.017 579.798 196.712L579.281 196.411C578.88 197.098 578.469 197.781 578.048 198.46L578.558 198.775C578.136 199.456 577.703 200.131 577.262 200.804L576.763 200.477C576.326 201.143 575.879 201.806 575.423 202.465L575.913 202.805C575.459 203.461 574.996 204.114 574.523 204.763L574.04 204.41C573.57 205.055 573.09 205.696 572.602 206.333L573.076 206.696C572.591 207.329 572.096 207.959 571.593 208.584L571.127 208.21C570.628 208.83 570.119 209.447 569.603 210.06L570.061 210.445C569.545 211.057 569.019 211.664 568.486 212.268L568.038 211.872C567.512 212.468 566.978 213.06 566.436 213.647L566.874 214.053C566.329 214.643 565.778 215.23 565.217 215.812L564.786 215.396C564.236 215.967 563.678 216.534 563.112 217.097L563.534 217.521C562.966 218.087 562.388 218.648 561.805 219.205L561.393 218.773C560.818 219.322 560.235 219.867 559.646 220.408L560.05 220.85C559.46 221.39 558.863 221.925 558.259 222.457L557.864 222.009C557.265 222.537 556.658 223.061 556.045 223.581L556.431 224.037C555.823 224.552 555.208 225.064 554.587 225.57L554.209 225.107C553.59 225.612 552.964 226.112 552.332 226.608L552.701 227.078C552.073 227.572 551.438 228.062 550.797 228.547L550.436 228.069C549.801 228.549 549.159 229.025 548.512 229.497L548.863 229.98C548.214 230.453 547.559 230.923 546.897 231.388L546.554 230.897C545.904 231.353 545.249 231.805 544.588 232.252L544.922 232.747C544.258 233.196 543.589 233.642 542.914 234.082L542.587 233.581C541.919 234.016 541.246 234.448 540.567 234.875L540.885 235.38C540.209 235.805 539.528 236.227 538.841 236.644L538.53 236.132C537.846 236.547 537.157 236.958 536.462 237.364L536.764 237.88C536.075 238.283 535.381 238.681 534.682 239.075L534.388 238.555C533.693 238.946 532.994 239.333 532.289 239.716L532.574 240.241C531.869 240.625 531.158 241.004 530.442 241.379L530.165 240.849C529.461 241.217 528.753 241.581 528.04 241.941L528.31 242.476C527.594 242.837 526.874 243.194 526.148 243.547L525.887 243.009C525.169 243.358 524.447 243.703 523.72 244.043L523.973 244.584C523.25 244.923 522.523 245.258 521.791 245.588L521.545 245.042C520.816 245.371 520.082 245.696 519.344 246.016L519.582 246.563C518.848 246.882 518.111 247.197 517.369 247.507L517.139 246.954C516.403 247.261 515.664 247.563 514.921 247.861L515.144 248.416C514.397 248.715 513.648 249.01 512.894 249.301L512.679 248.743C511.936 249.029 511.19 249.311 510.44 249.588L510.647 250.149C509.897 250.427 509.142 250.699 508.384 250.968L508.185 250.404C507.429 250.672 506.67 250.936 505.907 251.195L506.099 251.763C505.344 252.019 504.585 252.27 503.823 252.518L503.639 251.949C502.88 252.196 502.117 252.439 501.352 252.677L501.528 253.247C500.76 253.486 499.989 253.721 499.215 253.951L499.046 253.377C498.284 253.603 497.518 253.825 496.749 254.042L496.912 254.617C496.141 254.835 495.367 255.05 494.589 255.26L494.435 254.682C493.661 254.89 492.884 255.094 492.104 255.294L492.253 255.873C491.48 256.071 490.704 256.264 489.925 256.453L489.784 255.872C489.008 256.061 488.228 256.245 487.446 256.425L487.58 257.008C486.797 257.188 486.011 257.363 485.223 257.534L485.097 256.949C484.319 257.118 483.538 257.282 482.755 257.442L482.874 258.028C482.089 258.189 481.301 258.345 480.511 258.496L480.398 257.909C479.612 258.06 478.822 258.206 478.03 258.348L478.136 258.937C477.35 259.077 476.562 259.214 475.771 259.346L475.674 258.756C474.886 258.888 474.095 259.016 473.302 259.139L473.393 259.729C472.598 259.853 471.802 259.972 471.003 260.086L470.919 259.493C470.131 259.606 469.341 259.714 468.549 259.817L468.626 260.41C467.832 260.514 467.035 260.615 466.236 260.71L466.166 260.116C465.37 260.211 464.57 260.302 463.77 260.388L463.834 260.984C463.041 261.07 462.245 261.148 461.447 261.225L461.391 260.63C460.596 260.706 459.799 260.778 459 260.846L459.05 261.44C458.248 261.508 457.445 261.573 456.64 261.632L456.598 261.034C455.803 261.092 455.007 261.146 454.209 261.195L454.245 261.792C453.446 261.841 452.645 261.885 451.842 261.926L451.813 261.329C451.013 261.369 450.211 261.405 449.407 261.437L449.43 262.033C448.63 262.064 447.829 262.092 447.026 262.114L447.011 261.517C446.213 261.539 445.414 261.557 444.613 261.57L444.622 262.168C443.819 262.181 443.015 262.19 442.209 262.194L442.207 261.597C441.805 261.599 441.403 261.6 441 261.6C440.597 261.6 440.195 261.599 439.793 261.597L439.79 262.194C438.984 262.19 438.18 262.181 437.377 262.168L437.387 261.57C436.586 261.557 435.787 261.539 434.989 261.517L434.973 262.114C434.17 262.092 433.369 262.064 432.569 262.033L432.593 261.437C431.789 261.405 430.988 261.369 430.188 261.329L430.157 261.926C429.355 261.885 428.554 261.841 427.755 261.792L427.791 261.195C426.993 261.146 426.197 261.092 425.402 261.034L425.359 261.632C424.554 261.573 423.751 261.508 422.949 261.44L423 260.846C422.201 260.778 421.404 260.706 420.609 260.63L420.552 261.225C419.754 261.148 418.959 261.07 418.165 260.984L418.23 260.388C417.43 260.302 416.63 260.211 415.834 260.116L415.763 260.71C414.964 260.615 414.167 260.514 413.373 260.41L413.451 259.817C412.659 259.714 411.869 259.606 411.081 259.493L410.996 260.086C410.197 259.972 409.401 259.853 408.606 259.729L408.698 259.139C407.905 259.016 407.114 258.888 406.326 258.756L406.228 259.346C405.437 259.214 404.649 259.077 403.863 258.937L403.97 258.348C403.178 258.206 402.388 258.06 401.602 257.909L401.488 258.496C400.698 258.345 399.91 258.189 399.125 258.028L399.245 257.442C398.462 257.282 397.681 257.118 396.903 256.949L396.776 257.534C395.988 257.363 395.202 257.188 394.419 257.008L394.554 256.425C393.772 256.245 392.992 256.061 392.216 255.872L392.074 256.453C391.295 256.264 390.519 256.071 389.746 255.873L389.896 255.294C389.116 255.094 388.339 254.89 387.565 254.682L387.41 255.26C386.633 255.05 385.858 254.835 385.087 254.617L385.251 254.042C384.482 253.825 383.716 253.603 382.954 253.377L382.784 253.951C382.01 253.721 381.239 253.486 380.471 253.247L380.648 252.677C379.883 252.439 379.12 252.196 378.361 251.949L378.176 252.518C377.414 252.27 376.655 252.019 375.9 251.763L376.093 251.195C375.33 250.936 374.571 250.672 373.815 250.404L373.615 250.968C372.857 250.699 372.102 250.427 371.352 250.149L371.56 249.588C370.81 249.311 370.064 249.029 369.321 248.743L369.105 249.301C368.351 249.01 367.602 248.715 366.855 248.416L367.079 247.861C366.336 247.563 365.597 247.261 364.861 246.954L364.63 247.507C363.888 247.197 363.151 246.882 362.417 246.563L362.656 246.016C361.918 245.696 361.184 245.371 360.455 245.042L360.208 245.588C359.476 245.258 358.749 244.923 358.025 244.584L358.28 244.043C357.553 243.703 356.831 243.358 356.113 243.009L355.851 243.547C355.125 243.194 354.405 242.837 353.689 242.476L353.96 241.941C353.247 241.581 352.539 241.217 351.835 240.849L351.557 241.379C350.841 241.004 350.13 240.625 349.424 240.241L349.711 239.716C349.006 239.333 348.307 238.946 347.612 238.555L347.317 239.075C346.618 238.681 345.924 238.283 345.235 237.88L345.538 237.364C344.843 236.958 344.154 236.547 343.47 236.132L343.158 236.644C342.471 236.227 341.79 235.805 341.114 235.38L341.433 234.875C340.754 234.448 340.081 234.016 339.413 233.581L339.085 234.082C338.41 233.642 337.741 233.196 337.077 232.747L337.412 232.252C336.751 231.805 336.096 231.353 335.446 230.897L335.102 231.388C334.439 230.923 333.784 230.453 333.135 229.979L333.487 229.497C332.84 229.026 332.199 228.549 331.564 228.069L331.202 228.547C330.561 228.062 329.926 227.572 329.298 227.078L329.668 226.608C329.036 226.112 328.41 225.612 327.791 225.107L327.412 225.57C326.791 225.064 326.176 224.552 325.568 224.037L325.955 223.581C325.342 223.061 324.735 222.537 324.136 222.009L323.74 222.457C323.136 221.925 322.539 221.39 321.949 220.85L322.354 220.408C321.765 219.867 321.182 219.322 320.607 218.773L320.194 219.205C319.611 218.648 319.033 218.087 318.465 217.521L318.888 217.097C318.322 216.534 317.764 215.967 317.214 215.396L316.782 215.812C316.221 215.23 315.67 214.643 315.125 214.053L315.564 213.647C315.022 213.06 314.488 212.468 313.962 211.872L313.513 212.268C312.98 211.664 312.454 211.057 311.938 210.445L312.397 210.06C311.881 209.447 311.372 208.83 310.873 208.21L310.406 208.584C309.903 207.959 309.408 207.329 308.923 206.696L309.398 206.333C308.91 205.696 308.43 205.055 307.96 204.41L307.476 204.763C307.003 204.114 306.54 203.461 306.086 202.805L306.577 202.465C306.121 201.806 305.674 201.143 305.237 200.477L304.737 200.804C304.296 200.131 303.863 199.456 303.441 198.775L303.952 198.46C303.531 197.781 303.12 197.098 302.719 196.411L302.201 196.712C301.795 196.017 301.401 195.317 301.016 194.614L301.54 194.327C301.157 193.628 300.783 192.925 300.421 192.219L299.888 192.491C299.52 191.774 299.162 191.054 298.815 190.33L299.356 190.072C299.013 189.353 298.68 188.631 298.357 187.905L297.81 188.148C297.483 187.412 297.168 186.672 296.863 185.929L297.417 185.703C297.115 184.966 296.824 184.225 296.544 183.48L295.984 183.69C295.701 182.938 295.429 182.183 295.169 181.424L295.735 181.23C295.477 180.476 295.231 179.719 294.996 178.958L294.423 179.134C294.186 178.367 293.962 177.596 293.749 176.823L294.326 176.665C294.115 175.897 293.915 175.126 293.728 174.352L293.146 174.492C292.957 173.712 292.781 172.929 292.616 172.144L293.201 172.021C293.038 171.243 292.887 170.461 292.748 169.677L292.158 169.78C292.018 168.99 291.889 168.197 291.774 167.401L292.369 167.315C292.256 166.529 292.154 165.74 292.065 164.949L291.471 165.016C291.381 164.218 291.306 163.418 291.242 162.616L291.838 162.569C291.775 161.778 291.724 160.984 291.686 160.188L291.089 160.217C291.051 159.416 291.024 158.613 291.011 157.808L291.609 157.8L291.6 156.6C291.6 156.199 291.603 155.8 291.609 155.4L291.011 155.391C291.024 154.586 291.051 153.783 291.089 152.982L291.686 153.012C291.724 152.216 291.775 151.422 291.838 150.631L291.242 150.583C291.306 149.781 291.381 148.981 291.471 148.184L292.065 148.25C292.154 147.459 292.256 146.671 292.369 145.885L291.775 145.799L291.774 145.798C291.889 145.002 292.018 144.209 292.158 143.419L292.748 143.523C292.887 142.739 293.038 141.958 293.201 141.179L292.616 141.056C292.781 140.27 292.957 139.487 293.146 138.707L293.728 138.849C293.915 138.075 294.115 137.303 294.326 136.535L293.749 136.376C293.962 135.603 294.186 134.832 294.423 134.065L294.996 134.242C295.231 133.482 295.477 132.724 295.735 131.97L295.169 131.775C295.429 131.016 295.701 130.261 295.984 129.509L296.544 129.72C296.824 128.976 297.115 128.235 297.417 127.497L296.863 127.271C297.168 126.527 297.483 125.787 297.81 125.051L298.357 125.294C298.68 124.569 299.013 123.847 299.356 123.128L298.815 122.868C299.162 122.144 299.521 121.425 299.889 120.708L300.421 120.981C300.783 120.275 301.157 119.572 301.54 118.873L301.016 118.585C301.401 117.882 301.796 117.182 302.202 116.486L302.719 116.789C303.12 116.102 303.531 115.42 303.952 114.74L303.441 114.424C303.863 113.744 304.296 113.068 304.737 112.396L305.237 112.724C305.674 112.057 306.121 111.394 306.577 110.735L306.086 110.395C306.54 109.738 307.002 109.084 307.476 108.436L307.96 108.789C308.43 108.144 308.91 107.503 309.398 106.866L308.923 106.502C309.408 105.869 309.903 105.24 310.406 104.615L310.873 104.99C311.372 104.37 311.881 103.753 312.397 103.141L311.939 102.754C312.455 102.142 312.98 101.535 313.513 100.932L313.962 101.328C314.488 100.732 315.022 100.14 315.564 99.5518L315.125 99.1465C315.67 98.5562 316.221 97.9688 316.782 97.3867L317.214 97.8037C317.764 97.2328 318.322 96.6654 318.888 96.1025L318.465 95.6777C319.033 95.1121 319.611 94.5515 320.194 93.9941L320.607 94.4268C321.182 93.8779 321.765 93.3327 322.354 92.792L321.949 92.3496C322.539 91.8092 323.136 91.2743 323.74 90.7422L324.136 91.1914C324.735 90.6633 325.342 90.1389 325.955 89.6191L325.568 89.1621C326.176 88.6469 326.791 88.1348 327.412 87.6279L327.791 88.0928C328.41 87.5881 329.036 87.0871 329.668 86.5908L329.298 86.1211C329.926 85.6277 330.56 85.1363 331.201 84.6514L331.202 84.6523L331.564 85.1309C332.199 84.6509 332.841 84.1747 333.488 83.7031L333.136 83.2188C333.785 82.7458 334.44 82.2759 335.102 81.8115L335.446 82.3027C336.096 81.847 336.751 81.3955 337.412 80.9482L337.076 80.4521C337.74 80.003 338.409 79.5577 339.085 79.1172L339.413 79.6191C340.081 79.1837 340.754 78.7521 341.433 78.3252L341.113 77.8184C341.789 77.3932 342.471 76.9723 343.158 76.5557L343.47 77.0684C344.154 76.6535 344.843 76.2422 345.538 75.8359L345.235 75.3193C345.924 74.9166 346.618 74.5181 347.317 74.124L347.612 74.6455C348.307 74.2541 349.006 73.8672 349.711 73.4844L349.425 72.958C350.131 72.5745 350.841 72.1951 351.557 71.8203L351.835 72.3506C352.538 71.9821 353.247 71.6177 353.96 71.2578L353.689 70.7236C354.405 70.3623 355.125 70.0049 355.851 69.6523L356.113 70.1914C356.831 69.8424 357.553 69.4976 358.28 69.1572L358.026 68.6143C358.749 68.2757 359.476 67.9403 360.208 67.6104L360.455 68.1572C361.184 67.8284 361.918 67.5047 362.656 67.1846L362.417 66.6357C363.151 66.3174 363.888 66.002 364.63 65.6924L364.861 66.2461C365.597 65.9393 366.336 65.637 367.079 65.3389L366.855 64.7832C367.602 64.484 368.351 64.1889 369.105 63.8984L369.321 64.457C370.064 64.1711 370.81 63.8896 371.56 63.6123L371.352 63.0498C372.102 62.7722 372.857 62.5003 373.615 62.2314L373.815 62.7949C374.571 62.5271 375.33 62.2639 376.093 62.0049L375.9 61.4365C376.655 61.1801 377.414 60.9293 378.176 60.6816L378.361 61.251C379.12 61.0042 379.883 60.7615 380.648 60.5234L380.471 59.9521C381.239 59.7134 382.01 59.4779 382.784 59.248L382.954 59.8232C383.716 59.5971 384.482 59.3747 385.251 59.1572L385.087 58.582C385.858 58.3638 386.633 58.1489 387.41 57.9395L387.565 58.5186C388.339 58.3102 389.116 58.1058 389.896 57.9062L389.746 57.3262C390.519 57.1283 391.295 56.9352 392.074 56.7461L392.216 57.3281C392.992 57.1396 393.772 56.9551 394.554 56.7754L394.419 56.1914C395.202 56.0115 395.988 55.8361 396.776 55.665L396.903 56.251C397.681 56.0823 398.462 55.9177 399.245 55.7578L399.125 55.1709C399.91 55.0105 400.698 54.8547 401.488 54.7031L401.602 55.291C402.388 55.1402 403.178 54.9935 403.97 54.8516L403.863 54.2617C404.649 54.1209 405.437 53.9856 406.228 53.8535L406.326 54.4434C407.114 54.3117 407.905 54.1844 408.698 54.0615L408.606 53.4697C409.401 53.3466 410.197 53.2275 410.996 53.1133L411.081 53.707C411.869 53.5944 412.659 53.4857 413.451 53.3818L413.373 52.7891C414.167 52.6849 414.964 52.5845 415.763 52.4893L415.834 53.084C416.63 52.989 417.43 52.8986 418.23 52.8125L418.166 52.2158L418.165 52.2148C418.958 52.1295 419.754 52.0511 420.552 51.9746L420.609 52.5703C421.404 52.494 422.201 52.4219 423 52.3545L422.949 51.7588C423.751 51.6911 424.554 51.6261 425.359 51.5674L425.402 52.166C426.197 52.1081 426.993 52.054 427.791 52.0049L427.754 51.4062C428.553 51.357 429.354 51.3128 430.157 51.2725L430.187 51.8711C430.987 51.8309 431.789 51.795 432.593 51.7637L432.569 51.166C433.369 51.1348 434.17 51.1063 434.973 51.084L434.989 51.6836C435.787 51.6614 436.586 51.6432 437.387 51.6299L437.377 51.0303C438.18 51.0169 438.984 51.0094 439.79 51.0049L439.793 51.6035C440.195 51.6013 440.597 51.5996 441 51.5996C441.403 51.5996 441.805 51.6013 442.207 51.6035L442.209 51.0049Z" stroke="#17619C" stroke-width="1.2" stroke-dasharray="2.4 2.4"/>
<g filter="url(#filter0_d_1188_5113)">
<rect x="68" y="70" width="331.2" height="145.2" rx="7.2" fill="#B58300"/>
<rect x="89.5996" y="91.6" width="19.2" height="19.2" rx="9.6" fill="#6495BD"/>
<circle cx="99.2" cy="101.2" r="6.8" fill="#17619C" stroke="white" stroke-width="0.8"/>
<path d="M113.6 100.6C113.268 100.6 113 100.869 113 101.2C113 101.531 113.268 101.8 113.6 101.8V100.6ZM162.024 101.624C162.258 101.39 162.258 101.01 162.024 100.776L158.205 96.9573C157.971 96.723 157.591 96.723 157.357 96.9573C157.123 97.1916 157.123 97.5715 157.357 97.8058L160.751 101.2L157.357 104.594C157.123 104.828 157.123 105.208 157.357 105.443C157.591 105.677 157.971 105.677 158.205 105.443L162.024 101.624ZM113.6 101.8H161.6V100.6H113.6V101.8Z" fill="#17619C"/>
<rect x="166.399" y="91.6" width="19.2" height="19.2" rx="9.6" fill="#6495BD"/>
<circle cx="175.999" cy="101.2" r="6.8" fill="#17619C" stroke="white" stroke-width="0.8"/>
<path d="M190.399 100.6C190.068 100.6 189.799 100.869 189.799 101.2C189.799 101.531 190.068 101.8 190.399 101.8V100.6ZM238.824 101.624C239.058 101.39 239.058 101.01 238.824 100.776L235.005 96.9573C234.771 96.723 234.391 96.723 234.157 96.9573C233.922 97.1916 233.922 97.5715 234.157 97.8058L237.551 101.2L234.157 104.594C233.922 104.828 233.922 105.208 234.157 105.443C234.391 105.677 234.771 105.677 235.005 105.443L238.824 101.624ZM190.399 101.8H238.399V100.6H190.399V101.8Z" fill="#17619C"/>
<rect x="243.199" y="91.6" width="19.2" height="19.2" rx="9.6" fill="#94B6D1"/>
<rect x="291.199" y="92.8" width="38.4" height="16.8" rx="3.6" fill="#17619C"/>
<rect x="339.199" y="92.8" width="38.4" height="16.8" rx="3.6" fill="#17619C"/>
<rect x="89.5996" y="120.4" width="43.2" height="22.8" rx="3.6" fill="#94B6D1"/>
<rect x="89.5996" y="150.4" width="43.2" height="43.2" rx="3.6" fill="#17619C"/>
<path d="M111.2 161.4C105.91 161.4 101.6 165.71 101.6 171C101.6 176.29 105.91 180.6 111.2 180.6C116.489 180.6 120.8 176.29 120.8 171C120.8 165.71 116.489 161.4 111.2 161.4ZM115.788 168.792L110.345 174.235C110.211 174.37 110.028 174.446 109.836 174.446C109.644 174.446 109.462 174.37 109.328 174.235L106.611 171.518C106.332 171.24 106.332 170.779 106.611 170.501C106.889 170.222 107.35 170.222 107.628 170.501L109.836 172.709L114.771 167.774C115.049 167.496 115.51 167.496 115.788 167.774C116.067 168.053 116.067 168.504 115.788 168.792Z" fill="white"/>
<rect x="140" y="120.4" width="43.2" height="43.2" rx="3.6" fill="#94B6D1"/>
<rect x="140" y="170.8" width="43.2" height="22.8" rx="3.6" fill="#94B6D1"/>
<rect x="192.8" y="120.4" width="184.8" height="73.2" rx="3.6" fill="#F2F9FF"/>
<rect x="202.4" y="130" width="66" height="14.8" rx="2.4" fill="#94B6D1"/>
<rect x="202.4" y="149.6" width="166.8" height="14.8" rx="2.4" fill="#94B6D1"/>
<rect x="202.4" y="169.2" width="166.8" height="14.8" rx="2.4" fill="#94B6D1"/>
</g>
<g filter="url(#filter1_d_1188_5113)">
<rect x="81" y="83" width="331.2" height="145.2" rx="7.2" fill="#E8A800"/>
<rect x="102.6" y="104.6" width="19.2" height="19.2" rx="9.6" fill="#6495BD"/>
<circle cx="112.2" cy="114.2" r="6.8" fill="#17619C" stroke="white" stroke-width="0.8"/>
<path d="M126.6 113.6C126.268 113.6 126 113.869 126 114.2C126 114.531 126.268 114.8 126.6 114.8V113.6ZM175.024 114.624C175.258 114.39 175.258 114.01 175.024 113.776L171.205 109.957C170.971 109.723 170.591 109.723 170.357 109.957C170.123 110.192 170.123 110.572 170.357 110.806L173.751 114.2L170.357 117.594C170.123 117.828 170.123 118.208 170.357 118.443C170.591 118.677 170.971 118.677 171.205 118.443L175.024 114.624ZM126.6 114.8H174.6V113.6H126.6V114.8Z" fill="#17619C"/>
<rect x="179.399" y="104.6" width="19.2" height="19.2" rx="9.6" fill="#6495BD"/>
<circle cx="188.999" cy="114.2" r="6.8" fill="#17619C" stroke="white" stroke-width="0.8"/>
<path d="M203.399 113.6C203.068 113.6 202.799 113.869 202.799 114.2C202.799 114.531 203.068 114.8 203.399 114.8V113.6ZM251.824 114.624C252.058 114.39 252.058 114.01 251.824 113.776L248.005 109.957C247.771 109.723 247.391 109.723 247.157 109.957C246.922 110.192 246.922 110.572 247.157 110.806L250.551 114.2L247.157 117.594C246.922 117.828 246.922 118.208 247.157 118.443C247.391 118.677 247.771 118.677 248.005 118.443L251.824 114.624ZM203.399 114.8H251.399V113.6H203.399V114.8Z" fill="#17619C"/>
<rect x="256.199" y="104.6" width="19.2" height="19.2" rx="9.6" fill="#94B6D1"/>
<rect x="304.199" y="105.8" width="38.4" height="16.8" rx="3.6" fill="#17619C"/>
<rect x="352.199" y="105.8" width="38.4" height="16.8" rx="3.6" fill="#17619C"/>
<rect x="102.6" y="133.4" width="43.2" height="22.8" rx="3.6" fill="#94B6D1"/>
<rect x="102.6" y="163.4" width="43.2" height="43.2" rx="3.6" fill="#17619C"/>
<path d="M124.2 174.4C118.91 174.4 114.6 178.71 114.6 184C114.6 189.29 118.91 193.6 124.2 193.6C129.489 193.6 133.8 189.29 133.8 184C133.8 178.71 129.489 174.4 124.2 174.4ZM128.788 181.792L123.345 187.235C123.211 187.37 123.028 187.446 122.836 187.446C122.644 187.446 122.462 187.37 122.328 187.235L119.611 184.518C119.332 184.24 119.332 183.779 119.611 183.501C119.889 183.222 120.35 183.222 120.628 183.501L122.836 185.709L127.771 180.774C128.049 180.496 128.51 180.496 128.788 180.774C129.067 181.053 129.067 181.504 128.788 181.792Z" fill="white"/>
<rect x="153" y="133.4" width="43.2" height="43.2" rx="3.6" fill="#94B6D1"/>
<rect x="153" y="183.8" width="43.2" height="22.8" rx="3.6" fill="#94B6D1"/>
<rect x="205.8" y="133.4" width="184.8" height="73.2" rx="3.6" fill="#F2F9FF"/>
<rect x="215.4" y="143" width="66" height="14.8" rx="2.4" fill="#94B6D1"/>
<rect x="215.4" y="162.6" width="166.8" height="14.8" rx="2.4" fill="#94B6D1"/>
<rect x="215.4" y="182.2" width="166.8" height="14.8" rx="2.4" fill="#94B6D1"/>
</g>
<g filter="url(#filter2_d_1188_5113)">
<rect x="97" y="99" width="331.2" height="145.2" rx="7.2" fill="white"/>
<rect x="118.6" y="120.6" width="19.2" height="19.2" rx="9.6" fill="#6495BD"/>
<circle cx="128.2" cy="130.2" r="6.8" fill="#17619C" stroke="white" stroke-width="0.8"/>
<path d="M142.6 129.6C142.268 129.6 142 129.869 142 130.2C142 130.531 142.268 130.8 142.6 130.8V129.6ZM191.024 130.624C191.258 130.39 191.258 130.01 191.024 129.776L187.205 125.957C186.971 125.723 186.591 125.723 186.357 125.957C186.123 126.192 186.123 126.572 186.357 126.806L189.751 130.2L186.357 133.594C186.123 133.828 186.123 134.208 186.357 134.443C186.591 134.677 186.971 134.677 187.205 134.443L191.024 130.624ZM142.6 130.8H190.6V129.6H142.6V130.8Z" fill="#17619C"/>
<rect x="195.399" y="120.6" width="19.2" height="19.2" rx="9.6" fill="#6495BD"/>
<circle cx="204.999" cy="130.2" r="6.8" fill="#17619C" stroke="white" stroke-width="0.8"/>
<path d="M219.399 129.6C219.068 129.6 218.799 129.869 218.799 130.2C218.799 130.531 219.068 130.8 219.399 130.8V129.6ZM267.824 130.624C268.058 130.39 268.058 130.01 267.824 129.776L264.005 125.957C263.771 125.723 263.391 125.723 263.157 125.957C262.922 126.192 262.922 126.572 263.157 126.806L266.551 130.2L263.157 133.594C262.922 133.828 262.922 134.208 263.157 134.443C263.391 134.677 263.771 134.677 264.005 134.443L267.824 130.624ZM219.399 130.8H267.399V129.6H219.399V130.8Z" fill="#17619C"/>
<rect x="272.199" y="120.6" width="19.2" height="19.2" rx="9.6" fill="#94B6D1"/>
<rect x="320.199" y="121.8" width="38.4" height="16.8" rx="3.6" fill="#17619C"/>
<rect x="368.199" y="121.8" width="38.4" height="16.8" rx="3.6" fill="#17619C"/>
<rect x="118.6" y="149.4" width="43.2" height="22.8" rx="3.6" fill="#94B6D1"/>
<rect x="118.6" y="179.4" width="43.2" height="43.2" rx="3.6" fill="#17619C"/>
<path d="M140.2 190.4C134.91 190.4 130.6 194.71 130.6 200C130.6 205.29 134.91 209.6 140.2 209.6C145.489 209.6 149.8 205.29 149.8 200C149.8 194.71 145.489 190.4 140.2 190.4ZM144.788 197.792L139.345 203.235C139.211 203.37 139.028 203.446 138.836 203.446C138.644 203.446 138.462 203.37 138.328 203.235L135.611 200.518C135.332 200.24 135.332 199.779 135.611 199.501C135.889 199.222 136.35 199.222 136.628 199.501L138.836 201.709L143.771 196.774C144.049 196.496 144.51 196.496 144.788 196.774C145.067 197.053 145.067 197.504 144.788 197.792Z" fill="white"/>
<rect x="169" y="149.4" width="43.2" height="43.2" rx="3.6" fill="#94B6D1"/>
<rect x="169" y="199.8" width="43.2" height="22.8" rx="3.6" fill="#94B6D1"/>
<rect x="221.8" y="149.4" width="184.8" height="73.2" rx="3.6" fill="#F2F9FF"/>
<rect x="231.4" y="159" width="66" height="14.8" rx="2.4" fill="#94B6D1"/>
<rect x="231.4" y="178.6" width="166.8" height="14.8" rx="2.4" fill="#94B6D1"/>
<rect x="231.4" y="198.2" width="166.8" height="14.8" rx="2.4" fill="#94B6D1"/>
</g>
<g filter="url(#filter3_d_1188_5113)">
<rect x="519" y="58" width="64" height="64" rx="32" fill="white"/>
<circle cx="551" cy="90" r="24" fill="#D0E3F2"/>
<g clip-path="url(#clip0_1188_5113)">
<path d="M546.541 80.6163C548.075 81.2847 549.727 81.628 551.396 81.6251C553.065 81.6222 554.715 81.2732 556.247 80.5994C556.429 81.2046 556.623 81.776 556.767 82.36C557.053 83.5603 557.184 84.7933 557.157 86.028C557.157 86.1917 557.157 86.3102 557.355 86.368C559.754 87.1087 560.822 89.0076 560.754 91.5371C560.708 93.3344 560.213 95.0231 559.506 96.6567C559.401 96.898 559.237 97.1138 558.968 97.0659C558.75 97.0308 558.553 96.9159 558.413 96.7428C557.483 95.2925 556.099 94.6732 554.484 94.6266C552.422 94.5589 550.353 94.5575 548.291 94.6266C546.664 94.6817 545.265 95.3038 544.345 96.7767C544.052 97.2422 543.5 97.1999 543.278 96.6976C542.446 94.803 541.907 92.8434 542.03 90.7386C542.154 88.6337 543.3 87.0861 545.274 86.423C545.551 86.3327 545.608 86.2114 545.605 85.9293C545.571 84.1772 545.865 82.4346 546.47 80.7941C546.473 80.7419 546.498 80.7024 546.541 80.6163ZM551.373 83.3955C550.854 83.395 550.347 83.5508 549.915 83.8434C549.483 84.136 549.146 84.5522 548.947 85.0395C548.747 85.5268 548.694 86.0633 548.793 86.5814C548.893 87.0994 549.142 87.5758 549.507 87.9504C549.873 88.325 550.339 88.581 550.848 88.686C551.356 88.7911 551.884 88.7406 552.364 88.5408C552.845 88.341 553.256 88.001 553.547 87.5635C553.837 87.1261 553.994 86.6109 553.997 86.083C553.999 85.731 553.933 85.3819 553.802 85.0559C553.672 84.73 553.479 84.4336 553.235 84.1838C552.991 83.934 552.701 83.7357 552.381 83.6004C552.062 83.4651 551.719 83.3955 551.373 83.3955Z" fill="#17619C"/>
<path d="M555.681 79.4185C552.784 80.7545 549.95 80.7531 547.071 79.4185C547.544 78.4473 548.175 77.5651 548.939 76.81C549.567 76.2133 550.267 75.6941 550.946 75.1524C551.208 74.9436 551.493 74.9563 551.778 75.1354C553.459 76.1766 554.703 77.6226 555.681 79.4185Z" fill="#17619C"/>
<path d="M551.958 102.119C551.958 102.881 551.958 103.643 551.958 104.405C551.958 104.687 551.839 104.949 551.564 104.993C551.346 105.006 551.129 104.948 550.945 104.827C550.848 104.769 550.793 104.561 550.793 104.42C550.782 102.897 550.782 101.372 550.793 99.8479C550.793 99.4543 551.047 99.206 551.386 99.2116C551.724 99.2173 551.955 99.4684 551.961 99.8677C551.958 100.618 551.958 101.369 551.958 102.119Z" fill="#17619C"/>
<path d="M553.508 99.3005C553.508 98.5613 553.508 97.822 553.508 97.0828C553.508 96.6483 553.752 96.3661 554.104 96.3774C554.456 96.3887 554.682 96.6596 554.684 97.0743C554.689 98.5528 554.689 100.031 554.684 101.51C554.684 101.949 554.439 102.215 554.078 102.215C553.716 102.215 553.509 101.951 553.506 101.524C553.505 100.779 553.508 100.04 553.508 99.3005Z" fill="#17619C"/>
<path d="M549.228 99.3188C549.228 100.047 549.228 100.773 549.228 101.501C549.228 101.947 549 102.214 548.636 102.207C548.273 102.2 548.051 101.932 548.05 101.486C548.05 100.019 548.05 98.5514 548.05 97.0842C548.05 96.6483 548.295 96.3661 548.646 96.3703C548.997 96.3746 549.226 96.6525 549.228 97.0955C549.23 97.8404 549.228 98.5796 549.228 99.3188Z" fill="#17619C"/>
</g>
</g>
<g filter="url(#filter4_d_1188_5113)">
<rect x="565" y="127" width="64" height="64" rx="32" fill="white"/>
<circle cx="597" cy="159" r="24" fill="#D0E3F2"/>
<rect x="583" y="147" width="28" height="25" rx="2" fill="#17619C"/>
<rect x="587" y="151" width="15" height="5" rx="1" fill="#D0E3F2"/>
<rect x="587" y="158" width="20" height="10" rx="1" fill="#D0E3F2"/>
</g>
<g filter="url(#filter5_d_1188_5113)">
<rect x="519" y="196" width="64" height="64" rx="32" fill="white"/>
<circle cx="551" cy="228" r="24" fill="#D0E3F2"/>
<rect x="539" y="226" width="6.66667" height="6" rx="1" fill="#17619C"/>
<rect x="547.667" y="222" width="6.66667" height="10" rx="1" fill="#17619C"/>
<rect x="556.333" y="217" width="6.66667" height="15" rx="1" fill="#17619C"/>
<rect x="539" y="234" width="24" height="4" rx="1" fill="#17619C"/>
</g>
<circle cx="428.5" cy="158.5" r="6.5" fill="#17619C"/>
<defs>
<filter id="filter0_d_1188_5113" x="57" y="63" width="353.2" height="167.2" filterUnits="userSpaceOnUse" color-interpolation-filters="sRGB">
<feFlood flood-opacity="0" result="BackgroundImageFix"/>
<feColorMatrix in="SourceAlpha" type="matrix" values="0 0 0 0 0 0 0 0 0 0 0 0 0 0 0 0 0 0 127 0" result="hardAlpha"/>
<feOffset dy="4"/>
<feGaussianBlur stdDeviation="5.5"/>
<feComposite in2="hardAlpha" operator="out"/>
<feColorMatrix type="matrix" values="0 0 0 0 0 0 0 0 0 0 0 0 0 0 0 0 0 0 0.12 0"/>
<feBlend mode="normal" in2="BackgroundImageFix" result="effect1_dropShadow_1188_5113"/>
<feBlend mode="normal" in="SourceGraphic" in2="effect1_dropShadow_1188_5113" result="shape"/>
</filter>
<filter id="filter1_d_1188_5113" x="70" y="76" width="353.2" height="167.2" filterUnits="userSpaceOnUse" color-interpolation-filters="sRGB">
<feFlood flood-opacity="0" result="BackgroundImageFix"/>
<feColorMatrix in="SourceAlpha" type="matrix" values="0 0 0 0 0 0 0 0 0 0 0 0 0 0 0 0 0 0 127 0" result="hardAlpha"/>
<feOffset dy="4"/>
<feGaussianBlur stdDeviation="5.5"/>
<feComposite in2="hardAlpha" operator="out"/>
<feColorMatrix type="matrix" values="0 0 0 0 0 0 0 0 0 0 0 0 0 0 0 0 0 0 0.12 0"/>
<feBlend mode="normal" in2="BackgroundImageFix" result="effect1_dropShadow_1188_5113"/>
<feBlend mode="normal" in="SourceGraphic" in2="effect1_dropShadow_1188_5113" result="shape"/>
</filter>
<filter id="filter2_d_1188_5113" x="86" y="92" width="353.2" height="167.2" filterUnits="userSpaceOnUse" color-interpolation-filters="sRGB">
<feFlood flood-opacity="0" result="BackgroundImageFix"/>
<feColorMatrix in="SourceAlpha" type="matrix" values="0 0 0 0 0 0 0 0 0 0 0 0 0 0 0 0 0 0 127 0" result="hardAlpha"/>
<feOffset dy="4"/>
<feGaussianBlur stdDeviation="5.5"/>
<feComposite in2="hardAlpha" operator="out"/>
<feColorMatrix type="matrix" values="0 0 0 0 0 0 0 0 0 0 0 0 0 0 0 0 0 0 0.12 0"/>
<feBlend mode="normal" in2="BackgroundImageFix" result="effect1_dropShadow_1188_5113"/>
<feBlend mode="normal" in="SourceGraphic" in2="effect1_dropShadow_1188_5113" result="shape"/>
</filter>
<filter id="filter3_d_1188_5113" x="510" y="53" width="82" height="82" filterUnits="userSpaceOnUse" color-interpolation-filters="sRGB">
<feFlood flood-opacity="0" result="BackgroundImageFix"/>
<feColorMatrix in="SourceAlpha" type="matrix" values="0 0 0 0 0 0 0 0 0 0 0 0 0 0 0 0 0 0 127 0" result="hardAlpha"/>
<feOffset dy="4"/>
<feGaussianBlur stdDeviation="4.5"/>
<feComposite in2="hardAlpha" operator="out"/>
<feColorMatrix type="matrix" values="0 0 0 0 0 0 0 0 0 0 0 0 0 0 0 0 0 0 0.13 0"/>
<feBlend mode="normal" in2="BackgroundImageFix" result="effect1_dropShadow_1188_5113"/>
<feBlend mode="normal" in="SourceGraphic" in2="effect1_dropShadow_1188_5113" result="shape"/>
</filter>
<filter id="filter4_d_1188_5113" x="556" y="122" width="82" height="82" filterUnits="userSpaceOnUse" color-interpolation-filters="sRGB">
<feFlood flood-opacity="0" result="BackgroundImageFix"/>
<feColorMatrix in="SourceAlpha" type="matrix" values="0 0 0 0 0 0 0 0 0 0 0 0 0 0 0 0 0 0 127 0" result="hardAlpha"/>
<feOffset dy="4"/>
<feGaussianBlur stdDeviation="4.5"/>
<feComposite in2="hardAlpha" operator="out"/>
<feColorMatrix type="matrix" values="0 0 0 0 0 0 0 0 0 0 0 0 0 0 0 0 0 0 0.13 0"/>
<feBlend mode="normal" in2="BackgroundImageFix" result="effect1_dropShadow_1188_5113"/>
<feBlend mode="normal" in="SourceGraphic" in2="effect1_dropShadow_1188_5113" result="shape"/>
</filter>
<filter id="filter5_d_1188_5113" x="510" y="191" width="82" height="82" filterUnits="userSpaceOnUse" color-interpolation-filters="sRGB">
<feFlood flood-opacity="0" result="BackgroundImageFix"/>
<feColorMatrix in="SourceAlpha" type="matrix" values="0 0 0 0 0 0 0 0 0 0 0 0 0 0 0 0 0 0 127 0" result="hardAlpha"/>
<feOffset dy="4"/>
<feGaussianBlur stdDeviation="4.5"/>
<feComposite in2="hardAlpha" operator="out"/>
<feColorMatrix type="matrix" values="0 0 0 0 0 0 0 0 0 0 0 0 0 0 0 0 0 0 0.13 0"/>
<feBlend mode="normal" in2="BackgroundImageFix" result="effect1_dropShadow_1188_5113"/>
<feBlend mode="normal" in="SourceGraphic" in2="effect1_dropShadow_1188_5113" result="shape"/>
</filter>
<clipPath id="clip0_1188_5113">
<rect width="18.75" height="30" fill="white" transform="translate(542 75)"/>
</clipPath>
</defs>
</svg>
