<svg width="342" height="72" viewBox="0 0 342 72" fill="none" xmlns="http://www.w3.org/2000/svg">
<path d="M103 18.5C103 16.2909 104.791 14.5 107 14.5H171V57.5H107C104.791 57.5 103 55.7091 103 53.5V18.5Z" fill="#D2D2D4"/>
<path d="M171 14.5H235C237.209 14.5 239 16.2909 239 18.5V53.5C239 55.7091 237.209 57.5 235 57.5H171V14.5Z" fill="#2E2E30"/>
<path d="M196.516 43C196.019 43 195.652 42.6677 195.482 42.1351C195.233 41.3499 195.02 40.5348 194.652 39.8043C193.284 37.0778 191.081 35.348 188.126 34.5777C187.867 34.5199 187.619 34.418 187.394 34.2766C187.236 34.1701 187.117 34.0162 187.053 33.8372C186.988 33.6582 186.983 33.4634 187.037 33.281C187.075 33.1019 187.161 32.9367 187.286 32.8031C187.412 32.6695 187.571 32.5727 187.747 32.5232C188.328 32.3415 188.931 32.2108 189.489 31.9756C192.598 30.669 194.576 28.3668 195.426 25.1014C195.515 24.7579 195.598 24.4157 195.913 24.1955C196.544 23.7574 197.294 24.0872 197.53 24.8699C197.753 25.6104 197.953 26.372 198.289 27.0626C199.675 29.9074 201.936 31.6931 205.006 32.4522C205.327 32.5319 205.619 32.6401 205.813 32.9264C206.23 33.5411 205.919 34.2865 205.18 34.513C204.441 34.7395 203.692 34.9262 203.013 35.2597C200.119 36.6497 198.306 38.9382 197.54 42.058C197.391 42.6652 197.034 42.995 196.516 43Z" fill="white"/>
<path d="M207.65 50.5C207.043 50.5 206.636 50.1917 206.506 49.7172C206.287 48.9205 205.976 48.178 205.42 47.5487C204.81 46.8502 204.011 46.3439 203.119 46.0913C202.855 46.0322 202.606 45.9233 202.383 45.7704C201.74 45.2506 201.943 44.2991 202.721 44.0084C203.306 43.7906 203.912 43.5931 204.443 43.2772C205.425 42.6919 206.043 41.7921 206.379 40.6996C206.429 40.4756 206.502 40.2571 206.596 40.0477C206.684 39.8663 206.826 39.7167 207.003 39.6197C207.18 39.5228 207.383 39.4832 207.583 39.5065C208.026 39.5518 208.321 39.8061 208.486 40.2289C208.703 40.7915 208.881 41.383 209.187 41.8953C209.795 42.916 210.719 43.5654 211.866 43.8938C212.09 43.9434 212.306 44.0239 212.508 44.133C212.68 44.228 212.818 44.3738 212.904 44.5504C212.99 44.727 213.019 44.9258 212.988 45.1197C212.921 45.5564 212.655 45.8358 212.232 46.0007C211.658 46.2184 211.063 46.4147 210.543 46.7281C209.583 47.3045 208.975 48.1843 208.634 49.2528C208.533 49.5649 208.426 49.9009 208.229 50.1501C208.07 50.3465 207.769 50.4358 207.65 50.5Z" fill="white"/>
<path d="M216.493 39.9999C216.017 39.9999 215.649 39.6767 215.515 39.1363C215.349 38.4002 215.049 37.7011 214.63 37.0736C213.774 35.7731 212.448 34.8542 210.93 34.5092C210.473 34.4006 210.13 34.1738 210.025 33.6974C209.904 33.1594 210.237 32.66 210.806 32.5249C211.562 32.3566 212.28 32.0512 212.926 31.6238C214.24 30.7551 215.167 29.4117 215.513 27.8748C215.642 27.3357 216.009 27.0124 216.484 27.0003C216.959 26.9883 217.368 27.3212 217.494 27.8652C217.743 28.9739 218.295 29.9917 219.088 30.8051C219.881 31.6185 220.885 32.1955 221.987 32.4718C222.629 32.6347 222.951 32.9278 222.995 33.3946C223.045 33.9567 222.723 34.3596 222.082 34.5092C221.228 34.7031 220.426 35.0819 219.734 35.6189C218.606 36.4827 217.817 37.7138 217.502 39.0989C217.363 39.6791 216.994 40.0048 216.493 39.9999Z" fill="white"/>
</svg>
