<svg width="342" height="72" viewBox="0 0 342 72" fill="none" xmlns="http://www.w3.org/2000/svg">
<rect x="59.333" y="9" width="240" height="54" rx="10" fill="#FFF7F5"/>
<rect x="89" y="16" width="40" height="40" rx="10" fill="#E9664A"/>
<path d="M117.662 31.189C119.208 31.189 120.699 31.1823 122.191 31.189C122.669 31.189 122.996 31.5763 122.997 32.0896C122.997 33.1771 122.997 34.2635 122.997 35.3543C122.997 37.19 122.997 39.0261 122.997 40.8626C122.997 41.5381 122.667 41.8634 121.992 41.8645C120.916 41.8645 119.837 41.8578 118.765 41.8735C118.583 41.8831 118.409 41.9488 118.267 42.0615C116.445 43.5644 114.636 45.0808 112.821 46.5904C111.858 47.3897 110.552 47.2434 109.91 46.2527C109.443 45.5334 109.497 44.8039 109.917 44.0609C109.577 44.3423 109.236 44.6361 108.885 44.9007C108.641 45.0835 108.357 45.2053 108.056 45.256C107.754 45.3067 107.445 45.2846 107.155 45.1918C106.864 45.0989 106.6 44.9379 106.385 44.7225C106.17 44.507 106.011 44.2434 105.92 43.9539C105.714 43.2886 105.865 42.683 106.349 42.0694C105.856 42.3373 105.414 42.433 104.946 42.3464C104.494 42.2672 104.088 42.027 103.802 41.6709C103.235 40.9876 103.244 40.1556 103.802 39.2674C103.512 39.3282 103.198 39.4352 102.878 39.452C102.491 39.4649 102.109 39.3598 101.784 39.1509C101.46 38.9419 101.207 38.6391 101.061 38.2834C100.915 37.9276 100.882 37.536 100.967 37.1612C101.052 36.7864 101.251 36.4466 101.537 36.1874C102.454 35.3993 103.394 34.626 104.33 33.8537C104.413 33.7955 104.512 33.7655 104.614 33.7681C106.369 33.7681 108.125 33.7614 109.881 33.7681C110.009 33.777 110.13 33.8313 110.221 33.9212C110.883 34.5629 111.527 35.2215 112.188 35.862C113.231 36.8752 114.472 37.2073 115.859 36.7784C117.221 36.3574 118.055 35.3982 118.338 34.0068C118.525 33.0871 118.338 32.2214 117.839 31.4176C117.782 31.3669 117.736 31.3016 117.662 31.189Z" fill="white"/>
<path d="M102.385 42.3587C101.818 42.4218 101.284 42.3902 100.838 41.8769C100.352 41.314 99.7993 40.8153 99.2605 40.3008C99.147 40.1988 99.0015 40.1388 98.8486 40.1308C97.5747 40.1173 96.3007 40.1241 95.0267 40.123C94.3267 40.123 94 39.801 94 39.1098V30.4359C94 29.7604 94.3233 29.4452 95.0097 29.4452C97.105 29.4452 99.1992 29.4452 101.295 29.4452C101.382 29.4509 101.47 29.437 101.551 29.4047C101.633 29.3723 101.706 29.3223 101.765 29.2584C102.769 28.2272 103.996 27.7375 105.443 27.751C107.076 27.7667 108.708 27.7589 110.341 27.751C110.803 27.7399 111.263 27.8229 111.693 27.9948C112.122 28.1668 112.511 28.424 112.836 28.7506C113.929 29.8257 115.021 30.9008 116.099 31.9894C116.882 32.7775 116.881 33.964 116.123 34.7126C115.756 35.0656 115.265 35.2614 114.754 35.2578C114.243 35.2542 113.754 35.0516 113.392 34.6935C112.624 33.9595 111.876 33.2052 111.123 32.4499C111.008 32.3271 110.867 32.2305 110.71 32.1666C110.554 32.1027 110.385 32.073 110.216 32.0795C108.216 32.0885 106.215 32.0795 104.215 32.0907C104.05 32.0936 103.891 32.1493 103.761 32.2495C102.761 33.0634 101.774 33.8908 100.784 34.716C98.6138 36.5239 99.1198 39.7819 101.737 40.8615C101.813 40.8853 101.878 40.9367 101.918 41.0056C102.092 41.457 102.235 41.9073 102.385 42.3587Z" fill="white"/>
<rect x="133" y="16" width="51" height="10.6667" rx="5.33333" fill="#E9664A"/>
<rect x="133" y="30.6666" width="120" height="10.6667" rx="5.33333" fill="#E9664A"/>
<rect x="133" y="45.3334" width="120" height="10.6667" rx="5.33333" fill="#E9664A"/>
<g clip-path="url(#clip0_1090_10428)">
<path d="M246.361 31.552C247.374 31.3373 248.363 31.2105 249.377 31.3173C251.494 31.5379 253.858 32.7982 254.078 36.0042C254.078 36.0605 254.094 36.1215 254.109 36.2283C254.266 36.0934 254.384 35.9936 254.507 35.8845C255.314 35.2051 256.203 34.711 257.285 34.6406C257.842 34.6021 258.401 34.6966 258.915 34.9164C259.471 35.152 260.012 35.4209 260.535 35.7214C260.719 35.825 260.88 35.9646 261.008 36.1317C261.137 36.2988 261.23 36.4901 261.284 36.6942C261.337 36.8982 261.348 37.1109 261.318 37.3196C261.287 37.5283 261.215 37.7286 261.105 37.9088C260.66 38.6715 259.715 38.9168 258.915 38.4838C258.599 38.3113 258.271 38.1599 257.956 37.985C257.794 37.8808 257.6 37.8355 257.408 37.8569C257.216 37.8782 257.037 37.9649 256.901 38.1024C256.404 38.5521 255.935 39.0309 255.494 39.5364C254.986 40.1395 254.546 40.8002 254.062 41.4245C253.721 41.8645 253.31 42.2248 252.744 42.3398C251.71 42.551 250.711 41.8704 250.634 40.799C250.581 40.0597 250.721 39.3075 250.759 38.56C250.802 37.7386 250.877 36.9043 250.843 36.0816C250.803 35.2367 250.396 34.8389 249.573 34.6124C248.878 34.4212 247.775 34.4693 247.072 34.7204C247.149 35.4386 247.252 36.1532 247.295 36.8714C247.5 40.2745 246.778 43.4605 245.03 46.4C244.184 47.8258 243.222 49.1589 241.943 50.235C240.622 51.3474 239.11 51.9858 237.371 52.0058C235.027 52.0316 233.398 50.5072 233.158 48.1697C232.968 46.3191 233.314 44.5671 234.056 42.8949C235.398 39.8708 237.235 37.1929 239.738 35.0009C240.736 34.1213 241.846 33.379 243.04 32.7936C243.274 32.6762 243.31 32.5682 243.242 32.3242C242.824 30.8303 242.387 29.3424 241.66 27.9623C240.922 26.5636 239.806 25.6154 238.238 25.2716C237.639 25.1401 237.012 25.2488 236.492 25.5743C235.298 26.2901 234.125 27.9799 234.734 29.9948C234.885 30.5337 235.19 31.0169 235.611 31.3854C236.115 31.816 236.648 32.2068 237.169 32.6211C237.729 33.0623 237.95 33.6291 237.788 34.3285C237.717 34.6408 237.549 34.9226 237.308 35.1335C237.068 35.3444 236.766 35.4734 236.448 35.5019C236.111 35.5391 235.77 35.4736 235.471 35.3142C234.396 34.6359 233.346 33.8919 232.62 32.8288C231.054 30.5311 230.913 28.1043 232.191 25.6377C232.98 24.1122 234.167 22.9704 235.792 22.366C237.738 21.6432 239.573 22.0386 241.302 23.0701C243.16 24.172 244.37 25.8137 245.109 27.8121C245.531 28.9539 245.886 30.1204 246.271 31.2751C246.307 31.3572 246.329 31.4417 246.361 31.552ZM243.981 35.8868C243.476 36.2272 243.017 36.5029 242.593 36.8256C240.036 38.7701 238.276 41.3283 236.98 44.2279C236.446 45.4202 236.179 46.6711 236.387 47.9901C236.48 48.5769 236.7 48.7822 237.303 48.7834C238.308 48.7834 239.158 48.3891 239.906 47.7472C241.013 46.799 241.802 45.6033 242.5 44.3441C243.954 41.7273 244.361 38.9203 243.981 35.8868Z" fill="#622B1F"/>
<path d="M253.821 49.3198C252.035 49.3198 250.25 49.3198 248.464 49.3198C248.105 49.3201 247.756 49.1976 247.476 48.9728C247.196 48.7479 247.001 48.434 246.923 48.0829C246.836 47.7338 246.873 47.3655 247.027 47.0404C247.181 46.7154 247.442 46.4535 247.767 46.2993C248.033 46.1815 248.322 46.1208 248.613 46.1209C252.096 46.1091 255.579 46.1138 259.062 46.1127C259.805 46.1127 260.375 46.4131 260.667 47.1125C260.932 47.7485 260.803 48.3423 260.331 48.8433C260.175 49.0057 259.986 49.1327 259.777 49.2157C259.568 49.2987 259.343 49.3358 259.118 49.3245C257.352 49.3163 255.586 49.3198 253.821 49.3198Z" fill="#622B1F"/>
</g>
<defs>
<clipPath id="clip0_1090_10428">
<rect width="30" height="30" fill="white" transform="translate(231.333 22)"/>
</clipPath>
</defs>
</svg>
