<svg width="342" height="72" viewBox="0 0 342 72" fill="none" xmlns="http://www.w3.org/2000/svg">
<rect width="182" height="26" rx="12" transform="matrix(-1 0 0 1 285.667 39)" fill="#3D3D3F"/>
<rect width="162" height="12" rx="6" transform="matrix(-1 0 0 1 275.667 46)" fill="#D2D2D4"/>
<path d="M289.001 62.1708C286.493 59.8503 285.557 57.1027 285.557 55.5454L276.941 59.8429L256.667 65H288.178C289.29 65 289.818 62.9263 289.001 62.1708Z" fill="#3D3D3F"/>
<rect x="55.667" y="7" width="158" height="26" rx="12" fill="#3D3D3F"/>
<rect x="65.667" y="14" width="138" height="12" rx="6" fill="#D2D2D4"/>
<path d="M52.3329 30.1708C54.8406 27.8503 55.7766 25.1027 55.7766 23.5454L64.393 27.8429L84.667 33H53.1565C52.0441 33 51.5164 30.9263 52.3329 30.1708Z" fill="#3D3D3F"/>
</svg>
