<svg width="342" height="72" viewBox="0 0 342 72" fill="none" xmlns="http://www.w3.org/2000/svg">
<rect x="59.334" y="19" width="34" height="34" rx="6" fill="#E9664A"/>
<path d="M76.5 28C72.092 28 68.5 31.592 68.5 36C68.5 40.408 72.092 44 76.5 44C80.908 44 84.5 40.408 84.5 36C84.5 31.592 80.908 28 76.5 28ZM80.324 34.16L75.788 38.696C75.676 38.808 75.524 38.872 75.364 38.872C75.204 38.872 75.052 38.808 74.94 38.696L72.676 36.432C72.444 36.2 72.444 35.816 72.676 35.584C72.908 35.352 73.292 35.352 73.524 35.584L75.364 37.424L79.476 33.312C79.708 33.08 80.092 33.08 80.324 33.312C80.556 33.544 80.556 33.92 80.324 34.16Z" fill="white"/>
<rect x="97.334" y="19" width="34" height="34" rx="6" fill="#E9664A"/>
<path d="M114.5 28C110.092 28 106.5 31.592 106.5 36C106.5 40.408 110.092 44 114.5 44C118.908 44 122.5 40.408 122.5 36C122.5 31.592 118.908 28 114.5 28ZM118.324 34.16L113.788 38.696C113.676 38.808 113.524 38.872 113.364 38.872C113.204 38.872 113.052 38.808 112.94 38.696L110.676 36.432C110.444 36.2 110.444 35.816 110.676 35.584C110.908 35.352 111.292 35.352 111.524 35.584L113.364 37.424L117.476 33.312C117.708 33.08 118.092 33.08 118.324 33.312C118.556 33.544 118.556 33.92 118.324 34.16Z" fill="white"/>
<rect x="135.334" y="19" width="34" height="34" rx="6" fill="#F8E9E6"/>
<rect x="145" y="29" width="14" height="14" rx="7" stroke="#F5B9AC" stroke-width="2"/>
<rect x="173.334" y="19" width="34" height="34" rx="6" fill="#E9664A"/>
<path d="M190.5 28C186.092 28 182.5 31.592 182.5 36C182.5 40.408 186.092 44 190.5 44C194.908 44 198.5 40.408 198.5 36C198.5 31.592 194.908 28 190.5 28ZM194.324 34.16L189.788 38.696C189.676 38.808 189.524 38.872 189.364 38.872C189.204 38.872 189.052 38.808 188.94 38.696L186.676 36.432C186.444 36.2 186.444 35.816 186.676 35.584C186.908 35.352 187.292 35.352 187.524 35.584L189.364 37.424L193.476 33.312C193.708 33.08 194.092 33.08 194.324 33.312C194.556 33.544 194.556 33.92 194.324 34.16Z" fill="white"/>
<rect x="211.334" y="19" width="34" height="34" rx="6" fill="#F8E9E6"/>
<rect x="221" y="29" width="14" height="14" rx="7" stroke="#F5B9AC" stroke-width="2"/>
<rect x="249.334" y="19" width="34" height="34" rx="6" fill="#F8E9E6"/>
<rect x="259" y="29" width="14" height="14" rx="7" stroke="#F5B9AC" stroke-width="2"/>
</svg>

