<svg width="240" height="62" viewBox="0 0 240 62" fill="none" xmlns="http://www.w3.org/2000/svg">
<rect y="3" width="36" height="36" rx="3" fill="#E9664A"/>
<g clip-path="url(#clip0_1150_4457)">
<path d="M17.5054 13.001C20.478 13.001 23.4511 13.0024 26.4248 13.0052C26.6562 13.0015 26.8866 13.0361 27.1073 13.1075C27.6609 13.3029 27.9972 13.8296 27.998 14.4562C27.998 15.8954 27.998 17.3355 27.998 18.7747C27.998 21.9971 27.998 25.2189 27.998 28.4401C27.998 29.4114 27.4313 29.9993 26.4847 29.9993C20.4974 29.9993 14.5096 29.9993 8.52125 29.9993C7.56156 29.9993 6.99805 29.4122 6.99805 28.4292C6.99805 23.8096 6.99805 19.1902 6.99805 14.5711C6.99805 13.5772 7.5632 13.0018 8.54257 13.001H17.5054ZM8.18987 25.0274C8.28338 24.9578 8.33915 24.9175 8.39247 24.8756C9.48613 24.0262 10.5798 23.176 11.6735 22.325C12.3748 21.7782 13.1351 21.7379 13.8808 22.2227L17.0486 24.2683C17.3028 24.4319 17.4636 24.4092 17.6613 24.1845C17.786 24.0452 17.9101 23.9054 18.0337 23.7651C19.2438 22.3974 20.4537 21.0295 21.6633 19.6612C21.9093 19.3861 22.194 19.2025 22.5655 19.1815C23.0265 19.1547 23.3858 19.3492 23.663 19.7174C24.6583 21.023 25.6538 22.3287 26.6496 23.6343C26.6914 23.6888 26.7373 23.7399 26.8136 23.8297V14.5895C26.8136 14.254 26.7775 14.218 26.4494 14.218H8.54914C8.22104 14.218 8.18905 14.2549 8.18905 14.5937V25.0274H8.18987ZM22.6492 20.3666C22.5721 20.4505 22.5204 20.5058 22.4712 20.562L18.5931 24.9443C17.9418 25.6807 17.1806 25.7831 16.3604 25.2572C15.3154 24.5828 14.2698 23.9094 13.2237 23.2367C12.9276 23.0463 12.6914 23.0581 12.4125 23.2753C11.0531 24.3321 9.69366 25.3886 8.33423 26.4448C8.2842 26.4783 8.24407 26.5252 8.21819 26.5803C8.19231 26.6355 8.18167 26.6968 8.18741 26.7576C8.19397 27.3028 8.18741 27.848 8.18741 28.3923C8.18741 28.7555 8.21447 28.7832 8.57374 28.7832H26.4297C26.7816 28.7832 26.8103 28.753 26.8103 28.3864C26.8103 27.5972 26.8103 26.8071 26.8054 26.0179C26.8017 25.8971 26.7626 25.7802 26.693 25.6824C25.513 24.1174 24.3266 22.5557 23.134 20.9973C22.9789 20.796 22.8239 20.5947 22.6484 20.3666H22.6492Z" fill="white"/>
<path d="M15.7779 21.2203C15.3623 21.2209 14.9558 21.0955 14.61 20.8597C14.2642 20.624 13.9945 20.2887 13.8352 19.8962C13.6759 19.5036 13.6341 19.0716 13.7151 18.6548C13.796 18.2379 13.9962 17.8551 14.2901 17.5546C14.5841 17.2542 14.9586 17.0497 15.3663 16.967C15.774 16.8844 16.1965 16.9273 16.5803 17.0903C16.9641 17.2534 17.292 17.5293 17.5224 17.883C17.7527 18.2367 17.8753 18.6524 17.8745 19.0773C17.8748 19.3589 17.8208 19.6378 17.7155 19.898C17.6103 20.1582 17.4558 20.3946 17.2611 20.5936C17.0663 20.7927 16.8351 20.9505 16.5806 21.0581C16.326 21.1656 16.0533 21.2207 15.7779 21.2203ZM15.7886 18.143C15.6081 18.1402 15.4308 18.1922 15.2793 18.2926C15.1278 18.3929 15.0089 18.537 14.9375 18.7065C14.8662 18.8761 14.8457 19.0635 14.8787 19.2449C14.9117 19.4264 14.9966 19.5938 15.1228 19.7258C15.2489 19.8579 15.4105 19.9486 15.5872 19.9866C15.7638 20.0246 15.9475 20.008 16.115 19.9391C16.2824 19.8702 16.4261 19.752 16.5277 19.5994C16.6294 19.4469 16.6845 19.2669 16.6859 19.0824C16.6878 18.9604 16.666 18.8393 16.6218 18.7261C16.5775 18.6128 16.5118 18.5097 16.4284 18.4225C16.3449 18.3354 16.2454 18.2661 16.1356 18.2185C16.0258 18.171 15.9078 18.1462 15.7886 18.1455V18.143Z" fill="white"/>
</g>
<rect y="41" width="8.25" height="8" rx="1" fill="#F5B9AC"/>
<rect x="9.25" y="41" width="8.25" height="8" rx="1" fill="#E9664A"/>
<rect x="18.5" y="41" width="8.25" height="8" rx="1" fill="#F5B9AC"/>
<rect x="27.75" y="41" width="8.25" height="8" rx="1" fill="#F5B9AC"/>
<rect y="51" width="36" height="8" rx="2" fill="#F5B9AC"/>
<rect x="44" y="0.5" width="94" height="61" rx="3" fill="#FFF7F5"/>
<rect x="54" y="7.5" width="55" height="13" rx="2" fill="#F5B9AC"/>
<rect x="54" y="24.5" width="74" height="13" rx="2" fill="#F5B9AC"/>
<rect x="54" y="41.5" width="74" height="13" rx="2" fill="#F5B9AC"/>
<rect x="146" y="0.5" width="94" height="61" rx="3" fill="#FFF7F5"/>
<rect x="156" y="7.5" width="55" height="13" rx="2" fill="#F5B9AC"/>
<rect x="156" y="24.5" width="74" height="13" rx="2" fill="#F5B9AC"/>
<rect x="156" y="41.5" width="74" height="13" rx="2" fill="#F5B9AC"/>
<defs>
<clipPath id="clip0_1150_4457">
<rect width="21" height="17" fill="white" transform="translate(7 13)"/>
</clipPath>
</defs>
</svg>
