<svg width="240" height="72" viewBox="0 0 240 72" fill="none" xmlns="http://www.w3.org/2000/svg">
<rect x="8" y="19" width="34" height="34" rx="6" fill="#4E4E52"/>
<path d="M25.166 28C20.758 28 17.166 31.592 17.166 36C17.166 40.408 20.758 44 25.166 44C29.574 44 33.166 40.408 33.166 36C33.166 31.592 29.574 28 25.166 28ZM28.99 34.16L24.454 38.696C24.342 38.808 24.19 38.872 24.03 38.872C23.87 38.872 23.718 38.808 23.606 38.696L21.342 36.432C21.11 36.2 21.11 35.816 21.342 35.584C21.574 35.352 21.958 35.352 22.19 35.584L24.03 37.424L28.142 33.312C28.374 33.08 28.758 33.08 28.99 33.312C29.222 33.544 29.222 33.92 28.99 34.16Z" fill="white"/>
<rect x="46" y="19" width="34" height="34" rx="6" fill="#4E4E52"/>
<path d="M63.166 28C58.758 28 55.166 31.592 55.166 36C55.166 40.408 58.758 44 63.166 44C67.574 44 71.166 40.408 71.166 36C71.166 31.592 67.574 28 63.166 28ZM66.99 34.16L62.454 38.696C62.342 38.808 62.19 38.872 62.03 38.872C61.87 38.872 61.718 38.808 61.606 38.696L59.342 36.432C59.11 36.2 59.11 35.816 59.342 35.584C59.574 35.352 59.958 35.352 60.19 35.584L62.03 37.424L66.142 33.312C66.374 33.08 66.758 33.08 66.99 33.312C67.222 33.544 67.222 33.92 66.99 34.16Z" fill="white"/>
<rect x="84" y="19" width="34" height="34" rx="6" fill="#D2D2D4"/>
<rect x="93.666" y="29" width="14" height="14" rx="7" stroke="#BCBCBF" stroke-width="2"/>
<rect x="122" y="19" width="34" height="34" rx="6" fill="#4E4E52"/>
<path d="M139.166 28C134.758 28 131.166 31.592 131.166 36C131.166 40.408 134.758 44 139.166 44C143.574 44 147.166 40.408 147.166 36C147.166 31.592 143.574 28 139.166 28ZM142.99 34.16L138.454 38.696C138.342 38.808 138.19 38.872 138.03 38.872C137.87 38.872 137.718 38.808 137.606 38.696L135.342 36.432C135.11 36.2 135.11 35.816 135.342 35.584C135.574 35.352 135.958 35.352 136.19 35.584L138.03 37.424L142.142 33.312C142.374 33.08 142.758 33.08 142.99 33.312C143.222 33.544 143.222 33.92 142.99 34.16Z" fill="white"/>
<rect x="160" y="19" width="34" height="34" rx="6" fill="#D2D2D4"/>
<rect x="169.666" y="29" width="14" height="14" rx="7" stroke="#BCBCBF" stroke-width="2"/>
<rect x="198" y="19" width="34" height="34" rx="6" fill="#D2D2D4"/>
<rect x="207.666" y="29" width="14" height="14" rx="7" stroke="#BCBCBF" stroke-width="2"/>
</svg>
