<svg width="342" height="72" viewBox="0 0 342 72" fill="none" xmlns="http://www.w3.org/2000/svg">
<circle cx="54.334" cy="36" r="17.5" fill="#D0E3F2"/>
<circle cx="93.334" cy="36" r="17.5" fill="#D0E3F2"/>
<circle cx="132.334" cy="36" r="17.5" fill="#D0E3F2"/>
<circle cx="171.334" cy="36" r="17.5" fill="#D0E3F2"/>
<circle cx="210.334" cy="36" r="17.5" fill="#D0E3F2"/>
<circle cx="249.334" cy="36" r="17.5" fill="#D0E3F2"/>
<circle cx="288.334" cy="36" r="17.5" fill="#D0E3F2"/>
<g clip-path="url(#clip0_1123_7458)">
<path d="M176.322 53.0282C177.045 55.8955 176.441 57.8314 174.435 59.1364C173.564 59.7037 172.532 60.0049 171.476 59.9998C170.421 59.9948 169.392 59.6838 168.527 59.1082C166.557 57.7938 165.956 55.8673 166.683 53.0263L158.411 48.4766C157.152 49.9469 155.535 50.651 153.538 50.4332C152.251 50.2996 151.07 49.6934 150.245 48.7432C149.369 47.7636 148.925 46.4985 149.008 45.2138C149.09 43.929 149.691 42.7247 150.686 41.8539C152.64 40.1396 156.163 39.9124 158.42 42.5524L161.725 40.7348C163.258 39.8917 164.786 39.0449 166.325 38.2149C166.612 38.0609 166.718 37.9333 166.583 37.6009C166.132 36.4236 166.2 35.2425 166.722 34.0332L158.413 29.4404C157.199 30.8599 155.655 31.5659 153.725 31.412C153.069 31.3661 152.429 31.1969 151.842 30.9139C151.255 30.6309 150.733 30.2399 150.306 29.7633C149.394 28.7803 148.928 27.4933 149.009 26.1836C149.09 24.874 149.712 23.6482 150.739 22.7745C152.799 21.0207 156.276 20.9794 158.409 23.5256L159.025 23.1876C161.464 21.8469 163.903 20.5074 166.344 19.1693C166.606 19.0265 166.713 18.9195 166.598 18.5947C166.231 17.5925 166.211 16.5044 166.54 15.4904C166.87 14.4764 167.533 13.5902 168.431 12.9621C169.329 12.3341 170.414 11.9975 171.528 12.0017C172.641 12.006 173.724 12.351 174.617 12.9859C175.509 13.6222 176.164 14.5137 176.487 15.5302C176.81 16.5467 176.783 17.6349 176.411 18.636C176.379 18.7224 176.346 18.8087 176.295 18.9514L184.595 23.5237C185.753 22.1774 187.21 21.4582 189.046 21.5352C189.728 21.554 190.399 21.7061 191.018 21.9819C191.636 22.2577 192.188 22.6514 192.641 23.1387C193.103 23.6212 193.461 24.1859 193.694 24.8005C193.927 25.4151 194.03 26.0674 193.998 26.7201C193.966 27.3729 193.799 28.0132 193.507 28.6043C193.215 29.1955 192.803 29.7259 192.296 30.1651C190.289 31.9039 186.799 32.0429 184.593 29.4479L176.32 33.9957C176.427 34.4144 176.539 34.8031 176.626 35.1974C176.794 36.0303 176.711 36.8917 176.387 37.6816C176.305 37.9013 176.324 38.0121 176.543 38.1323C179.201 39.5844 181.854 41.0402 184.502 42.4999C184.533 42.5098 184.565 42.5167 184.597 42.5205C186.883 39.8466 190.533 40.1302 192.485 42.0079C193.455 42.9481 193.996 44.2156 193.991 45.5344C193.985 46.8532 193.434 48.1165 192.456 49.0493C190.468 50.927 186.846 51.143 184.577 48.486L176.322 53.0282ZM184.016 28.4639C183.736 27.8367 183.592 27.1626 183.59 26.4813C183.587 25.7999 183.728 25.125 184.004 24.4963L175.731 19.9429C173.462 22.6242 169.486 22.5548 167.286 19.9429L158.992 24.5076C159.27 25.1344 159.413 25.8081 159.413 26.4886C159.413 27.1691 159.27 27.8427 158.992 28.4696L167.298 33.0418C168.399 31.7387 169.781 31.0402 171.493 31.0383C173.204 31.0364 174.609 31.7537 175.696 33.0399L184.016 28.4639ZM158.986 43.5382C159.265 44.1647 159.411 44.8382 159.413 45.519C159.415 46.1998 159.274 46.8741 158.998 47.5021L167.27 52.0574C169.559 49.3591 173.535 49.4605 175.716 52.0574L184.006 47.4946C183.728 46.8671 183.585 46.1928 183.585 45.5117C183.585 44.8306 183.728 44.1563 184.006 43.5288L175.696 38.9547C174.597 40.2522 173.216 40.9564 171.505 40.9583C169.793 40.9601 168.389 40.2466 167.298 38.9604L158.986 43.5382Z" fill="#17619C"/>
</g>
<defs>
<clipPath id="clip0_1123_7458">
<rect width="45" height="48" fill="white" transform="translate(149 12)"/>
</clipPath>
</defs>
</svg>
