<svg width="180" height="72" viewBox="0 0 180 72" fill="none" xmlns="http://www.w3.org/2000/svg">
<path d="M49.0289 15H17.2592C15.928 15 14.9683 16.2762 15.3377 17.5551L20.5059 35.4449C20.6107 35.8076 20.6107 36.1924 20.5059 36.5551L15.3377 54.4449C14.9683 55.7238 15.928 57 17.2592 57H49.0289C49.9197 57 50.7031 56.4109 50.9504 55.5551L56.4393 36.5551C56.544 36.1924 56.544 35.8076 56.4393 35.4449L50.9504 16.4449C50.7031 15.5891 49.9197 15 49.0289 15Z" fill="#94B6D1"/>
<path d="M103.029 15H71.2592C69.928 15 68.9683 16.2762 69.3377 17.5551L74.5059 35.4449C74.6107 35.8076 74.6107 36.1924 74.5059 36.5551L69.3377 54.4449C68.9683 55.7238 69.928 57 71.2592 57H103.029C103.92 57 104.703 56.4109 104.95 55.5551L110.439 36.5551C110.544 36.1924 110.544 35.8076 110.439 35.4449L104.95 16.4449C104.703 15.5891 103.92 15 103.029 15Z" fill="#4581B0"/>
<path d="M157.029 15H125.259C123.928 15 122.968 16.2762 123.338 17.5551L128.506 35.4449C128.611 35.8076 128.611 36.1924 128.506 36.5551L123.338 54.4449C122.968 55.7238 123.928 57 125.259 57H157.029C157.92 57 158.703 56.4109 158.95 55.5551L164.439 36.5551C164.544 36.1924 164.544 35.8076 164.439 35.4449L158.95 16.4449C158.703 15.5891 157.92 15 157.029 15Z" fill="#15588E"/>
</svg>
