<svg width="180" height="72" viewBox="0 0 180 72" fill="none" xmlns="http://www.w3.org/2000/svg">
<circle cx="90" cy="35" r="30" fill="#FFF8E6"/>
<circle cx="90" cy="36" r="24" fill="#FFE9B0"/>
<circle cx="90" cy="36" r="13" fill="white"/>
<path d="M91.5996 42.4319H92.6396C93.6796 42.4319 94.5436 41.5039 94.5436 40.3839C94.5436 38.9919 94.0476 38.7199 93.2316 38.4319L91.6156 37.8719V42.4319H91.5996Z" fill="#E8A800"/>
<path d="M90.3515 20C81.5195 20.032 74.3675 27.216 74.3995 36.048C74.4315 44.8799 81.6155 52.0319 90.4475 51.9999C99.2794 51.9679 106.431 44.7839 106.399 35.952C106.367 27.12 99.1834 19.984 90.3515 20ZM94.0154 36.16C95.2634 36.592 96.9434 37.52 96.9434 40.3839C96.9434 42.8479 95.0074 44.8319 92.6394 44.8319H91.5994V45.7599C91.5994 46.4159 91.0555 46.9599 90.3995 46.9599C89.7435 46.9599 89.1995 46.4159 89.1995 45.7599V44.8319H88.6235C85.9995 44.8319 83.8715 42.6239 83.8715 39.9039C83.8715 39.2479 84.4155 38.7039 85.0715 38.7039C85.7275 38.7039 86.2715 39.2479 86.2715 39.9039C86.2715 41.2959 87.3275 42.4319 88.6235 42.4319H89.1995V37.024L86.7835 36.16C85.5355 35.728 83.8555 34.8 83.8555 31.936C83.8555 29.472 85.7915 27.488 88.1595 27.488H89.1995V26.56C89.1995 25.904 89.7435 25.36 90.3995 25.36C91.0555 25.36 91.5994 25.904 91.5994 26.56V27.488H92.1754C94.7994 27.488 96.9274 29.696 96.9274 32.416C96.9274 33.072 96.3834 33.616 95.7274 33.616C95.0714 33.616 94.5274 33.072 94.5274 32.416C94.5274 31.024 93.4714 29.888 92.1754 29.888H91.5994V35.296L94.0154 36.16Z" fill="#E8A800"/>
<path d="M86.2715 31.9519C86.2715 33.3439 86.7675 33.6159 87.5835 33.9039L89.1995 34.4639V29.8879H88.1595C87.1195 29.8879 86.2715 30.8159 86.2715 31.9519Z" fill="#E8A800"/>
</svg>
