<svg width="180" height="72" viewBox="0 0 180 72" fill="none" xmlns="http://www.w3.org/2000/svg">
<rect x="49.7998" y="4" width="80" height="30" rx="4" fill="#ED856E"/>
<g clip-path="url(#clip0_962_5184)">
<rect x="0.200195" y="44" width="24" height="24" rx="2" fill="#F5B9AC"/>
<rect x="28.2002" y="44" width="24" height="24" rx="2" fill="#ED856E"/>
<rect x="56.2002" y="44" width="24" height="24" rx="2" fill="#F5B9AC"/>
<path d="M84.2002 46C84.2002 44.8954 85.0956 44 86.2002 44H106.2C107.305 44 108.2 44.8954 108.2 46V66C108.2 67.1046 107.305 68 106.2 68H86.2002C85.0956 68 84.2002 67.1046 84.2002 66V46Z" fill="#F5B9AC"/>
<path d="M112.2 46C112.2 44.8954 113.096 44 114.2 44H134.2C135.305 44 136.2 44.8954 136.2 46V66C136.2 67.1046 135.305 68 134.2 68H114.2C113.096 68 112.2 67.1046 112.2 66V46Z" fill="#F5B9AC"/>
<path d="M140.2 46C140.2 44.8954 141.096 44 142.2 44H162.2C163.305 44 164.2 44.8954 164.2 46V66C164.2 67.1046 163.305 68 162.2 68H142.2C141.096 68 140.2 67.1046 140.2 66V46Z" fill="#F5B9AC"/>
<path d="M168.2 46C168.2 44.8954 169.096 44 170.2 44H190.2C191.305 44 192.2 44.8954 192.2 46V66C192.2 67.1046 191.305 68 190.2 68H170.2C169.096 68 168.2 67.1046 168.2 66V46Z" fill="#F5B9AC"/>
</g>
<defs>
<clipPath id="clip0_962_5184">
<rect width="179.2" height="24" fill="white" transform="translate(0.200195 44)"/>
</clipPath>
</defs>
</svg>
