<svg width="18" height="18" viewBox="0 0 18 18" fill="none" xmlns="http://www.w3.org/2000/svg">
  <path d="M9 11.25C10.2426 11.25 11.25 10.2426 11.25 9C11.25 7.75736 10.2426 6.75 9 6.75C7.75736 6.75 6.75 7.75736 6.75 9C6.75 10.2426 7.75736 11.25 9 11.25Z" stroke="currentColor" stroke-width="1.5" stroke-linecap="round" stroke-linejoin="round"/>
  <path d="M14.535 11.25C14.4321 11.4784 14.4012 11.7321 14.4457 11.9776C14.4902 12.2232 14.6081 12.4496 14.784 12.627L14.8185 12.6615C14.9624 12.8054 15.0761 12.9762 15.1533 13.1649C15.2305 13.3536 15.2696 13.5564 15.2696 13.761C15.2696 13.9656 15.2305 14.1684 15.1533 14.3571C15.0761 14.5458 14.9624 14.7166 14.8185 14.8605C14.6746 15.0044 14.5038 15.1181 14.3151 15.1953C14.1264 15.2725 13.9236 15.3116 13.719 15.3116C13.5144 15.3116 13.3116 15.2725 13.1229 15.1953C12.9342 15.1181 12.7634 15.0044 12.6195 14.8605L12.585 14.826C12.4076 14.6501 12.1812 14.5322 11.9356 14.4877C11.6901 14.4432 11.4364 14.4741 11.208 14.577C10.9839 14.6756 10.7942 14.8374 10.6612 15.0433C10.5282 15.2493 10.4576 15.4906 10.458 15.738V15.84C10.458 16.2583 10.2917 16.6595 9.99539 16.9558C9.69909 17.2521 9.29787 17.4184 8.8795 17.4184C8.46113 17.4184 8.05991 17.2521 7.76361 16.9558C7.46731 16.6595 7.301 16.2583 7.301 15.84V15.7785C7.29697 15.5244 7.21831 15.2774 7.07565 15.0678C6.93299 14.8583 6.73264 14.6951 6.498 14.595C6.26962 14.4923 6.01594 14.4614 5.77038 14.5059C5.52482 14.5504 5.29844 14.6683 5.121 14.844L5.0865 14.8785C4.94261 15.0224 4.77181 15.1361 4.58311 15.2133C4.39441 15.2905 4.19159 15.3296 3.987 15.3296C3.78241 15.3296 3.57959 15.2905 3.39089 15.2133C3.20219 15.1361 3.03139 15.0224 2.8875 14.8785C2.74361 14.7346 2.62991 14.5638 2.55271 14.3751C2.47551 14.1864 2.43641 13.9836 2.43641 13.779C2.43641 13.5744 2.47551 13.3716 2.55271 13.1829C2.62991 12.9942 2.74361 12.8234 2.8875 12.6795L2.922 12.645C3.09786 12.4676 3.21578 12.2412 3.26027 11.9956C3.30476 11.7501 3.27391 11.4964 3.171 11.268C3.07244 11.0439 2.91063 10.8542 2.70468 10.7212C2.49873 10.5882 2.25744 10.5176 2.01 10.518H1.908C1.48963 10.518 1.08841 10.3517 0.792112 10.0554C0.495817 9.75911 0.329502 9.35789 0.329502 8.93952C0.329502 8.52115 0.495817 8.11993 0.792112 7.82363C1.08841 7.52734 1.48963 7.36102 1.908 7.36102H1.9695C2.22362 7.35699 2.47058 7.27833 2.68015 7.13567C2.88972 6.99301 3.05289 6.79266 3.153 6.55802C3.25591 6.32964 3.28676 6.07596 3.24227 5.8304C3.19778 5.58484 3.07986 5.35846 2.904 5.18102L2.8695 5.14652C2.72561 5.00263 2.61191 4.83183 2.53471 4.64313C2.45751 4.45443 2.41841 4.25161 2.41841 4.04702C2.41841 3.84243 2.45751 3.63961 2.53471 3.45091C2.61191 3.26221 2.72561 3.09141 2.8695 2.94752C3.01339 2.80363 3.18419 2.68993 3.37289 2.61273C3.56159 2.53553 3.76441 2.49643 3.969 2.49643C4.17359 2.49643 4.37641 2.53553 4.56511 2.61273C4.75381 2.68993 4.92461 2.80363 5.0685 2.94752L5.103 2.98202C5.28044 3.15788 5.50682 3.2758 5.75238 3.32029C5.99794 3.36478 6.25162 3.33393 6.48 3.23102H6.498C6.72215 3.13246 6.91185 2.97065 7.04485 2.7647C7.17785 2.55875 7.24843 2.31746 7.248 2.07002V1.96802C7.248 1.54965 7.41431 1.14843 7.71061 0.852131C8.0069 0.555836 8.40812 0.389521 8.8265 0.389521C9.24487 0.389521 9.64609 0.555836 9.94239 0.852131C10.2387 1.14843 10.405 1.54965 10.405 1.96802V2.02952C10.4054 2.27696 10.476 2.51825 10.609 2.7242C10.742 2.93015 10.9317 3.09196 11.1558 3.19052C11.3842 3.29343 11.6379 3.32428 11.8834 3.27979C12.129 3.2353 12.3554 3.11738 12.5328 2.94152L12.5673 2.90702C12.7112 2.76313 12.882 2.64943 13.0707 2.57223C13.2594 2.49503 13.4622 2.45593 13.6668 2.45593C13.8714 2.45593 14.0742 2.49503 14.2629 2.57223C14.4516 2.64943 14.6224 2.76313 14.7663 2.90702C14.9102 3.05091 15.0239 3.22171 15.1011 3.41041C15.1783 3.59911 15.2174 3.80193 15.2174 4.00652C15.2174 4.21111 15.1783 4.41393 15.1011 4.60263C15.0239 4.79133 14.9102 4.96213 14.7663 5.10602L14.7318 5.14052C14.5559 5.31796 14.438 5.54434 14.3935 5.7899C14.349 6.03546 14.3799 6.28914 14.4828 6.51752V6.53552C14.5813 6.75967 14.7431 6.94937 14.9491 7.08237C15.155 7.21537 15.3963 7.28595 15.6438 7.28552H15.7458C16.1641 7.28552 16.5654 7.45183 16.8617 7.74813C17.158 8.04442 17.3243 8.44564 17.3243 8.86402C17.3243 9.28239 17.158 9.68361 16.8617 9.9799C16.5654 10.2762 16.1641 10.4425 15.7458 10.4425H15.684C15.4365 10.4429 15.1952 10.5135 14.9893 10.6465C14.7833 10.7795 14.6215 10.9692 14.523 11.1933L14.535 11.25Z" stroke="currentColor" stroke-width="1.5" stroke-linecap="round" stroke-linejoin="round"/>
</svg>