<svg width="12" height="18" viewBox="0 0 12 18" fill="none" xmlns="http://www.w3.org/2000/svg">
<path d="M8.2961 15.2978C8.65417 15.1582 9.06771 15.4633 8.991 15.8399C8.55 17.5499 7.56 17.9999 6.34499 17.9999H5.36399C4.14899 17.9999 3.14999 17.5499 2.71799 15.8309C2.64397 15.4538 3.05551 15.1511 3.41338 15.2913C4.18255 15.5926 5.00471 15.7499 5.84999 15.7499C6.69932 15.7499 7.52566 15.5981 8.2961 15.2978Z" fill="white"/>
<path d="M8.99102 2.16C9.07057 2.54044 8.65118 2.85021 8.28953 2.70784C7.53554 2.41102 6.71291 2.25 5.85002 2.25C4.98819 2.25 4.16712 2.41302 3.4125 2.71014C3.05441 2.85114 2.6412 2.54611 2.71802 2.169C3.15002 0.45 4.14902 0 5.36402 0H6.34502C7.56002 0 8.55002 0.45 8.99102 2.16Z" fill="white"/>
<path d="M5.85 3.1499C2.619 3.1499 0 5.7689 0 8.99991C0 10.8899 0.891 12.5639 2.277 13.6349H2.286C3.276 14.3999 4.509 14.8499 5.85 14.8499C7.209 14.8499 8.451 14.3909 9.44101 13.6169H9.45001C10.818 12.5459 11.7 10.8719 11.7 8.99991C11.7 5.7689 9.08101 3.1499 5.85 3.1499ZM7.58701 11.1419C7.452 11.2769 7.281 11.3399 7.11 11.3399C6.939 11.3399 6.768 11.2769 6.633 11.1419L5.373 9.88191C5.247 9.75591 5.175 9.58491 5.175 9.40491V6.8939C5.175 6.5249 5.481 6.2189 5.85 6.2189C6.219 6.2189 6.525 6.5249 6.525 6.8939V9.12591L7.58701 10.1879C7.84801 10.4489 7.84801 10.8809 7.58701 11.1419Z" fill="white"/>
</svg>
