<svg width="16" height="16" viewBox="0 0 16 16" fill="none" xmlns="http://www.w3.org/2000/svg">
<path d="M15.4936 14.9065L13.4594 12.8724C13.7899 12.3723 13.9849 11.7705 13.9849 11.1264C13.9849 9.37192 12.561 7.948 10.8065 7.948C9.05203 7.948 7.62811 9.37192 7.62811 11.1264C7.62811 12.8809 9.05203 14.3048 10.8065 14.3048C11.4507 14.3048 12.0524 14.1098 12.5525 13.7793L14.5867 15.8134C14.7138 15.9406 14.8748 15.9999 15.0359 15.9999C15.1969 15.9999 15.3579 15.9406 15.4851 15.8134C15.7309 15.5677 15.7309 15.1608 15.4851 14.915L15.4936 14.9065Z" fill="white"/>
<path d="M10.8065 6.66825C11.6626 6.66825 12.4593 6.92253 13.1373 7.34631V5.96477C13.1373 5.28672 12.8407 4.63409 12.3237 4.19335L8.08582 0.565753C7.20434 -0.188584 5.93299 -0.188584 5.05152 0.565753L0.813667 4.19335C0.296649 4.63409 0 5.27824 0 5.96477V11.118C0 12.4063 1.04251 13.4488 2.33082 13.4488H7.03483C6.61104 12.7708 6.35677 11.974 6.35677 11.118C6.35677 8.66004 8.34856 6.66825 10.8065 6.66825Z" fill="white"/>
</svg>
