<svg width="24" height="25" viewBox="0 0 24 25" fill="none" xmlns="http://www.w3.org/2000/svg">
<g id="vuesax/bold/tick-circle">
<g id="tick-circle">
<path id="Vector" d="M12 2.49731C6.49 2.49731 2 6.98731 2 12.4973C2 18.0073 6.49 22.4973 12 22.4973C17.51 22.4973 22 18.0073 22 12.4973C22 6.98731 17.51 2.49731 12 2.49731ZM16.78 10.1973L11.11 15.8673C10.97 16.0073 10.78 16.0873 10.58 16.0873C10.38 16.0873 10.19 16.0073 10.05 15.8673L7.22 13.0373C6.93 12.7473 6.93 12.2673 7.22 11.9773C7.51 11.6873 7.99 11.6873 8.28 11.9773L10.58 14.2773L15.72 9.13731C16.01 8.84731 16.49 8.84731 16.78 9.13731C17.07 9.42731 17.07 9.89731 16.78 10.1973Z" fill="#E9664A"/>
</g>
</g>
</svg>
