<svg width="28" height="27" viewBox="0 0 28 27" fill="none" xmlns="http://www.w3.org/2000/svg">
<g id="q">
<path id="Vector" d="M25.3778 7.97591L17.1726 1.3024C15.3128 -0.215547 12.7009 -0.215547 10.841 1.3024L2.62222 7.97591C1.37778 8.98787 0.666668 10.5195 0.666668 12.1605V21.5144C0.666668 24.4409 2.9641 26.834 5.79487 26.834H22.2051C25.0359 26.834 27.3333 24.4409 27.3333 21.5144V12.1605C27.3333 10.5195 26.6222 8.98787 25.3778 7.97591ZM13.3162 13.8426H14.6838C16.3795 13.8426 17.7607 15.2238 17.7607 16.9195C17.7607 18.5058 16.5573 19.7913 15.0256 19.9554V20.3383C15.0256 20.899 14.5607 21.3639 14 21.3639C13.4393 21.3639 12.9744 20.899 12.9744 20.3383V19.9964H11.265C10.7043 19.9964 10.2393 19.5315 10.2393 18.9708C10.2393 18.4101 10.7043 17.9451 11.265 17.9451H14.6838C15.2444 17.9451 15.7094 17.4802 15.7094 16.9195C15.7094 16.3588 15.2444 15.8939 14.6838 15.8939H13.3162C11.6205 15.8939 10.2393 14.5127 10.2393 12.8169C10.2393 11.2306 11.4427 9.94514 12.9744 9.78103V9.39813C12.9744 8.83744 13.4393 8.37249 14 8.37249C14.5607 8.37249 15.0256 8.83744 15.0256 9.39813V9.74001H16.735C17.2957 9.74001 17.7607 10.205 17.7607 10.7656C17.7607 11.3263 17.2957 11.7913 16.735 11.7913H13.3162C12.7556 11.7913 12.2906 12.2562 12.2906 12.8169C12.2906 13.3776 12.7556 13.8426 13.3162 13.8426Z" fill="#2A2B2E"/>
</g>
</svg>
