<svg width="28" height="27" viewBox="0 0 28 27" fill="none" xmlns="http://www.w3.org/2000/svg">
<g id="g">
<g id="Group">
<path id="Vector" d="M23.5873 13.8308H27.3504V10.7519C27.3504 10.1908 26.8852 9.72559 26.3241 9.72559H21.0011C21.1105 10.054 21.1926 10.3961 21.1926 10.7519V25.8043C21.1926 26.1601 21.1242 26.5022 21.0011 26.8306H26.3241C26.8852 26.8306 27.3504 26.3653 27.3504 25.8043V19.9886H23.5873C23.0263 19.9886 22.561 19.5233 22.561 18.9623C22.561 18.4012 23.0263 17.936 23.5873 17.936H27.3504V15.8834H23.5873C23.0263 15.8834 22.561 15.4181 22.561 14.8571C22.561 14.296 23.0263 13.8308 23.5873 13.8308Z" fill="#2A2B2E"/>
<path id="Vector_2" d="M11.2717 19.9886H8.53495C8.34337 19.9886 8.19285 20.1392 8.19285 20.3307V26.8306H11.6138V20.3307C11.6138 20.1392 11.4633 19.9886 11.2717 19.9886Z" fill="#2A2B2E"/>
<path id="Vector_3" d="M18.1137 9.72559H1.69297C1.13192 9.72559 0.666668 10.1908 0.666668 10.7519V25.8043C0.666668 26.3653 1.13192 26.8306 1.69297 26.8306H6.14026V20.3307C6.14026 19.017 7.2213 17.936 8.53496 17.936H11.2718C12.5854 17.936 13.6665 19.017 13.6665 20.3307V26.8306H18.1137C18.6748 26.8306 19.14 26.3653 19.14 25.8043V10.7519C19.14 10.1908 18.6748 9.72559 18.1137 9.72559ZM11.2718 15.8834H8.53496C7.97392 15.8834 7.50866 15.4181 7.50866 14.8571C7.50866 14.296 7.97392 13.8308 8.53496 13.8308H11.2718C11.8328 13.8308 12.2981 14.296 12.2981 14.8571C12.2981 15.4181 11.8328 15.8834 11.2718 15.8834Z" fill="#2A2B2E"/>
<path id="Vector_4" d="M10.6834 0.502619C10.2865 0.0510475 9.52022 0.0510475 9.12338 0.502619L2.97927 7.67303H16.8275L10.6834 0.502619Z" fill="#2A2B2E"/>
<path id="Vector_5" d="M23.04 4.66247C22.8484 4.40248 22.5474 4.25195 22.2189 4.25195H16.5948L19.5232 7.67295H25.2842L23.0263 4.66247H23.04Z" fill="#2A2B2E"/>
</g>
</g>
</svg>
