<?xml version="1.0" encoding="UTF-8"?>
<svg data-bbox="0.5 1.497 53 53" xmlns="http://www.w3.org/2000/svg" viewBox="0 0 54 55" height="55" width="54" data-type="ugc">
    <g>
        <path fill="#ffffff" d="M53.5 27.997c0 14.636-11.864 26.5-26.5 26.5S.5 42.633.5 27.997s11.864-26.5 26.5-26.5 26.5 11.864 26.5 26.5z"/>
        <path stroke-width=".4" stroke="#2A2B2E" fill="#2A2B2E" d="m29.67 20.056.14.141-.14-.14-6.066 6.017a2.706 2.706 0 0 0 0 3.847l6.066 6.018a.906.906 0 0 0 1.268 0 .892.892 0 0 0 0-1.263l-6.066-6.018a.93.93 0 0 1 0-1.322l6.067-6.018a.892.892 0 0 0 0-1.262.906.906 0 0 0-1.269 0Z"/>
        <path stroke="#2A2B2E" d="M53.5 27.997c0 14.636-11.864 26.5-26.5 26.5S.5 42.633.5 27.997s11.864-26.5 26.5-26.5 26.5 11.864 26.5 26.5z" fill="none"/>
    </g>
</svg>
