<?xml version="1.0" encoding="UTF-8"?>
<svg data-bbox="6.667 7.164 26.683 26.667" xmlns="http://www.w3.org/2000/svg" viewBox="0 0 40 41" height="41" width="40" data-type="color">
    <g>
        <path fill="#2A2B2E" d="M29.587 20.83h3.763v-3.078c0-.561-.465-1.026-1.026-1.026h-5.323c.11.328.192.67.192 1.026v15.052c0 .356-.069.698-.192 1.027h5.323c.561 0 1.026-.466 1.026-1.027V26.99h-3.763a1.034 1.034 0 0 1-1.026-1.027c0-.56.465-1.026 1.026-1.026h3.763v-2.053h-3.763a1.034 1.034 0 0 1-1.026-1.026c0-.561.465-1.026 1.026-1.026Z" data-color="1"/>
        <path fill="#2A2B2E" d="M17.272 26.989h-2.737a.339.339 0 0 0-.342.342v6.5h3.42v-6.5a.339.339 0 0 0-.341-.342Z" data-color="1"/>
        <path fill="#2A2B2E" d="M24.114 16.726H7.693c-.561 0-1.026.465-1.026 1.026v15.052c0 .561.465 1.027 1.026 1.027h4.447v-6.5a2.406 2.406 0 0 1 2.395-2.395h2.737a2.406 2.406 0 0 1 2.395 2.395v6.5h4.447c.56 0 1.026-.466 1.026-1.027V17.752c0-.561-.465-1.026-1.026-1.026Zm-6.842 6.157h-2.737a1.034 1.034 0 0 1-1.026-1.026c0-.561.465-1.026 1.026-1.026h2.737c.56 0 1.026.465 1.026 1.026 0 .561-.465 1.026-1.026 1.026Z" data-color="1"/>
        <path fill="#2A2B2E" d="M16.683 7.503c-.396-.452-1.163-.452-1.56 0l-6.144 7.17h13.849l-6.145-7.17Z" data-color="1"/>
        <path fill="#2A2B2E" d="M29.04 11.662a1.011 1.011 0 0 0-.821-.41h-5.624l2.928 3.42h5.761l-2.258-3.01h.014Z" data-color="1"/>
    </g>
</svg>
