<?xml version="1.0" encoding="UTF-8"?>
<svg data-bbox="4.333 4.368 16 16" xmlns="http://www.w3.org/2000/svg" viewBox="0 0 25 25" height="25" width="25" data-type="color">
    <g>
        <path fill="#ffffff" d="M12.933 15.584h.52c.52 0 .952-.464.952-1.024 0-.696-.248-.832-.656-.976l-.808-.28v2.28h-.008Z" data-color="1"/>
        <path fill="#ffffff" d="M12.31 4.368c-4.417.016-7.993 3.608-7.977 8.024.016 4.416 3.608 7.992 8.024 7.976 4.416-.016 7.992-3.608 7.976-8.024-.016-4.416-3.608-7.984-8.024-7.976Zm1.831 8.08c.624.216 1.464.68 1.464 2.112 0 1.232-.968 2.224-2.152 2.224h-.52v.464c0 .328-.272.6-.6.6a.604.604 0 0 1-.6-.6v-.464h-.288c-1.312 0-2.376-1.104-2.376-2.464 0-.328.272-.6.6-.6.328 0 .6.272.6.6 0 .696.528 1.264 1.176 1.264h.288V12.88l-1.208-.432c-.624-.216-1.464-.68-1.464-2.112 0-1.232.968-2.224 2.152-2.224h.52v-.464c0-.328.272-.6.6-.6.328 0 .6.272.6.6v.464h.288c1.312 0 2.376 1.104 2.376 2.464 0 .328-.272.6-.6.6a.604.604 0 0 1-.6-.6c0-.696-.528-1.264-1.176-1.264h-.288v2.704l1.208.432Z" data-color="1"/>
        <path fill="#ffffff" d="M10.27 10.344c0 .696.247.832.655.976l.808.28V9.312h-.52c-.52 0-.944.464-.944 1.032Z" data-color="1"/>
    </g>
</svg>
