<?xml version="1.0" encoding="UTF-8"?>
<svg data-bbox="6.667 7.163 26.666 26.671" xmlns="http://www.w3.org/2000/svg" viewBox="0 0 40 41" height="41" width="40" data-type="color">
    <g>
        <path fill="#2A2B2E" d="m31.378 14.976-8.205-6.674a4.97 4.97 0 0 0-6.332 0l-8.219 6.674c-1.244 1.012-1.955 2.543-1.955 4.184v9.354c0 2.927 2.297 5.32 5.128 5.32h16.41c2.83 0 5.128-2.393 5.128-5.32V19.16c0-1.64-.71-3.172-1.955-4.184Zm-12.062 5.867h1.368a3.082 3.082 0 0 1 3.077 3.076 3.055 3.055 0 0 1-2.735 3.036v.383c0 .561-.465 1.026-1.026 1.026-.56 0-1.026-.465-1.026-1.026v-.342h-1.709c-.56 0-1.026-.464-1.026-1.025 0-.56.465-1.026 1.026-1.026h3.419c.56 0 1.025-.465 1.025-1.026 0-.56-.465-1.025-1.025-1.025h-1.368a3.082 3.082 0 0 1-3.077-3.077 3.055 3.055 0 0 1 2.735-3.036v-.383c0-.56.465-1.025 1.026-1.025.56 0 1.026.464 1.026 1.025v.342h1.709c.56 0 1.026.465 1.026 1.026 0 .56-.465 1.025-1.026 1.025h-3.419c-.56 0-1.025.465-1.025 1.026 0 .56.465 1.026 1.025 1.026Z" data-color="1"/>
    </g>
</svg>
