<?xml version="1.0" encoding="UTF-8"?>
<svg data-bbox="2.666 4.368 19.485 16" xmlns="http://www.w3.org/2000/svg" viewBox="0 0 25 25" height="25" width="25" data-type="color">
    <g>
        <path fill="#2A2B2E" d="m21.351 11.45-3.19-2.618V7.445c0-1.698-1.68-3.077-3.75-3.077h-4c-1.85 0-3.38 1.108-3.68 2.552-.15.016-.3.033-.45.066-1.69.32-3.05 1.427-3.47 2.806-.48 1.608.26 3.233 1.85 4.16v3.823c0 .386.18.747.51 1.018l1 .82c.33.271.77.419 1.24.419s.91-.148 1.24-.419l1-.82c.33-.271.51-.632.51-1.018v-3.823c1.24-.73 2-1.912 2-3.176 0-1.198-.66-2.313-1.8-3.052a5.175 5.175 0 0 0-2.11-.771c.27-.772 1.13-1.346 2.15-1.346h4c1.24 0 2.25.829 2.25 1.846V8.84l-3.19 2.617c-.52.427-.81.993-.81 1.592v5.063c0 1.247 1.23 2.256 2.75 2.256h4c1.52 0 2.75-1.01 2.75-2.256v-5.063c0-.599-.29-1.173-.81-1.592l.01-.008Zm-13.92-.107c-.41 0-.75-.28-.75-.616 0-.336.33-.615.74-.615h.01c.41 0 .75.279.75.615 0 .336-.34.615-.75.615Zm10.98 2.461h-2c-.41 0-.75-.279-.75-.615 0-.337.34-.616.75-.616h2c.41 0 .75.28.75.616 0 .336-.34.615-.75.615Z" data-color="1"/>
    </g>
</svg>
