<?xml version="1.0" encoding="UTF-8"?>
<svg data-bbox="2.999 3.323 17.56 18.045" xmlns="http://www.w3.org/2000/svg" viewBox="0 0 24 25" height="25" width="24" data-type="color">
    <g>
        <path fill="#ffffff" d="M16.659 8.441a.649.649 0 0 0-.185 0A2.527 2.527 0 0 1 14.03 5.91a2.542 2.542 0 0 1 2.54-2.54 2.542 2.542 0 0 1 2.542 2.54 2.54 2.54 0 0 1-2.453 2.532Z" data-color="1"/>
        <path fill="#ffffff" d="M19.525 14.534c-.985.66-2.365.906-3.64.74.334-.722.51-1.522.519-2.366 0-.88-.194-1.714-.563-2.444 1.301-.176 2.682.07 3.675.73 1.39.914 1.39 2.417.01 3.34Z" data-color="1"/>
        <path fill="#ffffff" d="M6.908 8.441a.649.649 0 0 1 .185 0A2.527 2.527 0 0 0 9.537 5.91a2.537 2.537 0 1 0-5.073 0 2.527 2.527 0 0 0 2.444 2.532Z" data-color="1"/>
        <path fill="#ffffff" d="M7.005 12.908c0 .853.185 1.661.519 2.391-1.24.132-2.533-.132-3.482-.756-1.39-.923-1.39-2.427 0-3.35.94-.633 2.268-.888 3.517-.747a5.59 5.59 0 0 0-.554 2.462Z" data-color="1"/>
        <path fill="#ffffff" d="M11.902 15.563a1.004 1.004 0 0 0-.228 0 3.011 3.011 0 0 1-2.91-3.016 3.032 3.032 0 0 1 3.033-3.024 3.024 3.024 0 0 1 3.024 3.024 3.019 3.019 0 0 1-2.919 3.016Z" data-color="1"/>
        <path fill="#ffffff" d="M9.045 17.383c-1.328.888-1.328 2.347 0 3.227 1.512 1.01 3.991 1.01 5.504 0 1.327-.888 1.327-2.348 0-3.227-1.504-1.011-3.983-1.011-5.504 0Z" data-color="1"/>
    </g>
</svg>
