<?xml version="1.0" encoding="UTF-8"?>
<svg data-bbox="6.665 7.164 26.664 26.668" xmlns="http://www.w3.org/2000/svg" viewBox="0 0 40 41" height="41" width="40" data-type="color">
    <g>
        <path fill="#ffffff" d="M20.34 28.703v-1.71h-3.076a1.032 1.032 0 0 1-1.026-1.025V24.26h-3.076a1.033 1.033 0 0 1-1.026-1.025v-1.71h-5.47v6.988c0 2.926 2.298 5.319 5.128 5.319h12.648V29.73h-3.076a1.033 1.033 0 0 1-1.026-1.026Z" data-color="1"/>
        <path fill="#ffffff" d="M31.375 14.975 23.17 8.302a4.97 4.97 0 0 0-6.331 0l-8.204 6.673a5.376 5.376 0 0 0-1.97 4.184v.315h6.496c.56 0 1.025.464 1.025 1.025v1.71h3.077c.56 0 1.025.464 1.025 1.025v1.709h3.077c.56 0 1.025.465 1.025 1.025v1.71h3.077c.56 0 1.025.464 1.025 1.025v5.128h1.71c2.83 0 5.127-2.393 5.127-5.32V19.16c0-1.64-.711-3.172-1.955-4.184Z" data-color="1"/>
    </g>
</svg>
