<?xml version="1.0" encoding="UTF-8"?>
<svg data-bbox="4 4.368 15.18 16" xmlns="http://www.w3.org/2000/svg" viewBox="0 0 24 25" height="25" width="24" data-type="color">
    <g>
        <path fill="#2A2B2E" d="M18.564 4.368H6.256A2.255 2.255 0 0 0 4 6.625v13.128a.62.62 0 0 0 .615.615.62.62 0 0 0 .616-.615V6.625c0-.567.46-1.026 1.025-1.026h1.847v1.23h-.206c-.787 0-1.435.649-1.435 1.437v4.102c0 .788.648 1.436 1.435 1.436h9.026c.788 0 1.436-.648 1.436-1.436V8.266c0-.788-.648-1.436-1.436-1.436h-.205V5.599h1.846a.62.62 0 0 0 .616-.615.62.62 0 0 0-.616-.616Zm-4.168 5.637-2.462 1.641a.655.655 0 0 1-.344.107.595.595 0 0 1-.435-.18l-.82-.821a.619.619 0 0 1 0-.87.619.619 0 0 1 .87 0l.467.46 2.043-1.363a.612.612 0 0 1 .853.173.612.612 0 0 1-.172.853Zm1.091-3.175H9.333V5.599h6.154v1.23Z" data-color="1"/>
    </g>
</svg>
