<?xml version="1.0" encoding="UTF-8"?>
<svg data-bbox="4.667 4.368 15.669 16" xmlns="http://www.w3.org/2000/svg" viewBox="0 0 25 25" height="25" width="25" data-type="color">
    <g>
        <path fill="#ffffff" d="m20.16 19.275-2.034-2.034c.33-.5.525-1.102.525-1.746a3.18 3.18 0 0 0-6.356 0 3.18 3.18 0 0 0 3.178 3.178 3.16 3.16 0 0 0 1.746-.526l2.034 2.035a.629.629 0 0 0 .45.186c.16 0 .322-.06.449-.186a.64.64 0 0 0 0-.899l.008-.008Z" data-color="1"/>
        <path fill="#ffffff" d="M15.473 11.036c.856 0 1.653.255 2.331.678v-1.381c0-.678-.297-1.33-.814-1.771l-4.237-3.628a2.317 2.317 0 0 0-3.035 0L5.48 8.562a2.32 2.32 0 0 0-.813 1.77v5.154a2.33 2.33 0 0 0 2.33 2.331h4.704a4.386 4.386 0 0 1-.678-2.33 4.45 4.45 0 0 1 4.45-4.45Z" data-color="1"/>
    </g>
</svg>
