<?xml version="1.0" encoding="UTF-8"?>
<svg data-bbox="5 7.164 30 26.094" xmlns="http://www.w3.org/2000/svg" viewBox="0 0 40 41" height="41" width="40" data-type="color">
    <g>
        <path fill="#2A2B2E" d="M29.218 7.164H10.766A5.768 5.768 0 0 0 5 12.93v18.39c0 .739.415 1.415 1.092 1.738.261.123.553.2.83.2.43 0 .846-.138 1.2-.43l5.181-4.137a3.473 3.473 0 0 1 2.169-.753h13.762A5.768 5.768 0 0 0 35 22.172V12.93a5.768 5.768 0 0 0-5.766-5.766h-.016Zm-3.46 13.455a2.704 2.704 0 0 1-2.69 2.69h-6.151a2.704 2.704 0 0 1-2.691-2.69v-3.783a2.69 2.69 0 0 1 1.2-2.245l3.075-2.045a2.67 2.67 0 0 1 2.983 0l3.075 2.045a2.692 2.692 0 0 1 1.2 2.245v3.783Z" data-color="1"/>
        <path fill="#2A2B2E" d="M20.208 14.453s-.139-.062-.216-.062a.353.353 0 0 0-.215.062l-3.075 2.045a.38.38 0 0 0-.17.323v3.782c0 .216.17.385.385.385h6.15a.38.38 0 0 0 .385-.385v-3.782a.401.401 0 0 0-.169-.323l-3.075-2.045Z" data-color="1"/>
    </g>
</svg>
